<svg xmlns="http://www.w3.org/2000/svg" viewBox="0 0 240.73 59.56"><defs><style>.cls-1{fill:#c36d15;}</style></defs><g id="Capa_2" data-name="Capa 2"><g id="Capa_1-2" data-name="Capa 1"><path class="cls-1" d="M20.1,18.08a9.53,9.53,0,0,0-3.75-3c-.37-.16-.8-.32-1.28-.48l.18-.12a6.93,6.93,0,0,0,2.18-2.44,7.06,7.06,0,0,0,.89-3.5,7.2,7.2,0,0,0-.65-3,7.84,7.84,0,0,0-1.84-2.53A9.67,9.67,0,0,0,8.92.62H.05L0,31.44H11.37a12.19,12.19,0,0,0,4.06-.69,10.59,10.59,0,0,0,3.36-1.93A8.77,8.77,0,0,0,20.91,26a7.83,7.83,0,0,0,.74-3.28,7.46,7.46,0,0,0-1.55-4.62ZM2.44,16.36H9.82a14.24,14.24,0,0,1,5.62,1,7,7,0,0,1,2.7,2.14,5.2,5.2,0,0,1,1.12,3.23,5.4,5.4,0,0,1-1,3,7.2,7.2,0,0,1-2.76,2.38h0a9.1,9.1,0,0,1-4.16.92H2.44Zm10.14-3a8.61,8.61,0,0,1-1.66.47,13.37,13.37,0,0,1-2.09.14H2.44V3.07H8.92a8.62,8.62,0,0,1,3.82.78,5.8,5.8,0,0,1,2.38,2,4.93,4.93,0,0,1,.8,2.67,4.45,4.45,0,0,1-1.07,3A6.29,6.29,0,0,1,12.58,13.31Z"/><path class="cls-1" d="M54.79,2.4a15.55,15.55,0,0,0-15.64,0A15.74,15.74,0,0,0,31.37,16a15.65,15.65,0,0,0,2.09,7.89,15.41,15.41,0,0,0,5.69,5.73,15.55,15.55,0,0,0,15.64,0,15.49,15.49,0,0,0,5.69-5.73A15.67,15.67,0,0,0,62.56,16,15.7,15.7,0,0,0,54.79,2.4ZM47,29.32a12.72,12.72,0,0,1-6.6-1.79,13.42,13.42,0,0,1-4.81-4.83A13,13,0,0,1,33.77,16a13,13,0,0,1,1.79-6.67,13.42,13.42,0,0,1,4.81-4.83,13,13,0,0,1,13.19,0A13.28,13.28,0,0,1,60.12,16a13.28,13.28,0,0,1-6.56,11.5A12.71,12.71,0,0,1,47,29.32Z"/><path class="cls-1" d="M86.69,17.88a9.75,9.75,0,0,0,2.88-.83,9,9,0,0,0,3.72-3,7.69,7.69,0,0,0,.84-8A8.7,8.7,0,0,0,92,3.29a10.17,10.17,0,0,0-3.34-2A12.09,12.09,0,0,0,84.59.62H73.78V31.44h2.4V3h8.41a9.1,9.1,0,0,1,4.16.92,7.2,7.2,0,0,1,2.76,2.38,5.4,5.4,0,0,1,1,3,5.28,5.28,0,0,1-1.15,3.27,7.39,7.39,0,0,1-2.71,2.24,15,15,0,0,1-5.58.88H79L91.85,31.38l0,.06h3.19L84,18.05A24.43,24.43,0,0,0,86.69,17.88Z"/><polygon class="cls-1" points="107.51 31.43 127.56 31.43 127.56 28.95 109.9 28.95 109.9 17.25 123.67 17.25 123.67 14.81 109.9 14.81 109.9 3.07 127.56 3.07 127.56 0.62 107.51 0.62 107.51 31.43"/><path class="cls-1" d="M138.47,31.44h2.66l3.62-7.75h16.07l3.43,7.75h2.61L153.07.05ZM153,6l6.78,15.34H145.87Z"/><polygon class="cls-1" points="199 25.27 177.86 0 177.86 31.43 180.26 31.43 180.26 6.88 201.4 32.2 201.4 0.62 199 0.62 199 25.27"/><path class="cls-1" d="M227,.05l-14.6,31.39H215l3.62-7.75H234.7l3.42,7.75h2.61Zm-.1,5.9,6.78,15.34H219.74Z"/><path class="cls-1" d="M45.41,47.72v.82h-4.6V59.36H40V48.54H35.36v-.82Z"/><path class="cls-1" d="M58,59.49a5.73,5.73,0,0,1-3-.8,6,6,0,0,1,0-10.3,5.86,5.86,0,0,1,5.91,0,5.86,5.86,0,0,1,2.15,2.16,6,6,0,0,1,0,6A5.89,5.89,0,0,1,61,58.69,5.77,5.77,0,0,1,58,59.49Zm0-11.08a4.89,4.89,0,0,0-2.54.69A5,5,0,0,0,53.61,51a5.13,5.13,0,0,0,0,5.14A5.08,5.08,0,0,0,55.46,58a5,5,0,0,0,5.09,0,5.13,5.13,0,0,0,1.84-1.86,5.2,5.2,0,0,0,0-5.14,5.08,5.08,0,0,0-1.84-1.87A4.93,4.93,0,0,0,58,48.41Z"/><path class="cls-1" d="M80.7,57.05l2.89-9.33h.85L80.77,59.56l-3.31-8.67-3.35,8.67L70.42,47.72h.84l2.92,9.36,3.28-8.45Z"/><path class="cls-1" d="M93.17,49.9v9.46h-.81V47.57l8.06,9.64V47.72h.81V59.56Z"/><path class="cls-1" d="M117.77,54h-6.88v5.41h-.83V47.72h.83v5.41h6.88V47.72h.8V59.36h-.8Z"/><path class="cls-1" d="M132.56,59.49a5.73,5.73,0,0,1-2.95-.8,6,6,0,0,1,0-10.3,5.86,5.86,0,0,1,5.91,0,5.86,5.86,0,0,1,2.15,2.16,6,6,0,0,1,0,6,5.89,5.89,0,0,1-2.15,2.17A5.77,5.77,0,0,1,132.56,59.49Zm0-11.08a4.89,4.89,0,0,0-2.54.69A5.13,5.13,0,0,0,128.16,51a5.2,5.2,0,0,0,0,5.14A5.18,5.18,0,0,0,130,58a5,5,0,0,0,5.09,0A5.13,5.13,0,0,0,137,56.11,5.2,5.2,0,0,0,137,51a5.08,5.08,0,0,0-1.84-1.87A4.93,4.93,0,0,0,132.56,48.41Z"/><path class="cls-1" d="M150.87,59.49a4.3,4.3,0,0,1-1.69-.35,4.39,4.39,0,0,1-1.44-1,4,4,0,0,1-1-1.43,4.64,4.64,0,0,1-.33-1.74V47.72h.8V55a3.65,3.65,0,0,0,.28,1.43,3.42,3.42,0,0,0,.78,1.19,3.71,3.71,0,0,0,1.18.79,3.44,3.44,0,0,0,1.38.28,3.5,3.5,0,0,0,1.4-.28,3.57,3.57,0,0,0,2-2,3.83,3.83,0,0,0,.28-1.43V47.72h.8V55a4.64,4.64,0,0,1-.33,1.74,4,4,0,0,1-1,1.43,4.45,4.45,0,0,1-1.43,1A4.34,4.34,0,0,1,150.87,59.49Z"/><path class="cls-1" d="M171.53,54.85A2.49,2.49,0,0,1,172,56.3a2.68,2.68,0,0,1-.32,1.26,3.3,3.3,0,0,1-.93,1,5,5,0,0,1-2.92.89,5.16,5.16,0,0,1-1.58-.23,4.53,4.53,0,0,1-1.34-.66,3,3,0,0,1-1.24-1.85l.77-.43a2,2,0,0,0,1,1.61,3.2,3.2,0,0,0,1.09.55,4.46,4.46,0,0,0,1.33.19,4,4,0,0,0,2.42-.74,2,2,0,0,0,.95-1.64,1.76,1.76,0,0,0-.35-1,2.88,2.88,0,0,0-1-.83,7,7,0,0,0-2.11-.48l-.91-.14a5,5,0,0,1-1.33-.4,3.4,3.4,0,0,1-1.38-1.14,2.55,2.55,0,0,1-.5-1.53A2.48,2.48,0,0,1,164,49.5a3.26,3.26,0,0,1,.94-1,4.55,4.55,0,0,1,1.34-.67,5.49,5.49,0,0,1,1.58-.23,4.89,4.89,0,0,1,2.92.9A2.91,2.91,0,0,1,172,50.3l-.77.43a1.91,1.91,0,0,0-.26-.86,2.89,2.89,0,0,0-.69-.76,3.58,3.58,0,0,0-1.11-.54,4.65,4.65,0,0,0-2.63,0,3.23,3.23,0,0,0-1.1.54,2.71,2.71,0,0,0-.72.76,1.65,1.65,0,0,0-.25.87,1.83,1.83,0,0,0,.41,1.1,3,3,0,0,0,1,.86,3.59,3.59,0,0,0,.84.26l1.17.17.63.09a7.56,7.56,0,0,1,1,.19,3.62,3.62,0,0,1,.78.31A3.74,3.74,0,0,1,171.53,54.85Z"/><path class="cls-1" d="M180.39,59.36V47.72h7.55v.82H181.2v4.59h5.25V54H181.2v4.57h6.74v.84Z"/><path class="cls-1" d="M203.6,54.85a2.49,2.49,0,0,1,.46,1.45,2.68,2.68,0,0,1-.32,1.26,3.22,3.22,0,0,1-.94,1,4.91,4.91,0,0,1-2.92.89,5.1,5.1,0,0,1-1.57-.23,4.71,4.71,0,0,1-1.35-.66,3,3,0,0,1-1.23-1.85l.77-.43a2,2,0,0,0,1,1.61,3.2,3.2,0,0,0,1.09.55,4.44,4.44,0,0,0,1.32.19,3.91,3.91,0,0,0,2.42-.74,2,2,0,0,0,.95-1.64,1.69,1.69,0,0,0-.35-1,2.85,2.85,0,0,0-1-.83,7.07,7.07,0,0,0-2.12-.48l-.9-.14a5.05,5.05,0,0,1-1.34-.4,3.53,3.53,0,0,1-1.38-1.14,2.61,2.61,0,0,1-.5-1.53A2.48,2.48,0,0,1,196,49.5a3.38,3.38,0,0,1,.94-1,4.73,4.73,0,0,1,1.35-.67,5.42,5.42,0,0,1,1.57-.23,4.84,4.84,0,0,1,2.92.9A2.87,2.87,0,0,1,204,50.3l-.77.43a1.8,1.8,0,0,0-.26-.86,2.58,2.58,0,0,0-.69-.76,3.38,3.38,0,0,0-1.11-.54,4.37,4.37,0,0,0-1.31-.19,4.42,4.42,0,0,0-1.31.19,3.14,3.14,0,0,0-1.1.54,2.71,2.71,0,0,0-.72.76,1.65,1.65,0,0,0-.25.87,1.83,1.83,0,0,0,.41,1.1,3,3,0,0,0,1,.86,3.5,3.5,0,0,0,.83.26l1.18.17.62.09a7.24,7.24,0,0,1,1,.19,3.68,3.68,0,0,1,2.07,1.44Z"/></g></g></svg>