<svg xmlns="http://www.w3.org/2000/svg" viewBox="0 0 154.77 73.24"><defs><style>.cls-1,.cls-2{fill:#fff;}.cls-2{stroke:#fff;stroke-miterlimit:10;}</style></defs><g id="Capa_2" data-name="Capa 2"><g id="Capa_1-2" data-name="Capa 1"><path class="cls-1" d="M10.93,5.18c12.62.11,18.93,9.34,18.93,18.57S23.55,42.16,10.93,42.32H0V5.18ZM2.6,39.72h8.06c10.93,0,16.39-8,16.39-16s-5.46-16-16.39-16H2.6Z"/><path class="cls-1" d="M67.47,39.82v2.5H44.13V5.18h2.6V39.82Z"/><path class="cls-1" d="M79.64,4.81h2.63V28c0,8.51,6.42,12.8,12.8,12.8s12.86-4.29,12.86-12.8V4.81h2.57V28c0,10.39-7.72,15.59-15.43,15.59S79.8,38.07,79.64,28Z"/><path class="cls-1" d="M126.05,42.31h-3.21l14.41-18.75L122.84,4.81h3.21L138.8,21.47,151.61,4.81h3.16L140.41,23.56l14.36,18.75h-3.16L138.8,25.65Z"/><path class="cls-1" d="M38.1,63.38a6.38,6.38,0,0,0-4.2-1.64c-1.64,0-3.14.81-3.14,2.15s1.77,2.08,3.63,2.72c2.1.75,4.26,1.51,4.26,3.55s-2.16,3-4.31,3a6.78,6.78,0,0,1-5-2.15l.66-.51a5.92,5.92,0,0,0,4.38,1.84c1.74,0,3.5-.77,3.5-2.24S36,68,34.17,67.39c-2.08-.73-4.24-1.47-4.24-3.5s1.93-3,4-3a7.07,7.07,0,0,1,4.8,1.93Z"/><path class="cls-1" d="M50.82,73.24a6.17,6.17,0,0,1,0-12.34,6,6,0,0,1,6.09,6.17A5.89,5.89,0,0,1,50.82,73.24Zm0-11.55a5.38,5.38,0,1,0,5.24,5.38A5.1,5.1,0,0,0,50.82,61.69Z"/><path class="cls-1" d="M71.54,72.19V73H64.1V61.15h.83v11Z"/><path class="cls-1" d="M96.4,61.15h.69L106,71.6V61.15h.83V73h-.71L97.23,62.54V73H96.4Z"/><path class="cls-1" d="M119.34,61h.4l5.72,12h-.9l-1.13-2.4h-7.78L114.52,73h-.9ZM116,69.81h7l-3.5-7.34Z"/><line class="cls-2" y1="66.06" x2="17.23" y2="66.06"/><line class="cls-2" x1="139.5" y1="66.06" x2="154.77" y2="66.06"/><path class="cls-1" d="M78.72,61.25h.79v7a3.9,3.9,0,0,0,7.79,0v-7h.78v7A4.52,4.52,0,0,1,83.4,73a4.61,4.61,0,0,1-4.68-4.73Z"/><path class="cls-1" d="M33.47,7.73a38.86,38.86,0,0,0-3.61-5.61L31.48,0a33.07,33.07,0,0,1,3,6.38Z"/></g></g></svg>