<svg xmlns="http://www.w3.org/2000/svg" viewBox="0 0 1091.02 110.54"><defs><style>.cls-1{stroke:#000;stroke-miterlimit:10;}</style></defs><g id="Capa_2" data-name="Capa 2"><g id="Capa_1-2" data-name="Capa 1"><path d="M31.19,1.07c36,.31,54.05,26.66,54.05,53s-18,52.54-54,53H0V1.07ZM7.42,99.64h23c31.19,0,46.79-22.71,46.79-45.57S61.62,8.35,30.43,8.35h-23Z"/><path d="M192.58,100v7.11H126V1.07h7.41V100Z"/><path d="M227.31,0h7.5V66.06c0,24.3,18.34,36.54,36.54,36.54S308,90.36,308,66.06V0h7.34V66.06c0,29.65-22,44.48-44,44.48-21.71,0-43.58-15.59-44-44.48Z"/><path d="M359.79,107h-9.17l41.13-53.51L350.62,0h9.17l36.39,47.56L432.72,0h9l-41,53.52,41,53.51h-9L396.18,59.48Z"/><path d="M636,40.89c-3.23-3.49-10.29-6.39-16.36-6.39-6.4,0-12.26,3.16-12.26,8.37,0,5.67,6.92,8.11,14.17,10.62,8.18,2.9,16.62,5.87,16.62,13.85s-8.44,11.87-16.81,11.87c-8,0-16.16-3.76-19.66-8.38l2.58-2c2.9,3.89,10.15,7.18,17.08,7.18S635,73,635,67.27,627.91,59,620.66,56.52c-8.12-2.83-16.56-5.74-16.56-13.65,0-7.32,7.52-11.54,15.57-11.54,6.92,0,14.77,3.23,18.73,7.52Z"/><path d="M685.59,79.34c-11.88,0-23.81-8-23.81-24.07S673.71,31.2,685.59,31.2s23.48,8.38,23.74,24.07C709.33,71.3,697.46,79.34,685.59,79.34Zm0-45c-10.29,0-20.51,7-20.51,21s10.22,21,20.51,21,20.44-7,20.44-21S695.81,34.3,685.59,34.3Z"/><path d="M766.42,75.25v3.1h-29V32.19h3.23V75.25Z"/><path d="M863.37,32.19h2.7l34.56,40.75V32.19h3.23V78.35h-2.77L866.6,37.59V78.35h-3.23Z"/><path d="M952.83,31.53h1.59l22.29,46.82h-3.5L968.79,69H938.46L934,78.35h-3.5ZM940,66h27.31L953.62,37.33Z"/><line class="cls-1" x1="487.37" y1="51.33" x2="554.57" y2="51.33"/><line class="cls-1" x1="1031.46" y1="51.33" x2="1091.02" y2="51.33"/><path d="M794.39,32.58h3.11V60c0,10.07,7.6,15.14,15.15,15.14S827.86,70,827.86,60V32.58h3V60c0,12.29-9.13,18.44-18.25,18.44S794.58,71.94,794.39,60Z"/></g></g></svg>