<svg xmlns="http://www.w3.org/2000/svg" viewBox="0 0 669.3 118.02"><defs><style>.cls-1{fill:#c36d15;}</style></defs><g id="Capa_2" data-name="Capa 2"><g id="Capa_1-2" data-name="Capa 1"><path class="cls-1" d="M611.28,118a58,58,0,1,1,58-58,58.08,58.08,0,0,1-58,58m0-114a56,56,0,1,0,56,56,56.08,56.08,0,0,0-56-56"/><path class="cls-1" d="M611.28,74.47c-5.16,0-18.32-9.7-18.32-21.88s8.22-21.88,18.32-21.88,18.32,9.82,18.32,21.88-12.13,21.88-18.32,21.88m0-41.76c-9,0-16.32,8.92-16.32,19.88s12.32,19.88,16.32,19.88c4.6,0,16.32-8.81,16.32-19.88s-7.32-19.88-16.32-19.88"/><rect class="cls-1" x="610.28" y="73.47" width="2" height="20.92"/><path class="cls-1" d="M607.37,40.26a.73.73,0,0,1,.73-.73.73.73,0,0,1,.72.73.72.72,0,0,1-.72.72.73.73,0,0,1-.73-.72"/><path class="cls-1" d="M610.85,40.26a.73.73,0,0,1,.72-.73.73.73,0,0,1,.73.73.73.73,0,0,1-.73.72.72.72,0,0,1-.72-.72"/><path class="cls-1" d="M614.32,40.26a.73.73,0,0,1,.73-.73.73.73,0,0,1,.72.73.72.72,0,0,1-.72.72.73.73,0,0,1-.73-.72"/><path class="cls-1" d="M607.37,44.1a.73.73,0,0,1,.73-.72.72.72,0,0,1,.72.72.73.73,0,0,1-.72.73.73.73,0,0,1-.73-.73"/><path class="cls-1" d="M610.85,44.1a.72.72,0,0,1,.72-.72.73.73,0,0,1,.73.72.73.73,0,0,1-.73.73.73.73,0,0,1-.72-.73"/><path class="cls-1" d="M614.32,44.1a.73.73,0,0,1,.73-.72.72.72,0,0,1,.72.72.73.73,0,0,1-.72.73.73.73,0,0,1-.73-.73"/><path class="cls-1" d="M607.37,48a.73.73,0,0,1,.73-.73.73.73,0,0,1,.72.73.72.72,0,0,1-.72.72.73.73,0,0,1-.73-.72"/><path class="cls-1" d="M610.85,48a.73.73,0,0,1,.72-.73.73.73,0,0,1,.73.73.73.73,0,0,1-.73.72.72.72,0,0,1-.72-.72"/><path class="cls-1" d="M614.32,48a.73.73,0,0,1,.73-.73.73.73,0,0,1,.72.73.72.72,0,0,1-.72.72.73.73,0,0,1-.73-.72"/><path class="cls-1" d="M607.37,51.79a.73.73,0,0,1,.73-.72.72.72,0,0,1,.72.72.73.73,0,0,1-.72.73.73.73,0,0,1-.73-.73"/><path class="cls-1" d="M610.85,51.79a.72.72,0,0,1,.72-.72.73.73,0,0,1,.73.72.73.73,0,0,1-.73.73.73.73,0,0,1-.72-.73"/><path class="cls-1" d="M614.32,51.79a.73.73,0,0,1,.73-.72.72.72,0,0,1,.72.72.73.73,0,0,1-.72.73.73.73,0,0,1-.73-.73"/><path class="cls-1" d="M607.37,55.64a.73.73,0,0,1,.73-.73.73.73,0,0,1,.72.73.72.72,0,0,1-.72.72.73.73,0,0,1-.73-.72"/><path class="cls-1" d="M610.85,55.64a.73.73,0,0,1,.72-.73.73.73,0,0,1,.73.73.73.73,0,0,1-.73.72.72.72,0,0,1-.72-.72"/><path class="cls-1" d="M614.32,55.64a.73.73,0,0,1,.73-.73.73.73,0,0,1,.72.73.72.72,0,0,1-.72.72.73.73,0,0,1-.73-.72"/><path class="cls-1" d="M607.37,59.49a.73.73,0,0,1,.73-.73.73.73,0,0,1,.72.73.72.72,0,0,1-.72.72.73.73,0,0,1-.73-.72"/><path class="cls-1" d="M603.52,44.1a.73.73,0,0,1,.73-.72.72.72,0,0,1,.72.72.73.73,0,0,1-.72.73.73.73,0,0,1-.73-.73"/><path class="cls-1" d="M603.52,48a.73.73,0,0,1,.73-.73A.73.73,0,0,1,605,48a.72.72,0,0,1-.72.72.73.73,0,0,1-.73-.72"/><path class="cls-1" d="M603.52,51.79a.73.73,0,0,1,.73-.72.72.72,0,0,1,.72.72.73.73,0,0,1-.72.73.73.73,0,0,1-.73-.73"/><path class="cls-1" d="M603.52,55.64a.73.73,0,0,1,.73-.73.73.73,0,0,1,.72.73.72.72,0,0,1-.72.72.73.73,0,0,1-.73-.72"/><path class="cls-1" d="M603.52,59.49a.73.73,0,0,1,.73-.73.73.73,0,0,1,.72.73.72.72,0,0,1-.72.72.73.73,0,0,1-.73-.72"/><path class="cls-1" d="M610.85,59.49a.73.73,0,0,1,.72-.73.73.73,0,0,1,.73.73.73.73,0,0,1-.73.72.72.72,0,0,1-.72-.72"/><path class="cls-1" d="M614.32,59.49a.73.73,0,0,1,.73-.73.73.73,0,0,1,.72.73.72.72,0,0,1-.72.72.73.73,0,0,1-.73-.72"/><path class="cls-1" d="M617.59,44.1a.72.72,0,0,1,.72-.72.73.73,0,0,1,.73.72.73.73,0,0,1-.73.73.73.73,0,0,1-.72-.73"/><path class="cls-1" d="M617.59,48a.73.73,0,0,1,.72-.73A.73.73,0,0,1,619,48a.73.73,0,0,1-.73.72.72.72,0,0,1-.72-.72"/><path class="cls-1" d="M617.59,51.79a.72.72,0,0,1,.72-.72.73.73,0,0,1,.73.72.73.73,0,0,1-.73.73.73.73,0,0,1-.72-.73"/><path class="cls-1" d="M617.59,55.64a.73.73,0,0,1,.72-.73.73.73,0,0,1,.73.73.73.73,0,0,1-.73.72.72.72,0,0,1-.72-.72"/><path class="cls-1" d="M617.59,59.49a.73.73,0,0,1,.72-.73.73.73,0,0,1,.73.73.73.73,0,0,1-.73.72.72.72,0,0,1-.72-.72"/><path class="cls-1" d="M607.37,63.33a.73.73,0,0,1,.73-.72.72.72,0,0,1,.72.72.73.73,0,0,1-.72.73.73.73,0,0,1-.73-.73"/><path class="cls-1" d="M610.85,63.33a.72.72,0,0,1,.72-.72.73.73,0,0,1,.73.72.73.73,0,0,1-.73.73.73.73,0,0,1-.72-.73"/><path class="cls-1" d="M614.32,63.33a.73.73,0,0,1,.73-.72.72.72,0,0,1,.72.72.73.73,0,0,1-.72.73.73.73,0,0,1-.73-.73"/><rect class="cls-1" x="473.66" y="66.68" width="2" height="20.58"/><rect class="cls-1" x="466.4" y="86.27" width="15.95" height="2"/><path class="cls-1" d="M477.4,50.58H458.3v-1a9.55,9.55,0,1,1,19.1,0Zm-17-2h15a7.56,7.56,0,0,0-15,0"/><path class="cls-1" d="M474.66,68,451.79,48.58h45.75ZM457.24,50.58l17.42,14.79,17.43-14.79Z"/><polygon class="cls-1" points="483.33 49.78 481.37 49.38 485.26 30.53 494.53 27.75 495.1 29.66 486.97 32.1 483.33 49.78"/><path class="cls-1" d="M474.66,118a58,58,0,1,1,58-58,58.07,58.07,0,0,1-58,58m0-114a56,56,0,1,0,56,56,56.08,56.08,0,0,0-56-56"/><path class="cls-1" d="M337.2,118a58,58,0,1,1,58-58,58.08,58.08,0,0,1-58,58m0-114a56,56,0,1,0,56,56,56.08,56.08,0,0,0-56-56"/><rect class="cls-1" x="309.81" y="37.81" width="52.67" height="2"/><path class="cls-1" d="M323.29,84.44,315.7,45.18l-4.9,39.19-2-.24,5.68-45.45a1,1,0,0,1,1-.87,1,1,0,0,1,1,.81l8.78,45.44Z"/><path class="cls-1" d="M363.61,84.44,356,45.18l-4.9,39.19-2-.24,5.68-45.45a1,1,0,0,1,2-.06l8.78,45.44Z"/><rect class="cls-1" x="323.27" y="38.7" width="2" height="39.97" transform="translate(-4.33 33.83) rotate(-5.93)"/><rect class="cls-1" x="347.06" y="38.7" width="2" height="39.97" transform="translate(-4.2 36.28) rotate(-5.93)"/><path class="cls-1" d="M351.24,79.57H325.43l-.74-7.16h25.8Zm-24-2H349l-.33-3.16H326.91Z"/><path class="cls-1" d="M194.76,42.54l-.11-1.19a2.6,2.6,0,0,1,0-.4,5.88,5.88,0,1,1,11.76,0,2.58,2.58,0,0,1,0,.4l-.11,1.19-1.07-.18a26.58,26.58,0,0,0-9.33,0ZM200.5,40a28.75,28.75,0,0,1,3.8.25,3.88,3.88,0,0,0-7.61,0A28.79,28.79,0,0,1,200.5,40"/><path class="cls-1" d="M229.56,68.78H171.43l0-1a29,29,0,0,1,58,0Zm-56-2h53.91a27.17,27.17,0,0,0-22.29-24.42,26.58,26.58,0,0,0-9.33,0,27.18,27.18,0,0,0-22.29,24.42"/><path class="cls-1" d="M200.19,118a58,58,0,1,1,58-58,58.07,58.07,0,0,1-58,58m0-114a56,56,0,1,0,56,56,56.07,56.07,0,0,0-56-56"/><path class="cls-1" d="M58,116a58,58,0,1,1,58-58,58.08,58.08,0,0,1-58,58M58,2a56,56,0,1,0,56,56A56.08,56.08,0,0,0,58,2"/><path class="cls-1" d="M31.3,62.06H23.78V57H31.3Zm-5.52-2H29.3V59H25.78Z"/><path class="cls-1" d="M69.71,62.06H47.18V57H69.71Zm-20.53-2H67.71V59H49.18Z"/><path class="cls-1" d="M81.46,62.06h-5V57h5Zm-3-2h1V59h-1Z"/><path class="cls-1" d="M92.25,62.06H85.34V57h6.91Zm-4.91-2h2.91V59H87.34Z"/><path class="cls-1" d="M40.45,62.06H35.18V57h5.27Zm-3.27-2h1.27V59H37.18Z"/><path class="cls-1" d="M37.18,67.41H29.3V51.67h7.88Zm-5.88-2h3.88V53.67H31.3Z"/><path class="cls-1" d="M49.18,69.39H38.45V49.69H49.18Zm-8.73-2h6.73V51.69H40.45Z"/><path class="cls-1" d="M78.44,69.39H67.71V49.69H78.44Zm-8.73-2h6.73V51.69H69.71Z"/><path class="cls-1" d="M87.34,67.41H79.46V51.67h7.88Zm-5.88-2h3.88V53.67H81.46Z"/></g></g></svg>