<svg xmlns="http://www.w3.org/2000/svg" viewBox="0 0 5873.48 3595.13"><defs><style>.cls-1{fill:none;stroke:#1d1d1b;stroke-miterlimit:10;}</style></defs><g id="Capa_2" data-name="Capa 2"><g id="Capa_1-2" data-name="Capa 1"><polygon class="cls-1" points="470.45 0.63 389.13 285.24 547.25 334.94 628.57 50.33 470.45 0.63"/><polygon class="cls-1" points="782.16 81.95 628.57 50.33 547.25 334.94 700.85 375.6 782.16 81.95"/><polygon class="cls-1" points="958.35 131.64 872.52 407.22 700.85 375.6 782.16 81.95 958.35 131.64"/><polygon class="cls-1" points="1116.47 167.78 958.35 131.64 872.52 407.22 1030.63 443.36 1116.47 167.78"/><polygon class="cls-1" points="1288.14 212.96 1116.47 167.78 1030.63 443.36 1202.31 497.57 1288.14 212.96"/><polygon class="cls-1" points="1441.74 244.58 1288.14 212.96 1202.31 497.57 1369.46 533.71 1441.74 244.58"/><polygon class="cls-1" points="1613.41 287.5 1441.74 244.58 1369.46 533.71 1532.09 578.89 1613.41 287.5"/><polygon class="cls-1" points="1776.05 334.94 1613.41 287.5 1532.09 578.89 1699.24 619.55 1776.05 334.94"/><polygon class="cls-1" points="1934.16 375.6 1776.05 334.94 1699.24 619.55 1861.88 673.76 1934.16 375.6"/><polygon class="cls-1" points="2092.28 411.74 1934.16 375.6 1861.88 673.76 2020 700.87 2092.28 411.74"/><polygon class="cls-1" points="2291.06 443.36 2119.39 411.74 2092.28 700.87 2241.36 723.45 2291.06 443.36"/><polygon class="cls-1" points="2453.69 453.52 2291.06 443.36 2241.36 723.45 2413.03 723.45 2453.69 453.52"/><polygon class="cls-1" points="2625.36 497.57 2453.69 453.52 2413.03 723.45 2580.18 764.11 2625.36 497.57"/><polygon class="cls-1" points="2797.03 504.35 2625.36 497.57 2580.18 764.11 2756.37 786.7 2797.03 504.35"/><polygon class="cls-1" points="2959.67 538.23 2797.03 504.35 2756.37 786.7 2914.49 822.84 2959.67 538.23"/><polygon class="cls-1" points="3131.34 567.59 2959.67 538.23 2914.49 822.84 3086.16 822.84 3131.34 567.59"/><polygon class="cls-1" points="3298.49 583.41 3131.34 567.59 3095.2 854.46 3262.35 877.05 3298.49 583.41"/><polygon class="cls-1" points="3472.42 608.82 3431.76 901.9 3262.35 877.05 3298.49 583.41 3472.42 608.82"/><polygon class="cls-1" points="3639.57 628.58 3605.69 901.9 3431.76 901.9 3472.42 608.82 3639.57 628.58"/><polygon class="cls-1" points="3813.5 642.13 3770.58 935.78 3605.69 901.9 3639.57 628.58 3813.5 642.13"/><polygon class="cls-1" points="3978.39 663.59 3946.77 951.59 3770.58 935.78 3813.5 642.13 3978.39 663.59"/><polygon class="cls-1" points="4147.81 680.53 4122.96 965.15 3946.77 951.59 3978.39 663.59 4147.81 680.53"/><polygon class="cls-1" points="4333.03 680.53 4163.62 680.53 4163.62 965.15 4323.99 965.15 4333.03 680.53"/><polygon class="cls-1" points="4500.74 965.15 4323.99 965.15 4333.03 680.53 4500.74 680.53 4500.74 965.15"/><polygon class="cls-1" points="4671.85 973.05 4500.74 965.15 4500.74 680.53 4671.85 680.53 4671.85 973.05"/><rect class="cls-1" x="4671.85" y="680.54" width="172.8" height="292.52"/><polygon class="cls-1" points="5014.06 973.05 4844.65 973.05 4844.65 680.53 5014.06 686.75 5014.06 973.05"/><rect class="cls-1" x="5014.06" y="686.75" width="174.49" height="286.31"/><rect class="cls-1" x="5188.56" y="686.75" width="167.72" height="286.31"/><polygon class="cls-1" points="5530.77 988.3 5356.27 981.52 5356.27 686.75 5530.77 686.75 5530.77 988.3"/><rect class="cls-1" x="5530.77" y="686.75" width="169.41" height="301.55"/><rect class="cls-1" x="5700.18" y="686.75" width="172.8" height="301.55"/><polygon class="cls-1" points="3784.14 2939.35 4003.24 3106.51 4109.4 2966.46 3883.52 2801.57 3784.14 2939.35"/><polygon class="cls-1" points="3985.17 2657 3883.52 2801.57 4109.4 2966.46 4213.31 2826.41 3985.17 2657"/><polygon class="cls-1" points="4089.08 2512.44 4314.96 2681.85 4213.31 2826.41 3985.17 2657 4089.08 2512.44"/><polygon class="cls-1" points="4183.95 2372.39 4089.08 2512.44 4314.96 2681.85 4416.6 2539.54 4183.95 2372.39"/><polygon class="cls-1" points="4285.59 2232.34 4183.95 2372.39 4416.6 2539.54 4520.51 2399.5 4285.59 2232.34"/><polygon class="cls-1" points="4387.24 2094.56 4285.59 2232.34 4520.51 2399.5 4624.42 2263.97 4387.24 2094.56"/><polygon class="cls-1" points="4482.11 1945.47 4387.24 2094.56 4624.42 2263.97 4730.58 2126.18 4482.11 1945.47"/><polygon class="cls-1" points="4583.76 1809.94 4482.11 1945.47 4730.58 2126.18 4832.23 1981.62 4583.76 1809.94"/><polygon class="cls-1" points="4687.66 1672.16 4583.76 1809.94 4832.23 1981.62 4927.1 1839.31 4687.66 1672.16"/><polygon class="cls-1" points="4787.05 1532.11 4687.66 1672.16 4927.1 1839.31 5026.49 1701.52 4787.05 1532.11"/><polygon class="cls-1" points="4879.66 1392.06 4787.05 1532.11 5026.49 1701.52 5121.36 1561.47 4879.66 1392.06"/><polygon class="cls-1" points="547.25 642.13 709.88 680.53 628.57 969.66 463.67 924.49 547.25 642.13"/><polygon class="cls-1" points="872.52 723.45 709.88 680.53 628.57 969.66 795.72 1010.32 872.52 723.45"/><polygon class="cls-1" points="1041.93 764.11 872.52 723.45 795.72 1010.32 958.35 1055.5 1041.93 764.11"/><polygon class="cls-1" points="1202.31 805.9 1041.93 764.11 958.35 1055.5 1125.51 1098.42 1202.31 805.9"/><polygon class="cls-1" points="1369.46 858.98 1202.31 805.9 1125.51 1098.42 1288.14 1141.33 1369.46 858.98"/><polygon class="cls-1" points="1532.09 889.48 1369.46 858.98 1288.14 1141.33 1457.55 1188.77 1532.09 889.48"/><polygon class="cls-1" points="1699.24 940.3 1532.09 889.48 1457.55 1188.77 1622.44 1233.95 1699.24 940.3"/><polygon class="cls-1" points="1870.91 989.99 1699.24 940.3 1622.44 1233.95 1791.86 1279.12 1870.91 989.99"/><polygon class="cls-1" points="2202.96 1046.46 2038.07 1023.88 1992.89 1303.97 2164.56 1328.82 2202.96 1046.46"/><polygon class="cls-1" points="2374.63 1061.71 2202.96 1046.46 2164.56 1328.82 2336.23 1349.15 2374.63 1061.71"/><polygon class="cls-1" points="2546.3 1084.86 2374.63 1061.71 2336.23 1349.15 2503.39 1373.99 2546.3 1084.86"/><polygon class="cls-1" points="2715.71 1109.71 2546.3 1084.86 2503.39 1373.99 2677.31 1396.58 2715.71 1109.71"/><polygon class="cls-1" points="2885.13 1132.3 2715.71 1109.71 2677.31 1396.58 2858.02 1419.17 2885.13 1132.3"/><polygon class="cls-1" points="3047.76 1154.89 2885.13 1132.3 2858.02 1419.17 3022.91 1441.76 3047.76 1154.89"/><polygon class="cls-1" points="3221.69 1176.35 3047.76 1154.89 3022.91 1441.76 3196.84 1471.12 3221.69 1176.35"/><polygon class="cls-1" points="3395.62 1197.81 3221.69 1176.35 3196.84 1471.12 3367.38 1493.71 3395.62 1197.81"/><polygon class="cls-1" points="3567.29 1217.85 3395.62 1197.81 3367.38 1493.71 3535.66 1516.3 3567.29 1217.85"/><polygon class="cls-1" points="3736.7 1240.72 3567.29 1217.85 3535.66 1516.3 3702.82 1532.11 3736.7 1240.72"/><polygon class="cls-1" points="3908.37 1264.44 3736.7 1240.72 3702.82 1532.11 3874.49 1546.79 3908.37 1264.44"/><polygon class="cls-1" points="4077.78 1287.03 3908.37 1264.44 3874.49 1546.79 4047.29 1570.51 4077.78 1287.03"/><polygon class="cls-1" points="4248.32 1313.01 4077.78 1287.03 4047.29 1570.51 4215.57 1593.1 4248.32 1313.01"/><polygon class="cls-1" points="1796.37 1685.71 1959.01 1729.97 1877.69 2017.76 1712.8 1981.62 1796.37 1685.71"/><polygon class="cls-1" points="2119.39 1776.06 1959.01 1729.97 1877.69 2017.76 2049.36 2058.41 2119.39 1776.06"/><polygon class="cls-1" points="2291.06 1826.89 2119.39 1776.06 2049.36 2058.41 2216.51 2094.56 2291.06 1826.89"/><polygon class="cls-1" points="2453.69 1861.9 2291.06 1826.89 2216.51 2094.56 2390.44 2141.99 2453.69 1861.9"/><polygon class="cls-1" points="2625.36 1909.33 2453.69 1861.9 2390.44 2141.99 2546.3 2184.91 2625.36 1909.33"/><polygon class="cls-1" points="2797.03 1954.51 2625.36 1909.33 2546.3 2184.91 2715.71 2232.34 2797.03 1954.51"/><polygon class="cls-1" points="2966.44 1984.44 2797.03 1954.51 2715.71 2232.34 2885.13 2263.97 2966.44 1984.44"/><polygon class="cls-1" points="3131.34 2038.09 2966.44 1984.44 2885.13 2263.97 3059.05 2315.92 3131.34 2038.09"/><polygon class="cls-1" points="3298.49 2083.26 3131.34 2038.09 3059.05 2315.92 3221.69 2372.39 3298.49 2083.26"/><polygon class="cls-1" points="3467.34 2126.18 3298.49 2083.26 3221.69 2372.39 3395.62 2415.31 3467.34 2126.18"/><polygon class="cls-1" points="3636.18 2166.84 3467.34 2126.18 3395.62 2415.31 3567.29 2455.97 3636.18 2166.84"/><polygon class="cls-1" points="3805.59 2205.24 3636.18 2166.84 3567.29 2455.97 3736.7 2501.14 3805.59 2205.24"/><polygon class="cls-1" points="1699.24 1660.86 1514.02 1617.94 1441.74 1909.33 1622.44 1947.73 1699.24 1660.86"/><polygon class="cls-1" points="1346.87 1577.29 1272.33 1861.9 1441.74 1909.33 1514.02 1617.94 1346.87 1577.29"/><polygon class="cls-1" points="1179.72 1529.85 1346.87 1577.29 1272.33 1861.9 1102.92 1814.46 1179.72 1529.85"/><polygon class="cls-1" points="1012.56 1484.67 1179.72 1529.85 1102.92 1814.46 935.76 1776.06 1012.56 1484.67"/><polygon class="cls-1" points="849.93 1444.02 1012.56 1484.67 935.76 1776.06 764.09 1729.97 849.93 1444.02"/><polygon class="cls-1" points="681.65 1397.71 849.93 1444.02 764.09 1729.97 598.07 1683.45 681.65 1397.71"/><polygon class="cls-1" points="517.88 1353.66 681.65 1397.71 598.07 1683.45 434.31 1637.14 517.88 1353.66"/><polygon class="cls-1" points="355.25 1308.49 517.88 1353.66 434.31 1637.14 271.67 1596.49 355.25 1308.49"/><polygon class="cls-1" points="77.41 1873.19 249.08 1909.33 163.25 2205.24 0.61 2166.84 77.41 1873.19"/><polygon class="cls-1" points="416.24 1954.51 249.08 1909.33 163.25 2205.24 330.4 2263.97 416.24 1954.51"/><polygon class="cls-1" points="583.39 2004.2 416.24 1954.51 330.4 2263.97 495.3 2302.37 583.39 2004.2"/><polygon class="cls-1" points="748.28 2049.38 583.39 2004.2 495.3 2302.37 660.19 2345.28 748.28 2049.38"/><polygon class="cls-1" points="906.4 2086.65 748.28 2049.38 660.19 2345.28 831.86 2390.46 906.4 2086.65"/><polygon class="cls-1" points="1080.33 2141.99 906.4 2086.65 831.86 2390.46 1012.56 2433.38 1080.33 2141.99"/><polygon class="cls-1" points="1247.48 2184.91 1080.33 2141.99 1012.56 2433.38 1179.72 2474.04 1247.48 2184.91"/><polygon class="cls-1" points="1410.12 2219.92 1247.48 2184.91 1179.72 2474.04 1346.87 2519.21 1410.12 2219.92"/><polygon class="cls-1" points="1586.87 2263.97 1410.12 2219.92 1346.87 2519.21 1514.02 2560.44 1586.87 2263.97"/><polygon class="cls-1" points="1752.89 2315.92 1586.87 2263.97 1514.02 2560.44 1678.35 2607.87 1752.89 2315.92"/><polygon class="cls-1" points="1917.22 2352.06 1752.89 2315.92 1678.35 2607.87 1851.15 2645.14 1917.22 2352.06"/><polygon class="cls-1" points="2084.94 2411.36 1917.22 2352.06 1851.15 2645.14 2018.87 2685.8 2084.94 2411.36"/><polygon class="cls-1" points="2250.96 2457.1 2084.94 2411.36 2018.87 2685.8 2186.59 2728.16 2250.96 2457.1"/><polygon class="cls-1" points="2418.68 2499.45 2250.96 2457.1 2186.59 2728.16 2352.61 2772.2 2418.68 2499.45"/><polygon class="cls-1" points="2588.09 2545.19 2418.68 2499.45 2352.61 2772.2 2520.33 2812.86 2588.09 2545.19"/><polygon class="cls-1" points="2754.11 2587.54 2588.09 2545.19 2520.33 2812.86 2689.74 2860.3 2754.11 2587.54"/><polygon class="cls-1" points="2926.91 2634.98 2754.11 2587.54 2689.74 2860.3 2855.76 2902.65 2926.91 2634.98"/><polygon class="cls-1" points="3906.11 3345.94 3763.81 3233 3567.29 3467.92 3723.15 3594.41 3906.11 3345.94"/><polygon class="cls-1" points="3619.24 3126.84 3763.81 3233 3567.29 3467.92 3431.76 3366.27 3619.24 3126.84"/><polygon class="cls-1" points="3479.2 3020.67 3312.04 3248.81 3431.76 3366.27 3619.24 3126.84 3479.2 3020.67"/><polygon class="cls-1" points="3344.51 2902.65 3479.2 3020.67 3312.04 3248.81 3162.96 3140.39 3344.51 2902.65"/><polygon class="cls-1" points="3210.39 2801.57 3344.51 2902.65 3162.96 3140.39 3029.69 3036.48 3210.39 2801.57"/><polygon class="cls-1" points="3059.05 2702.74 3210.39 2801.57 3029.69 3036.48 2894.16 2943.87 3059.05 2702.74"/></g></g></svg>