<svg xmlns="http://www.w3.org/2000/svg" viewBox="0 0 57.07 57.07"><defs><style>.cls-1{fill:#c36d15;}</style></defs><g id="Capa_2" data-name="Capa 2"><g id="Capa_1-2" data-name="Capa 1"><path class="cls-1" d="M19.93,32.72s.45,9.19,9.44,8.94Z"/><path class="cls-1" d="M20.19,32.44s9.2,0,9.44,9Z"/><path class="cls-1" d="M38.08,25.86s1.9,9-6.85,11Z"/><path class="cls-1" d="M37.76,25.66S28.85,28,30.91,36.71Z"/><path class="cls-1" d="M22.57,24.08s-1.39,6.61,5,8.12Z"/><path class="cls-1" d="M22.81,23.93s6.54,1.69,5,8.12Z"/><path class="cls-1" d="M34.3,20.1s1.4,6.6-5,8.11Z"/><path class="cls-1" d="M34.06,20s-6.54,1.69-5,8.12Z"/><path class="cls-1" d="M25.35,15.49s5.13,3.3,2,8.39Z"/><path class="cls-1" d="M25.11,15.55s-3.08,5.27,2,8.38Z"/><path class="cls-1" d="M28.54,57.07A28.54,28.54,0,1,1,57.07,28.54,28.57,28.57,0,0,1,28.54,57.07m0-56.2A27.67,27.67,0,1,0,56.21,28.54,27.7,27.7,0,0,0,28.54.87"/></g></g></svg>