<svg xmlns="http://www.w3.org/2000/svg" viewBox="0 0 57.07 57.07"><defs><style>.cls-1{fill:#c36d15;}</style></defs><g id="Capa_2" data-name="Capa 2"><g id="Capa_1-2" data-name="Capa 1"><path class="cls-1" d="M38.33,16.89H19.21a1,1,0,0,0-.92.69L14,32.1a.72.72,0,0,0,.68.93H34.31a.72.72,0,0,0,.69-.52l4.25-14.39a1,1,0,0,0-.92-1.23M31.54,18.1l-1.13,3.81a.19.19,0,0,1-.19.15H24.74a.2.2,0,0,1-.19-.26L25.68,18a.2.2,0,0,1,.2-.14h5.47a.2.2,0,0,1,.19.25M30.17,23,29,26.8a.22.22,0,0,1-.2.14H23.37a.2.2,0,0,1-.19-.26l1.13-3.8a.19.19,0,0,1,.19-.15H30a.2.2,0,0,1,.19.26M19.35,17.85h5.47a.19.19,0,0,1,.19.25l-1.13,3.81a.19.19,0,0,1-.19.15H18.22a.2.2,0,0,1-.2-.26L19.15,18a.2.2,0,0,1,.2-.14M18,22.73h5.48a.2.2,0,0,1,.19.26L22.51,26.8a.21.21,0,0,1-.19.14H16.84a.2.2,0,0,1-.19-.26l1.13-3.8a.2.2,0,0,1,.19-.15m-3,8.84,1.13-3.81a.2.2,0,0,1,.19-.14h5.47a.2.2,0,0,1,.2.26l-1.13,3.81a.22.22,0,0,1-.2.14H15.19a.2.2,0,0,1-.19-.26m6.53,0,1.13-3.81a.2.2,0,0,1,.19-.14h5.47a.21.21,0,0,1,.2.26l-1.14,3.81a.2.2,0,0,1-.19.14H21.72a.2.2,0,0,1-.19-.26m12.19.26H28.25a.21.21,0,0,1-.2-.26l1.14-3.81a.2.2,0,0,1,.19-.14h5.47a.2.2,0,0,1,.19.26l-1.13,3.81a.2.2,0,0,1-.19.14m1.65-4.89H29.9a.2.2,0,0,1-.19-.26l1.13-3.8a.19.19,0,0,1,.19-.15H36.5a.21.21,0,0,1,.2.26L35.56,26.8a.2.2,0,0,1-.19.14m1.38-4.88H31.27a.2.2,0,0,1-.19-.26L32.21,18a.2.2,0,0,1,.19-.14h5.48a.2.2,0,0,1,.19.25l-1.13,3.81a.2.2,0,0,1-.19.15"/><rect class="cls-1" x="25.09" y="33.03" width="0.64" height="6.31"/><path class="cls-1" d="M36.9,39.34H21.39a.27.27,0,0,1-.26-.27v-.64a.27.27,0,0,1,.26-.27H36.9a.27.27,0,0,1,.27.27v.64a.27.27,0,0,1-.27.27"/><rect class="cls-1" x="32.96" y="30.85" width="0.64" height="9.83" transform="translate(-15.54 34.01) rotate(-45)"/><path class="cls-1" d="M28.54,57.07A28.54,28.54,0,1,1,57.07,28.54,28.57,28.57,0,0,1,28.54,57.07m0-56.2A27.67,27.67,0,1,0,56.2,28.54,27.7,27.7,0,0,0,28.54.87"/></g></g></svg>