<svg xmlns="http://www.w3.org/2000/svg" viewBox="0 0 57.07 57.07"><defs><style>.cls-1{fill:#c36d15;}</style></defs><g id="Capa_2" data-name="Capa 2"><g id="Capa_1-2" data-name="Capa 1"><path class="cls-1" d="M27.64,35.36V33H26.45v1.13H25.3V31.86h1.12V30.68H25.25V29.49h1.17c0-.39,0-.74.06-1.1H27.6V27.23h1.13V26.07H29.9v1.12h1.17V26.07h1.17v1.11l1.21.1h0v1.1h1.1v1.13H33.41v1.14h-2.3V33h0l-1.27,0c0-.47,0-.93,0-1.39s0-.64,0-1H28.76c0-.43-.05-.82-.07-1.21l1.18.05V28.41h-1.1c0,.37-.05.72-.07,1.06l-1.06.07v2.32h1.11V33l1.1.07c0,.36,0,.73.08,1.14H28.71v1.16H27.64Zm4.59-6.95H31.11v1.08h1.12Z"/><path class="cls-1" d="M32.26,16.76h8.11v8.09H32.26Zm1.16,6.93H39.2V17.93H33.42Z"/><path class="cls-1" d="M16,33h8.12v8.1H16Zm7,1.17H17.16V40h5.76Z"/><path class="cls-1" d="M24.09,24.86H16v-8.1h8.11Zm-1.16-6.93H17.15v5.76h5.78Z"/><path class="cls-1" d="M28.69,38.8l-1.05.05V36.5h1.08V35.35h1.2v1.12h1.16V35.37h1.18v1.14h2.31v4.64H33.42V40H31.09v1.12H29.91V40H28.76c0-.44-.05-.83-.07-1.22h1.19V37.7H28.76c0,.39,0,.74-.07,1.1m3.53-1.11H31.11v1.13h1.11Z"/><path class="cls-1" d="M27.64,20.24V19.09H25.3V17.92h2.3V16.73h3.19c.19,0,.3,0,.3.25,0,1.8,0,3.61,0,5.41,0,0,0,.08,0,.15H29.88V20.23H27.64Zm2.24-2.31H28.76v1.12h1.12Z"/><path class="cls-1" d="M26.47,26v2.39H25.3c0,.39,0,.74-.06,1.1h0l-4,0h-.6V28.38h3.45V27.23H23V26h3.51Z"/><path class="cls-1" d="M27.64,36.5H26.47V40h1.12v1.18c-.73,0-1.45,0-2.17,0-.05,0-.14-.19-.14-.3,0-1.55,0-3.1,0-4.66v-.83h2.36v1.16Z"/><path class="cls-1" d="M36.89,29.5l0-2.22h0l1.19,0h0v1.16H39.2v1.1h1.17v1.18H39.23v1.15H36.89V30.66H38V29.49H36.89Z"/><polygon class="cls-1" points="35.75 38.84 36.89 38.84 36.89 36.53 38.05 36.53 38.05 38.82 39.2 38.82 39.2 40 38.07 40 38.07 41.15 36.9 41.15 36.9 40.01 35.75 40.01 35.75 38.84"/><rect class="cls-1" x="15.98" y="26.07" width="5.77" height="1.13"/><polygon class="cls-1" points="17.12 29.52 17.12 28.41 18.28 28.41 18.28 30.66 17.14 30.66 17.14 31.83 15.99 31.83 15.99 29.52 17.12 29.52"/><polygon class="cls-1" points="34.57 33.04 35.71 33.04 35.71 36.5 34.57 36.5 34.58 36.51 34.58 35.34 33.44 35.34 33.44 34.17 34.58 34.17 34.58 33.03 34.57 33.04"/><path class="cls-1" d="M27.63,24.86V26H26.48c0-.36,0-.73-.06-1.14H25.29V22.56h1.18v2.32h1.16Z"/><path class="cls-1" d="M26.48,22.55c0-.38,0-.76-.06-1.16H25.29V20.24h2.34v2.32H26.48Z"/><rect class="cls-1" x="19.48" y="30.7" width="2.28" height="1.14"/><path class="cls-1" d="M38.05,27.25V26.07h1.17v1.15h1.15V28.4H39.21V27.25H38.05Z"/><polygon class="cls-1" points="33.41 30.65 34.57 30.65 34.57 33.04 34.58 33.03 33.42 33.03 33.42 30.65 33.41 30.65"/><rect class="cls-1" x="39.25" y="33.05" width="1.12" height="2.28"/><path class="cls-1" d="M36.86,27.28l-1.11-.09V26.07h1.11v1.21h0"/><path class="cls-1" d="M33.45,27.28c0-.39,0-.79-.06-1.21h1.16v1.12l-1.1.09h0"/><path class="cls-1" d="M29.84,23.74h1.21v1.11H29.94l-.09-1.12h0"/><rect class="cls-1" x="22.97" y="30.7" width="1.12" height="1.14"/><path class="cls-1" d="M36.89,30.64l-1.13.06V29.5h1.12c0,.39,0,.78,0,1.17Z"/><path class="cls-1" d="M29.87,22.54l0,1.2h0l-1.14,0h0V22.56h1.16Z"/><path class="cls-1" d="M28.71,23.7v1.16H27.64V23.71h1.07Z"/><path class="cls-1" d="M27.63,36.51V35.35h1.09v1.16Z"/><path class="cls-1" d="M31.11,33h1.11v1.13H31.07c0-.38,0-.76.05-1.14h0"/><rect class="cls-1" x="34.59" y="19.09" width="3.45" height="3.45"/><rect class="cls-1" x="18.32" y="35.37" width="3.45" height="3.44"/><rect class="cls-1" x="18.32" y="19.09" width="3.45" height="3.44"/><path class="cls-1" d="M28.54,57.07A28.54,28.54,0,1,1,57.07,28.54,28.57,28.57,0,0,1,28.54,57.07m0-56.2A27.67,27.67,0,1,0,56.2,28.54,27.7,27.7,0,0,0,28.54.87"/></g></g></svg>