<svg xmlns="http://www.w3.org/2000/svg" viewBox="0 0 57.07 57.07"><defs><style>.cls-1{fill:#c36d15;}</style></defs><g id="Capa_2" data-name="Capa 2"><g id="Capa_1-2" data-name="Capa 1"><path class="cls-1" d="M44.36,25.39a1,1,0,0,1-.71-.33A19.67,19.67,0,0,0,38,21.15a19.53,19.53,0,0,0-21.7,3.66c-.44.42-.7.57-1,.57h-.09a1,1,0,0,1-.9-.68,1,1,0,0,1,.3-1.16,21.46,21.46,0,0,1,6.49-4.43,21.63,21.63,0,0,1,23.63,4.11c.5.47.7.75.7,1.26a.94.94,0,0,1-.64.81,1.12,1.12,0,0,1-.45.1"/><path class="cls-1" d="M39.82,30a.85.85,0,0,1-.63-.3,12.46,12.46,0,0,0-4.87-3.06,15,15,0,0,0-4.66-.79,13.18,13.18,0,0,0-8.93,3.63,2.13,2.13,0,0,1-.73.48.78.78,0,0,1-.22,0A.93.93,0,0,1,19,29.5a.9.9,0,0,1,.19-1.16A13.5,13.5,0,0,1,24.26,25a17.5,17.5,0,0,1,5.85-1.09,15,15,0,0,1,10.27,4.32,2.12,2.12,0,0,1,.39.61l0,.06a1,1,0,0,1-.55,1,1.21,1.21,0,0,1-.43.1"/><path class="cls-1" d="M35.43,34.39a.93.93,0,0,1-.64-.3,6.9,6.9,0,0,0-4.76-2h-.19A6.81,6.81,0,0,0,25,34a1,1,0,0,1-.74.36h-.12a.82.82,0,0,1-.76-.6.9.9,0,0,1,.25-1,8.62,8.62,0,0,1,4.94-2.45,10.63,10.63,0,0,1,1.36-.1,8.55,8.55,0,0,1,6,2.46,2.71,2.71,0,0,1,.43.65v.12a.87.87,0,0,1-.56.88,1,1,0,0,1-.4.09"/><path class="cls-1" d="M29.83,39.8a1.33,1.33,0,1,1,.94-2.25,1.28,1.28,0,0,1,.39.93,1.34,1.34,0,0,1-1.33,1.32Z"/><path class="cls-1" d="M28.54,57.07A28.54,28.54,0,1,1,57.07,28.54,28.57,28.57,0,0,1,28.54,57.07m0-56.2A27.67,27.67,0,1,0,56.2,28.54,27.7,27.7,0,0,0,28.54.87"/></g></g></svg>