<svg xmlns="http://www.w3.org/2000/svg" viewBox="0 0 3969.51 2607.93"><defs><style>.cls-1{fill:#fff;stroke:#1d1d1b;stroke-miterlimit:10;}</style></defs><g id="Capa_2" data-name="Capa 2"><g id="Capa_1-2" data-name="Capa 1"><polygon class="cls-1" points="373.35 0.63 303.7 172.3 401.21 206.18 470.48 35.27 373.35 0.63"/><polygon class="cls-1" points="580.41 74.42 513.02 247.22 401.21 206.18 470.48 35.27 580.41 74.42"/><polygon class="cls-1" points="623.33 287.5 513.02 247.22 580.41 74.42 690.72 114.33 623.33 287.5"/><polygon class="cls-1" points="733.26 327.78 623.33 287.5 690.72 114.33 800.64 153.85 733.26 327.78"/><polygon class="cls-1" points="844.32 366.94 733.26 327.78 800.64 153.85 911.7 194.51 844.32 366.94"/><polygon class="cls-1" points="955.75 407.97 844.32 366.94 911.7 194.51 1022.01 234.04 955.75 407.97"/><polygon class="cls-1" points="1066.43 448.63 955.75 407.97 1022.01 234.04 1133.44 274.7 1066.43 448.63"/><polygon class="cls-1" points="1177.49 487.78 1066.43 448.63 1133.44 274.7 1243.75 314.61 1177.49 487.78"/><polygon class="cls-1" points="1289.3 528.82 1177.49 487.78 1243.75 314.61 1355.18 355.27 1289.3 528.82"/><polygon class="cls-1" points="1399.98 568.73 1289.3 528.82 1355.18 355.27 1465.49 394.8 1399.98 568.73"/><polygon class="cls-1" points="1568.27 596.96 1456.83 581.9 1487.33 398.18 1595.75 413.62 1568.27 596.96"/><polygon class="cls-1" points="1684.6 613.52 1568.27 596.96 1595.75 413.62 1712.45 430.56 1684.6 613.52"/><polygon class="cls-1" points="1803.18 630.47 1684.6 613.52 1712.45 430.56 1831.8 446 1803.18 630.47"/><polygon class="cls-1" points="1921.02 647.78 1803.18 630.47 1831.8 446 1948.5 463.69 1921.02 647.78"/><polygon class="cls-1" points="2038.48 665.85 1921.02 647.78 1948.5 463.69 2066.34 481.01 2038.48 665.85"/><polygon class="cls-1" points="2156.69 682.79 2038.48 665.85 2066.34 481.01 2183.79 500.21 2156.69 682.79"/><polygon class="cls-1" points="2273.39 700.11 2156.69 682.79 2183.79 500.21 2300.12 516.02 2273.39 700.11"/><polygon class="cls-1" points="2391.98 717.43 2273.39 700.11 2300.12 516.02 2418.34 535.6 2391.98 717.43"/><polygon class="cls-1" points="2510.19 734.37 2391.98 717.43 2418.34 535.6 2535.79 549.9 2510.19 734.37"/><polygon class="cls-1" points="2628.03 752.07 2510.19 734.37 2535.79 549.9 2654.38 567.97 2628.03 752.07"/><polygon class="cls-1" points="2746.24 770.14 2628.03 752.07 2654.38 567.97 2771.84 586.42 2746.24 770.14"/><polygon class="cls-1" points="2894.57 781.81 2782.76 781.81 2782.76 594.33 2898.33 594.33 2894.57 781.81"/><polygon class="cls-1" points="3014.66 785.2 2894.57 781.81 2898.33 594.33 3017.3 597.34 3014.66 785.2"/><polygon class="cls-1" points="3134 788.58 3014.66 785.2 3017.3 597.34 3136.26 601.1 3134 788.58"/><polygon class="cls-1" points="3252.59 791.22 3134 788.58 3136.26 601.1 3252.59 602.98 3252.59 791.22"/><polygon class="cls-1" points="3372.31 794.61 3252.59 791.22 3252.59 602.98 3372.31 607.5 3372.31 794.61"/><polygon class="cls-1" points="3492.78 798.37 3372.31 794.61 3372.31 607.5 3489.77 610.14 3492.78 798.37"/><polygon class="cls-1" points="3610.61 801.38 3492.78 798.37 3489.77 610.14 3607.98 613.9 3610.61 801.38"/><polygon class="cls-1" points="3728.07 804.77 3610.61 801.38 3607.98 613.9 3728.07 617.29 3728.07 804.77"/><polygon class="cls-1" points="3848.17 807.78 3728.07 804.77 3728.07 617.29 3845.91 621.05 3848.17 807.78"/><polygon class="cls-1" points="3969.01 811.92 3848.17 807.78 3845.91 621.05 3969.01 625.95 3969.01 811.92"/><polygon class="cls-1" points="444.5 496.07 546.9 531.08 475.75 714.79 375.61 673.38 444.5 496.07"/><polygon class="cls-1" points="586.06 755.45 475.75 714.79 546.9 531.08 657.59 570.98 586.06 755.45"/><polygon class="cls-1" points="697.49 796.87 586.06 755.45 657.59 570.98 768.64 611.27 697.49 796.87"/><polygon class="cls-1" points="808.55 837.9 697.49 796.87 768.64 611.27 880.46 652.3 808.55 837.9"/><polygon class="cls-1" points="920.74 877.81 808.55 837.9 880.46 652.3 990.38 692.21 920.74 877.81"/><polygon class="cls-1" points="1031.8 918.47 920.74 877.81 990.38 692.21 1102.2 733.24 1031.8 918.47"/><polygon class="cls-1" points="1143.98 958.75 1031.8 918.47 1102.2 733.24 1214.76 773.9 1143.98 958.75"/><polygon class="cls-1" points="1256.17 999.41 1143.98 958.75 1214.76 773.9 1326.2 814.18 1256.17 999.41"/><polygon class="cls-1" points="1417.68 1033.66 1306.62 1018.61 1335.61 825.1 1447.8 837.9 1417.68 1033.66"/><polygon class="cls-1" points="1535.14 1052.87 1417.68 1033.66 1447.8 837.9 1565.26 855.22 1535.14 1052.87"/><polygon class="cls-1" points="1654.1 1071.69 1535.14 1052.87 1565.26 855.22 1683.47 872.16 1654.1 1071.69"/><polygon class="cls-1" points="1771.94 1089.01 1654.1 1071.69 1683.47 872.16 1803.18 889.48 1771.94 1089.01"/><polygon class="cls-1" points="1889.77 1108.96 1771.94 1089.01 1803.18 889.48 1919.89 907.55 1889.77 1108.96"/><polygon class="cls-1" points="2008.36 1127.03 1889.77 1108.96 1919.89 907.55 2038.1 925.24 2008.36 1127.03"/><polygon class="cls-1" points="2127.7 1140.21 2008.36 1127.03 2038.1 925.24 2157.44 943.31 2127.7 1140.21"/><polygon class="cls-1" points="2246.66 1149.99 2127.7 1140.21 2157.44 943.31 2274.52 959.88 2246.66 1149.99"/><polygon class="cls-1" points="2365.63 1174.46 2246.66 1149.99 2274.52 959.88 2392.74 977.2 2365.63 1174.46"/><polygon class="cls-1" points="2483.84 1192.54 2365.63 1174.46 2392.74 977.2 2511.32 994.51 2483.84 1192.54"/><polygon class="cls-1" points="2603.18 1207.97 2483.84 1192.54 2511.32 994.51 2629.91 1012.58 2603.18 1207.97"/><polygon class="cls-1" points="2721.39 1226.79 2603.18 1207.97 2629.91 1012.58 2747.75 1029.52 2721.39 1226.79"/><polygon class="cls-1" points="2840.36 1241.85 2721.39 1226.79 2747.75 1029.52 2867.09 1046.84 2840.36 1241.85"/><polygon class="cls-1" points="2961.2 1261.43 2840.36 1241.85 2867.09 1046.84 2987.18 1065.29 2961.2 1261.43"/><polygon class="cls-1" points="328.18 1196.3 218.62 1169.19 279.61 972.68 390.29 1003.17 328.18 1196.3"/><polygon class="cls-1" points="443.37 1229.62 328.18 1196.3 390.29 1003.17 502.67 1034.79 443.37 1229.62"/><polygon class="cls-1" points="557.45 1262.93 443.37 1229.62 502.67 1034.79 616.74 1067.55 557.45 1262.93"/><polygon class="cls-1" points="673.77 1298.47 557.45 1262.93 616.74 1067.55 733.07 1101.43 673.77 1298.47"/><polygon class="cls-1" points="787.84 1329.01 673.77 1298.47 733.07 1101.43 847.14 1133.05 787.84 1329.01"/><polygon class="cls-1" points="903.04 1362.89 787.84 1329.01 847.14 1133.05 962.34 1166.37 903.04 1362.89"/><polygon class="cls-1" points="1019.94 1395.64 903.04 1362.89 962.34 1166.37 1078.1 1199.69 1019.94 1395.64"/><polygon class="cls-1" points="1134.57 1429.52 1019.94 1395.64 1078.1 1199.69 1193.87 1232.44 1134.57 1429.52"/><polygon class="cls-1" points="1249.77 1461.71 1134.57 1429.52 1193.87 1232.44 1310.2 1265.76 1249.77 1461.71"/><polygon class="cls-1" points="1365.54 1496.16 1249.77 1461.71 1310.2 1265.76 1423.7 1298.47 1365.54 1496.16"/><polygon class="cls-1" points="1479.61 1527.78 1365.54 1496.16 1423.7 1298.47 1541.16 1332.39 1479.61 1527.78"/><polygon class="cls-1" points="1596.5 1561.66 1479.61 1527.78 1541.16 1332.39 1656.36 1365.71 1596.5 1561.66"/><polygon class="cls-1" points="1713.39 1594.42 1596.5 1561.66 1656.36 1365.71 1771.56 1397.34 1713.39 1594.42"/><polygon class="cls-1" points="1829.72 1629.43 1713.39 1594.42 1771.56 1397.34 1885.07 1431.22 1829.72 1629.43"/><polygon class="cls-1" points="1944.92 1662.75 1829.72 1629.43 1885.07 1431.22 2001.96 1464.54 1944.92 1662.75"/><polygon class="cls-1" points="2060.69 1696.63 1944.92 1662.75 2001.96 1464.54 2117.16 1496.72 2060.69 1696.63"/><polygon class="cls-1" points="2175.89 1728.82 2060.69 1696.63 2117.16 1496.72 2234.05 1530.61 2175.89 1728.82"/><polygon class="cls-1" points="2293.35 1762.7 2175.89 1728.82 2234.05 1530.61 2350.38 1563.92 2293.35 1762.7"/><polygon class="cls-1" points="2410.24 1796.58 2293.35 1762.7 2350.38 1563.92 2465.58 1596.68 2410.24 1796.58"/><polygon class="cls-1" points="2525.44 1829.9 2410.24 1796.58 2465.58 1596.68 2580.78 1629.43 2525.44 1829.9"/><polygon class="cls-1" points="66.15 1393.38 170.06 1422.75 112.46 1612.49 0.65 1578.61 66.15 1393.38"/><polygon class="cls-1" points="226.53 1645.24 112.46 1612.49 170.06 1422.75 285.26 1454.93 226.53 1645.24"/><polygon class="cls-1" points="342.86 1678.56 226.53 1645.24 285.26 1454.93 399.89 1487.69 342.86 1678.56"/><polygon class="cls-1" points="457.49 1711.88 342.86 1678.56 399.89 1487.69 516.22 1521.57 457.49 1711.88"/><polygon class="cls-1" points="572.13 1744.63 457.49 1711.88 516.22 1521.57 631.42 1553.76 572.13 1744.63"/><polygon class="cls-1" points="688.46 1779.08 572.13 1744.63 631.42 1553.76 746.06 1587.64 688.46 1779.08"/><polygon class="cls-1" points="803.66 1812.39 688.46 1779.08 746.06 1587.64 861.26 1621.52 803.66 1812.39"/><polygon class="cls-1" points="919.99 1845.71 803.66 1812.39 861.26 1621.52 977.02 1653.71 919.99 1845.71"/><polygon class="cls-1" points="1035.75 1878.46 919.99 1845.71 977.02 1653.71 1093.35 1688.16 1035.75 1878.46"/><polygon class="cls-1" points="1150.95 1911.78 1035.75 1878.46 1093.35 1688.16 1210.24 1719.78 1150.95 1911.78"/><polygon class="cls-1" points="1268.41 1946.79 1150.95 1911.78 1210.24 1719.78 1325.44 1753.66 1268.41 1946.79"/><polygon class="cls-1" points="1384.74 1979.55 1268.41 1946.79 1325.44 1753.66 1440.64 1786.98 1384.74 1979.55"/><polygon class="cls-1" points="1501.63 2012.3 1384.74 1979.55 1440.64 1786.98 1555.84 1820.86 1501.63 2012.3"/><polygon class="cls-1" points="1618.53 2045.05 1501.63 2012.3 1555.84 1820.86 1673.87 1853.62 1618.53 2045.05"/><polygon class="cls-1" points="1735.98 2076.11 1618.53 2045.05 1673.87 1853.62 1790.76 1885.81 1735.98 2076.11"/><polygon class="cls-1" points="1854.57 2109.43 1735.98 2076.11 1790.76 1885.81 1907.09 1919.69 1854.57 2109.43"/><polygon class="cls-1" points="1969.77 2143.88 1854.57 2109.43 1907.09 1919.69 2022.85 1951.31 1969.77 2143.88"/><polygon class="cls-1" points="2111.8 1986.32 2203.28 2062.56 2077.07 2221.8 1980.5 2143.88 2111.8 1986.32"/><polygon class="cls-1" points="2171.94 2296.34 2077.07 2221.8 2203.28 2062.56 2293.07 2143.88 2171.94 2296.34"/><polygon class="cls-1" points="2268.5 2375.97 2171.94 2296.34 2293.07 2143.88 2387.09 2221.8 2268.5 2375.97"/><polygon class="cls-1" points="2362.52 2453.9 2268.5 2375.97 2387.09 2221.8 2479.42 2296.34 2362.52 2453.9"/><polygon class="cls-1" points="2455.7 2530.13 2362.52 2453.9 2479.42 2296.34 2575.98 2375.97 2455.7 2530.13"/><polygon class="cls-1" points="2549.72 2607.22 2455.7 2530.13 2575.98 2375.97 2670.85 2448.82 2549.72 2607.22"/><polygon class="cls-1" points="2670.85 2104.06 2740.59 2000.44 2903.23 2123.55 2841.11 2221.8 2670.85 2104.06"/><polygon class="cls-1" points="2811.75 1903.31 2740.59 2000.44 2903.23 2123.55 2974.38 2013.43 2811.75 1903.31"/><polygon class="cls-1" points="2880.64 1808.44 2811.75 1903.31 2974.38 2013.43 3044.4 1924.77 2880.64 1808.44"/><polygon class="cls-1" points="2952.92 1713.29 2880.64 1808.44 3044.4 1924.77 3113.3 1829.9 2952.92 1713.29"/><polygon class="cls-1" points="3022.95 1612.77 2952.92 1713.29 3113.3 1829.9 3182.19 1728.82 3022.95 1612.77"/><polygon class="cls-1" points="3089.58 1515.92 3022.95 1612.77 3182.19 1728.82 3253.34 1629.99 3089.58 1515.92"/><polygon class="cls-1" points="3113.3 1482.04 3193.49 1395.08 3339.18 1535.12 3253.34 1622.37 3113.3 1482.04"/><polygon class="cls-1" points="3271.42 1306.98 3193.49 1395.08 3339.18 1535.12 3417.11 1442.51 3271.42 1306.98"/><polygon class="cls-1" points="3354.99 1221.15 3271.42 1306.98 3417.11 1442.51 3499.56 1354.42 3354.99 1221.15"/><polygon class="cls-1" points="3430.66 1136.44 3354.99 1221.15 3499.56 1354.42 3575.23 1266.32 3430.66 1136.44"/><polygon class="cls-1" points="3511.98 1046.84 3430.66 1136.44 3575.23 1266.32 3654.29 1178.23 3511.98 1046.84"/></g></g></svg>