<svg xmlns="http://www.w3.org/2000/svg" viewBox="0 0 610.96 212.1"><defs><style>.cls-1{fill:#ca985a;}</style></defs><g id="Capa_2" data-name="Capa 2"><g id="Capa_1-2" data-name="Capa 1"><path class="cls-1" d="M37,200.82c11.2,0,20.6-2,30-4.4a328.2,328.2,0,0,0,34.4-11C137,172.22,172,158,207,143.22c5.2-2.4,10.6-4.6,25-11.2.8-.4,1.6-.6,2.4-1a1,1,0,0,1,1.4.6,1,1,0,0,1-.6,1.2c-.4.2-1,.6-1.4.8-17.6,8.2-26.2,12-34.8,15.6-24.8,10.8-49.8,21.2-75,31-14.8,5.8-29.6,11.6-44.6,16.4a174.61,174.61,0,0,1-30.2,7.2,64.64,64.64,0,0,1-24.8-.8c-14.8-3.6-22.79-15-24.2-28.4a67.28,67.28,0,0,1,3-26c3.81-12.6,9.8-24.2,16.61-35.4a242.47,242.47,0,0,1,27-37c17-19.4,36.2-36.8,58-51,13.8-8.8,28.2-16.2,44-21.2a93.89,93.89,0,0,1,22.6-4,45.27,45.27,0,0,1,18.4,3.2c7.4,3,12.6,8.2,14.6,16.2a30.14,30.14,0,0,1-.4,15.2,66.58,66.58,0,0,1-8.2,18,91.49,91.49,0,0,1-14.8,19,42.2,42.2,0,0,1-4.6,3.8l-1.2.6c-1.4.6-2.4.4-2.8-.6-.4-.8.4-2.4,1.6-2.8,1.6-.2,2.4-1.2,3.4-2.4,9-10.2,16.4-21.2,20.8-34.2a29.89,29.89,0,0,0,1.6-13.4c-.8-6.6-4.2-11.2-10.2-14.2a36.09,36.09,0,0,0-10.4-2.6c-9.6-1-19,1-28.2,3.8-13.8,4.2-26.4,10.8-38.6,18.4A265.39,265.39,0,0,0,72,59.22a281.74,281.74,0,0,0-45.2,53.4,183,183,0,0,0-17.2,32.8c-3.19,8.8-5.19,17.8-4.79,27.4.39,6.4,2,12.2,6,17.4a24.14,24.14,0,0,0,14,9A41.69,41.69,0,0,0,37,200.82Z"/><path class="cls-1" d="M298.84,134.42a31.83,31.83,0,0,1-4.4,2.6,69,69,0,0,1-14,6.6,17.84,17.84,0,0,1-6.4,1c-5,0-7.8-3.4-7-8.2a29.24,29.24,0,0,1,1-4,23.46,23.46,0,0,0,1-2.2,3,3,0,0,0-2.2,1.2c-6.6,4.4-13.2,8.8-19.6,13.2a95.19,95.19,0,0,1-9.8,5.6,18,18,0,0,1-5.6,1.6c-4.2.4-7.2-2.6-7.2-6.8a13.52,13.52,0,0,1,1.4-4.6,40.4,40.4,0,0,1,7.2-10.4c4.8-5.2,10.2-10,16.8-13a24.26,24.26,0,0,1,6.4-2.2,12.94,12.94,0,0,1,6.2.6,8.56,8.56,0,0,1,5.6,5.8c.2.8.4,1.8.6,2.6.4,2.6,1,3,3.2,1.2a5.39,5.39,0,0,0,1.4-1.6,22.74,22.74,0,0,1,3.2-3,9.75,9.75,0,0,1,2.2-.8,2.87,2.87,0,0,1,2.6,1.4,2.07,2.07,0,0,1-.4,2.4,33.21,33.21,0,0,0-2.8,2.6,23.28,23.28,0,0,0-7,12.6c-.6,2,.4,3,2.6,3.2a22.49,22.49,0,0,0,9-1.6c6.8-2.4,12.8-6,18.8-10a7,7,0,0,0,2.2-2.6l18.6-28.2c10-14.8,20.2-29.4,31.6-43.4q6.6-7.8,13.8-15.6a50,50,0,0,1,7.8-6.8,9.52,9.52,0,0,1,5-1.8,3.57,3.57,0,0,1,3.8,3.8,15.94,15.94,0,0,1-.6,3,53.1,53.1,0,0,1-8,14.8c-7.4,10.4-15.4,20.6-23.6,30.4A359,359,0,0,1,327,111c-4.8,4.4-9.4,9-14.6,13.2a14.7,14.7,0,0,0-3.2,3.8c-9.4,14-18.8,27.8-28,41.8-7.2,10.6-14,21.4-20.6,32.2-1.6,2.8-3.2,5.6-4.6,8.6-.2.4-.4.6-.4.8a1.34,1.34,0,0,1-1.6.6,1.5,1.5,0,0,1-1-1.4c.2-.8.4-1.4.6-2,1.4-3.2,3.2-6.2,4.8-9.4,8.6-14.8,17.6-29.2,27-43.6,4.2-6.4,8.6-13,12.8-19.6.2-.4.6-.8.8-1.2C299,134.62,298.84,134.62,298.84,134.42Zm-68.6,11.4c0,1.4.4,1.8,1.8,1.4a20.42,20.42,0,0,0,5.8-2.2,155.69,155.69,0,0,0,17.8-10c3.6-2.4,7.4-4.8,11.2-7.2.6-.2,1.2-.4,1-1.2-.8-1.8-1-3.8-2.2-5.4-1.4-1.8-3-2.6-5.2-2a18.73,18.73,0,0,0-3.2.8,42.9,42.9,0,0,0-10.8,6.8c-2.4,2.2-4.8,4.2-7,6.4a53.58,53.58,0,0,0-8,9.8A16.86,16.86,0,0,0,230.24,145.82Zm85.2-27a4.84,4.84,0,0,0,2.6-1.6,275.05,275.05,0,0,0,23-22.8,381.71,381.71,0,0,0,32-39.8,54.57,54.57,0,0,0,7.8-14.2A15.89,15.89,0,0,0,382,36c0-1.4-.6-1.8-2-1.2a10.17,10.17,0,0,0-2.6,1.8c-2.2,2-4.4,4.2-6.4,6.4-6.2,7.2-12.2,14.8-18,22.6-12,16.2-23.4,32.6-34.8,49.2C317.24,116.22,316.44,117.42,315.44,118.82Z"/><path class="cls-1" d="M344.84,113.62a4.19,4.19,0,0,1-.8,2.2c-1,1.4-1.8,2.8-2.8,4-7.8,10.6-15.8,21.2-22.6,32.4-1,1.6-1.8,2.2-2.6,1.6-1-1-.2-2,.2-2.8,2.6-5,5.4-9.6,8.4-14.2,4.6-7,9.2-14,14-21a16.89,16.89,0,0,1,3-3.6,1.83,1.83,0,0,1,2.2-.4A2.1,2.1,0,0,1,344.84,113.62Zm8.6-12.4c.8.2,1.6.2,2.4.4a1.1,1.1,0,0,1,.8,1.2.92.92,0,0,1-.8,1,59.84,59.84,0,0,0-6.4,1.6A1.82,1.82,0,0,1,347,104a2,2,0,0,1,1.4-2C350,101.42,351.84,101.62,353.44,101.22Z"/><path class="cls-1" d="M398.44,122.42c.6-.2.8-.8,1-1,3-5.4,6.4-10.4,9.8-15.4,4.8-7.4,9.8-14.6,14.8-22,2.2-3.4,4.6-6.6,6.6-10,3.6-5.4,7.6-10.8,11.4-16.2,3.6-5.6,7.8-10.8,11.8-16.2,1.8-2.6,3.4-5.4,5.4-7.8a22.92,22.92,0,0,1,4.4-4.4c1.2-.8,2.2-.8,2.8,0,.8.8.6,1.6,0,2.6a32.57,32.57,0,0,1-2.2,3.4c-2.6,3-4.8,6.2-7.2,9.4l-2.4,3c-6,7.8-11.6,15.6-17.2,23.6-4.2,6-8.4,12-12.6,18.2-5.2,7-9.8,14.4-14.8,21.6-3.6,5-6.8,10.2-10,15.2l-15,24c-4,6.8-8.4,13.4-12.6,20a8.55,8.55,0,0,1-1.8,2.6,1.35,1.35,0,0,1-2,.2c-.6-.4-.4-1.2-.2-1.8,1.2-1.6,2.4-3.2,3.4-4.8,3.2-5.4,6.4-11,9.8-16.4,4.2-6.8,8.4-13.8,12.4-20.6a4.56,4.56,0,0,0,1.2-2.4c-2.6,1.8-5,3.6-7.4,5.4-5.2,3.8-10.2,7.6-15.4,11.4a48,48,0,0,1-5.4,3.2,8.85,8.85,0,0,1-3,1c-3.8.6-6.6-1.8-6.4-5.6a26.19,26.19,0,0,1,1.2-5.4c2.4-6.4,6.6-11.4,11.8-15.6a36.93,36.93,0,0,1,11.2-6.4,17.79,17.79,0,0,1,7.2-.8,8,8,0,0,1,6.6,3.6C396.64,119.42,397.44,120.82,398.44,122.42ZM364,145a9.53,9.53,0,0,0,3.6-1.2c2.2-1.4,4.4-2.8,6.4-4.2l19.8-13.2c2.6-1.8,2.6-2,.6-4.4-.2-.2-.4-.6-.6-.8a5.41,5.41,0,0,0-6.4-2,29.72,29.72,0,0,0-11.6,6.2,53.14,53.14,0,0,0-11.6,14.2,11.68,11.68,0,0,0-1.6,4.4C362.44,144.82,362.84,145.22,364,145Z"/><path class="cls-1" d="M453,128.82c-2.8,2.4-5.4,4.8-8,7.2a105.72,105.72,0,0,1-11.8,9.4,14.9,14.9,0,0,1-4.8,2.2c-5.2,1.4-9.6-2.4-8.8-7.8a18.35,18.35,0,0,1,2.6-7.2,39.47,39.47,0,0,1,14.8-15,21,21,0,0,1,11.4-2.8,8.2,8.2,0,0,1,8.4,6.2c.4,1.2.4,2.4,2.2,2.2,1,0,1.4,1,1.2,2-.2.6-.6,1.2-.8,1.8a47.4,47.4,0,0,0-3.8,7,13.62,13.62,0,0,0-1.4,5.6,3.73,3.73,0,0,0,3,4,16.27,16.27,0,0,0,6.2.4,60.43,60.43,0,0,0,10.4-2.4c10.8-3,21.4-6.8,32-10.6a3.1,3.1,0,0,1,2.4-.4c-.4,1-1.4,1.2-2.2,1.4-3.6,1.4-7.4,2.8-11.2,4.2-8.4,3-16.8,6.2-25.6,8.4-3.8,1-7.6,1.8-11.4,1.2-4.6-.8-6.8-3.2-6.8-7.8a17.05,17.05,0,0,1,1.6-7,8.36,8.36,0,0,1,.8-2A.7.7,0,0,1,453,128.82ZM426.84,145a5.09,5.09,0,0,0,3.4-.8,37,37,0,0,0,6.6-4.2c5.6-4.4,11-9,16.6-13.2.6-.4,1-.8,1.6-1.2a1.82,1.82,0,0,0,.6-1.4,5.87,5.87,0,0,0-5.8-5.4,19.51,19.51,0,0,0-9.8,3.6c-5.4,3.4-9.4,8.2-13,13.4a40,40,0,0,0-2,4.2,6.39,6.39,0,0,0-.6,2.8C424.44,144.42,425.24,145,426.84,145Z"/><path class="cls-1" d="M542.44,122.42c.6-.2.8-.8,1-1,3-5.4,6.4-10.4,9.8-15.4,4.8-7.4,9.8-14.6,14.8-22,2.2-3.4,4.6-6.6,6.6-10,3.6-5.4,7.6-10.8,11.4-16.2,3.6-5.6,7.8-10.8,11.8-16.2,1.8-2.6,3.4-5.4,5.4-7.8a22.92,22.92,0,0,1,4.4-4.4c1.2-.8,2.2-.8,2.8,0,.8.8.6,1.6,0,2.6a32.57,32.57,0,0,1-2.2,3.4c-2.6,3-4.8,6.2-7.2,9.4l-2.4,3c-6,7.8-11.6,15.6-17.2,23.6-4.2,6-8.4,12-12.6,18.2-5.2,7-9.8,14.4-14.8,21.6-3.6,5-6.8,10.2-10,15.2l-15,24c-4,6.8-8.4,13.4-12.6,20a8.55,8.55,0,0,1-1.8,2.6,1.35,1.35,0,0,1-2,.2c-.6-.4-.4-1.2-.2-1.8,1.2-1.6,2.4-3.2,3.4-4.8,3.2-5.4,6.4-11,9.8-16.4,4.2-6.8,8.4-13.8,12.4-20.6a4.56,4.56,0,0,0,1.2-2.4c-2.6,1.8-5,3.6-7.4,5.4-5.2,3.8-10.2,7.6-15.4,11.4a48,48,0,0,1-5.4,3.2,8.85,8.85,0,0,1-3,1c-3.8.6-6.6-1.8-6.4-5.6a26.19,26.19,0,0,1,1.2-5.4c2.4-6.4,6.6-11.4,11.8-15.6a36.93,36.93,0,0,1,11.2-6.4,17.79,17.79,0,0,1,7.2-.8,8,8,0,0,1,6.6,3.6C540.64,119.42,541.44,120.82,542.44,122.42ZM508,145a9.53,9.53,0,0,0,3.6-1.2c2.2-1.4,4.4-2.8,6.4-4.2l19.8-13.2c2.6-1.8,2.6-2,.6-4.4-.2-.2-.4-.6-.6-.8a5.41,5.41,0,0,0-6.4-2,29.72,29.72,0,0,0-11.6,6.2,53.14,53.14,0,0,0-11.6,14.2,11.68,11.68,0,0,0-1.6,4.4C506.44,144.82,506.84,145.22,508,145Z"/></g></g></svg>