<svg xmlns="http://www.w3.org/2000/svg" viewBox="0 0 919.03 224.73"><defs><style>.cls-1{fill:#ca985a;}</style></defs><g id="Capa_2" data-name="Capa 2"><g id="Capa_1-2" data-name="Capa 1"><path class="cls-1" d="M116.05,170.46c2.2-2,4.2-4,6.2-6.2,3-3.2,6-6.2,9-9.2,3.4-3.2,6.8-6.4,10-9.6,4.4-4.2,8.8-8,13.2-12.2,3.2-3,6.8-5.8,10-8.8a112.43,112.43,0,0,1,10.6-8.8c5-4.2,9.8-8.4,15-12.6a149.3,149.3,0,0,1,12.6-9.6c4.6-3.6,9.2-7.4,14-11,3.6-2.8,7.4-5.2,11.2-8,4-2.8,8.2-5.4,12.4-7.8a11.23,11.23,0,0,1,6.2-1.8c3.2.2,4.79,2.6,3.79,5.6a49.73,49.73,0,0,1-4,7.2c-2.59,4-5.59,7.6-8.19,11.4-2,2.8-4,5.2-6.2,7.8-3.6,4.8-7,9.6-10.4,14.6-3.4,4.8-6.6,10-9.8,15-2.2,3.8-4.4,7.8-6.8,11.4a44.22,44.22,0,0,0-3.6,6.8c-1,2-2,4-3,5.8a22.22,22.22,0,0,0-1.4,3.2,1.35,1.35,0,0,0,1.2-.8c1.8-2.6,3.8-4.8,5.6-7.2a92.83,92.83,0,0,1,7.2-8q6.9-6.9,14.4-13.2c3.4-3,7.2-5.8,11-8.6,4.8-3.6,9.6-7,14.6-10.2A122.53,122.53,0,0,1,268,95.86a78,78,0,0,1,9.4-4,26.5,26.5,0,0,1,8.8-1c4,.2,6.6,2.8,6.6,6.8a17.51,17.51,0,0,1-1.4,6.4c-2.2,6.6-6.4,12.2-10,18-3.8,6.2-8.2,12.2-12.4,18.2-3.4,5.2-6.59,10.4-10,15.6s-6.39,10.6-9.39,16a47,47,0,0,0-4.4,9.8c-1.4,3.8-2.8,7.4-3,11.6a8.33,8.33,0,0,0,5,7.2,38,38,0,0,0,9.21,2,84.25,84.25,0,0,0,17.39-.2c6.2-.8,12.4-1.2,18.4-1.8,6.2-.8,12.2-1.4,18.2-2,4.8-.6,9.6-1,14.4-1.6,4.6-.4,9.2-.8,13.8-1.4,4-.6,7.8-.8,11.8-1.2l16.6-1.2c3-.2,6-.2,9-.4,4.6-.4,9.2-.4,13.8-.6,10.8-.8,21.6-1,32.4-1.2,12-.2,24-.2,35.8,0a187.27,187.27,0,0,1,26,2,22.84,22.84,0,0,1,5.2,1.8l1.2.6c.4.4,1,1.2.6,1.8-.6.6-1.2-.2-1.6-.6-1.4-1.2-3.2-1.6-5.2-2a77.19,77.19,0,0,0-9.8-1.2c-10.6-.6-21-1-31.6-.8-8.6,0-17.4.2-26,.4-7.8.2-15.8.4-23.8.8-9.4.6-19,1-28.4,1.8-6.2.6-12.4,1.2-18.8,2-5,.4-10,1-15,1.4-5.8.6-11.6,1.4-17.4,2-2.6.2-5,.6-7.6.8-4.2.6-8.2,1.6-12.4,1.8-6.2.6-12.6,1.2-18.8,1.6-4.79.2-9.6.4-14.4.4a57.43,57.43,0,0,1-11.59-1.4,12.77,12.77,0,0,1-9.4-7.4,14.07,14.07,0,0,1-.4-7.6,45.93,45.93,0,0,1,2.4-9,127.18,127.18,0,0,1,6.8-15c2-3.6,4.19-7.4,6.4-11,1.19-2,2.4-3.8,3.4-5.8,3-4.8,6-9.6,9-14.2,1.39-2.2,3-4.4,4.39-6.6,2.8-4.4,5.6-9,8.4-13.4a56.1,56.1,0,0,0,6-12,12.07,12.07,0,0,0,1.2-3.8c.2-1.8-.4-2.6-2.2-2.2a36.91,36.91,0,0,0-4.6.8,61.24,61.24,0,0,0-9.8,4.4c-2.8,1.6-5.79,3-8.6,4.8-6.59,4.2-13.19,8.4-19.39,13a111.66,111.66,0,0,0-9.6,7.4,70.06,70.06,0,0,1-6,4.8c-4.4,3.6-9,7.6-13.2,11.8a125.32,125.32,0,0,0-12,13.2,63.1,63.1,0,0,0-4.4,5.8,2.28,2.28,0,0,1-2.4,1.2c-1-.2-1.2-1-1.6-1.8a7.52,7.52,0,0,1-.2-4.2,66.55,66.55,0,0,1,4.2-10.4c2-4,4-8.2,6.4-12.2q5.7-10.5,12-21c3.6-5.8,7.2-11.6,11-17.4,2.6-3.8,5.4-7.4,8-11.2,2.6-4,5.6-8,8.2-12,.2-.2.4-.6.6-.8v-.6a1.2,1.2,0,0,0-.8-.2,18.58,18.58,0,0,0-2,1q-7.8,4.8-15,10.2c-5,3.6-9.8,7.4-14.8,11-3.6,2.8-7.2,5.4-10.8,8.2-4.2,3.2-8,6.8-12.2,10-4.2,3-8,6.4-12,9.8-4.6,3.8-9.2,7.8-13.8,11.8-3.4,2.8-6.6,5.6-9.8,8.6-4.4,3.8-8.4,7.8-12.6,11.6-3.2,3-6.2,6-9.2,9-6.4,6.2-12.6,12.6-18.8,19-3.2,3.4-6.2,7-9.2,10.6a25.08,25.08,0,0,0-3.2,4.8,75.38,75.38,0,0,0-5.2,9.6,36.06,36.06,0,0,0-1,3.8c-.2.8-.4,1.6-1.4,1.8a1.81,1.81,0,0,1-2.2-1.2,10,10,0,0,0-1.4-1.6c-1-.6-.6-1.8-.2-2.8a32.82,32.82,0,0,1,3.2-5.8c4.4-6,8.2-12.2,12-18.6a124.31,124.31,0,0,1,7-10.8,36.16,36.16,0,0,0,3.8-5.8c2.4-4,5-7.8,7.6-11.6,3.4-4.6,6.4-9.4,9.6-14,5.2-7.2,10-14.6,15.2-21.8,2-2.8,4-5.6,6-8.2,2.4-3.4,4.6-7,7-10.4,2.8-3.6,5.2-7.6,8.2-11,1.6-2,2.8-4.4,4.2-6.4,2.6-3.8,5.4-7.6,8-11.4,1.8-2.4,3.2-4.8,4.8-7.2,2.8-4,5.6-8,8.2-12,1.4-2.2,2.8-4.6,4-6.8a126.35,126.35,0,0,0,6.6-11.2c2.6-5.2,5.2-10.4,6-16.2.4-2.6.6-5.2-1-7.6a6.89,6.89,0,0,0-2.4-2.4,29.69,29.69,0,0,0-8.2-2.4,90.37,90.37,0,0,0-18,.6c-7.2,1.2-14.6,2-21.6,4.2-2,.6-3.8.8-5.6,1.4-8.2,2.2-16.4,4.4-24.4,6.8-6.4,2-12.6,4-18.8,6.2-6.2,2.4-12.2,4.6-18.2,7.4-3.6,1.6-7.4,3-11,4.6-6,2.8-12.2,5.6-18.2,8.6-6,3.2-12,6.8-18,10.4a115,115,0,0,0-16.6,11.2c-5.4,4.4-10.6,8.8-14.8,14-2.8,3.8-5.6,7.8-6.4,12.6-.6,4.4.2,8.4,3.6,11.8,3.6,3.6,7.8,5.6,12,7.6,6.6,3,13.4,4.6,20.2,6.6,8.2,2.2,16.4,3.6,24.6,5.6,7.2,2,14.6,3.2,21.8,5.6a23.26,23.26,0,0,1,7,3.6,5.59,5.59,0,0,1,1.8,2.6c.4,1,.2,1.6-.8,2-.6.2-1.4.2-1.4-.6-.2-2.2-2.2-2.8-3.8-3.6a94.13,94.13,0,0,0-12.8-3.8c-6.6-1.2-13.4-2.2-20-3.8-8.2-2.2-16.8-3.6-25-6a116.8,116.8,0,0,1-16-5.6c-4.4-2.2-8.8-4.4-12-8.2-2.6-3-4.8-6.2-5-10.4a18.16,18.16,0,0,1,1.4-8.6,41.41,41.41,0,0,1,7.4-12c3-3.4,6.4-6.4,9.6-9.6,3-2.6,6.2-5,9.4-7.4,4.4-2.8,8.8-5.6,13.4-8.4a154.94,154.94,0,0,1,15.8-9.2c6.8-3.4,13.8-6.6,20.8-9.8,5.6-2.6,11.2-5,16.8-7.4,3.8-1.6,7.8-2.8,11.6-4.2,7.2-2.8,14.6-4.8,22-7.2s14.8-4.4,22-6.4a211.61,211.61,0,0,1,29.4-5.6,82.15,82.15,0,0,1,17.2-.4c4.8.2,9.6,1.2,13.6,4.2a11.48,11.48,0,0,1,4.8,6.6c1.4,4.8.6,9.6-1,14.4-2.6,7.8-7,14.6-11.2,21.8s-9.4,13.8-14,20.8c-4,5.8-8.6,11.4-12.4,17.4-2.8,4-5.6,7.8-8.6,11.6-3.8,5.2-7.4,10.6-11.2,15.6-3.2,4.2-6.4,8.4-9.4,12.8-3.6,5.4-7.8,10.6-11.6,16.2q-6,9-12.6,18C120.65,163.26,118.85,167.26,116.05,170.46Z"/><path class="cls-1" d="M343.65,120.86c-.4-.4,0-.8.2-1.4.8-2.6-.4-4.2-3-4.6a9.79,9.79,0,0,0-5.4,1.2,34.58,34.58,0,0,0-12.4,10.4c-2,3-3.8,6.2-4,9.8,0,.4-.2.8-.2,1.2.2,3,1.2,4,4.2,4a12,12,0,0,0,5.4-1.4c3.8-1.8,7.4-4,9.4-8,.2-.4.6-.8.6-1.2.6-1.2.2-1.8-1.2-2h-3.2a4.71,4.71,0,0,1-1.6-.4c-1.2-.6-1.4-1.6-.2-2.4a6,6,0,0,1,7-.2,4.52,4.52,0,0,0,3,1c10-.2,19.8-.2,29.6-.6,2.8,0,5.4-.2,8.2-.2.6,0,1.6-.2,1.6.8.2.8-1,.8-1.6.8a14.17,14.17,0,0,1-2.8.2l-19.6.6c-4.8.2-9.6.6-14.6.4a2,2,0,0,0-2.2,1.6,13.46,13.46,0,0,1-3,5.8,29.73,29.73,0,0,1-9,6.8c-3.2,1.4-6.8,2.2-10.4,1a7.21,7.21,0,0,1-5.2-5.2c-1.4-5.2-.2-10,2.8-14.4a26.79,26.79,0,0,1,7.4-7.6c4-2.6,8-4.6,12.8-5.2a9.5,9.5,0,0,1,7.8,2.2,4.83,4.83,0,0,1,0,7C344.05,121.06,343.85,120.86,343.65,120.86Z"/><path class="cls-1" d="M416,117.86c.6-.2.8-.8,1-1,3-5.4,6.4-10.4,9.8-15.4,4.8-7.4,9.8-14.6,14.8-22,2.2-3.4,4.6-6.6,6.6-10,3.6-5.4,7.6-10.8,11.4-16.2,3.6-5.6,7.8-10.8,11.8-16.2,1.8-2.6,3.4-5.4,5.4-7.8a22.92,22.92,0,0,1,4.4-4.4c1.2-.8,2.2-.8,2.8,0,.8.8.6,1.6,0,2.6a32.57,32.57,0,0,1-2.2,3.4c-2.6,3-4.8,6.2-7.2,9.4l-2.4,3c-6,7.8-11.6,15.6-17.2,23.6-4.2,6-8.4,12-12.6,18.2-5.2,7-9.8,14.4-14.8,21.6-3.6,5-6.8,10.2-10,15.2l-15,24c-4,6.8-8.4,13.4-12.6,20a8.55,8.55,0,0,1-1.8,2.6,1.35,1.35,0,0,1-2,.2c-.6-.4-.4-1.2-.2-1.8,1.2-1.6,2.4-3.2,3.4-4.8,3.2-5.4,6.4-11,9.8-16.4,4.2-6.8,8.4-13.8,12.4-20.6a4.56,4.56,0,0,0,1.2-2.4c-2.6,1.8-5,3.6-7.4,5.4-5.2,3.8-10.2,7.6-15.4,11.4a48,48,0,0,1-5.4,3.2,8.85,8.85,0,0,1-3,1c-3.8.6-6.6-1.8-6.4-5.6a26.19,26.19,0,0,1,1.2-5.4c2.4-6.4,6.6-11.4,11.8-15.6a36.93,36.93,0,0,1,11.2-6.4,17.79,17.79,0,0,1,7.2-.8,8,8,0,0,1,6.6,3.6C414.24,114.86,415,116.26,416,117.86Zm-34.4,22.6a9.53,9.53,0,0,0,3.6-1.2c2.2-1.4,4.4-2.8,6.4-4.2l19.8-13.2c2.6-1.8,2.6-2,.6-4.4-.2-.2-.4-.6-.6-.8a5.41,5.41,0,0,0-6.4-2,29.72,29.72,0,0,0-11.6,6.2,53.14,53.14,0,0,0-11.6,14.2,11.68,11.68,0,0,0-1.6,4.4C380,140.26,380.44,140.66,381.64,140.46Z"/><path class="cls-1" d="M502.24,134.66c-5,2.4-9.6,5-14.4,7.2-9,4-18,7.2-27.8,8.6a31.36,31.36,0,0,1-12.2-.4,13.61,13.61,0,0,1-8.2-4.6,11.53,11.53,0,0,1-2.4-10.4,16.08,16.08,0,0,1,1.8-5.2,43,43,0,0,1,26.8-22.2c3-.8,6-1.4,9-.8,5.4,1.2,8,6,5.2,11a15.2,15.2,0,0,1-6.4,6.4c-7.4,4-15,6.8-23.6,6.6h-1.8c-2-.4-2.2-.8-3.6,2a18.76,18.76,0,0,0-2,5.6c-.4,3,.4,5,3.2,6.6a15.63,15.63,0,0,0,6.8,1.8c6,.4,12-.8,17.8-2.4,12.4-3.4,24-9,35-15.8a9.15,9.15,0,0,0,3-3.2c6-8.6,11.6-17.4,17.6-25.8,11-16,22.4-31.8,34.8-46.6a154.77,154.77,0,0,1,17.8-18.4,44.7,44.7,0,0,1,8.8-5.8,16.22,16.22,0,0,1,5.8-1.8c5-1,8.6,2.6,7.8,7.6-.8,4.4-2.8,8.2-4.8,12.2a130.34,130.34,0,0,1-16.4,22.6,342.75,342.75,0,0,1-54.4,49.2c-3.4,2.6-6.8,4.8-10.4,7.2a8.53,8.53,0,0,0-2.2,2.4c-16,22.8-31.6,46.2-46,70-3.6,5.8-7,11.8-10,17.8-1,2.2-2,4.4-2.8,6.6a9.75,9.75,0,0,1-.6,1.4c-.2.6-.8.8-1.6.6a1.52,1.52,0,0,1-1.2-1.6c0-.4.2-1,.2-1.4a45.11,45.11,0,0,1,3-7.8,343.64,343.64,0,0,1,17-30.2c9.6-16,19.8-31.6,30-47C501.44,135.86,501.84,135.26,502.24,134.66Zm-54.6-6a1.51,1.51,0,0,0,.8.2H450c7.6.2,14.6-2.4,21.4-6a20.08,20.08,0,0,0,4.4-3.8,6.73,6.73,0,0,0,1.6-3.4c.4-3.2-1-4.8-4.2-4.4a33.31,33.31,0,0,0-6.4,1.6,46.29,46.29,0,0,0-14.6,10A21.83,21.83,0,0,0,447.64,128.66Zm71.4-9.2a3.15,3.15,0,0,1,.8-.2c3.8-2.8,7.8-5.6,11.4-8.4A325.12,325.12,0,0,0,557,89.46a257.05,257.05,0,0,0,27-28.2c4.8-6.2,9.2-12.6,12.4-20a16.4,16.4,0,0,0,2-7.4c0-3.2-1-4.2-4.2-3.8a18.63,18.63,0,0,0-6.2,2.6,60.75,60.75,0,0,0-10.8,9.4,294.19,294.19,0,0,0-19,22.8c-13,17.2-25.4,34.8-37.8,52.4C520,117.86,519.64,118.66,519,119.46Z"/><path class="cls-1" d="M571.64,120.86c-.4-.4,0-.8.2-1.4.8-2.6-.4-4.2-3-4.6a9.79,9.79,0,0,0-5.4,1.2,34.58,34.58,0,0,0-12.4,10.4c-2,3-3.8,6.2-4,9.8,0,.4-.2.8-.2,1.2.2,3,1.2,4,4.2,4a12,12,0,0,0,5.4-1.4c3.8-1.8,7.4-4,9.4-8,.2-.4.6-.8.6-1.2.6-1.2.2-1.8-1.2-2H562a4.71,4.71,0,0,1-1.6-.4c-1.2-.6-1.4-1.6-.2-2.4a6,6,0,0,1,7-.2,4.52,4.52,0,0,0,3,1c10-.2,19.8-.2,29.6-.6,2.8,0,5.4-.2,8.2-.2.6,0,1.6-.2,1.6.8.2.8-1,.8-1.6.8a14.17,14.17,0,0,1-2.8.2l-19.6.6c-4.8.2-9.6.6-14.6.4a2,2,0,0,0-2.2,1.6,13.46,13.46,0,0,1-3,5.8,29.73,29.73,0,0,1-9,6.8c-3.2,1.4-6.8,2.2-10.4,1a7.21,7.21,0,0,1-5.2-5.2c-1.4-5.2-.2-10,2.8-14.4a26.79,26.79,0,0,1,7.4-7.6c4-2.6,8-4.6,12.8-5.2a9.5,9.5,0,0,1,7.8,2.2,4.83,4.83,0,0,1,0,7C572,121.06,571.84,120.86,571.64,120.86Z"/><path class="cls-1" d="M682.84,75.26c-1.6.8-2.6.8-3.6,0a2.64,2.64,0,0,1-.6-3,11.71,11.71,0,0,1,3-4,54.28,54.28,0,0,1,13.2-10.2c8.6-5.2,17.6-9,27.6-10.4a20.43,20.43,0,0,1,9.2.2c5.8,1.4,8.2,6,6.6,11.6a25.33,25.33,0,0,1-3,6.2A110.37,110.37,0,0,1,725,78.86c-4.6,5.2-9,10.4-13.4,16a27.47,27.47,0,0,0-2.6,4c-.6,1.2-.4,1.6,1,2,2.2.4,4.6.6,6.8.8,5,.6,10,1.4,14.6,4a18.87,18.87,0,0,1,10,13,22.19,22.19,0,0,1-.8,11.4,49.47,49.47,0,0,1-8.6,15.6c-5.6,7-12,13-20.2,17a34.66,34.66,0,0,1-13.4,3.2,73.94,73.94,0,0,1-34.6-7.4c-1.2-.6-2.6-1-3.8-1.6a1.33,1.33,0,0,1-1-1.4c.2-.8,1-.8,1.8-.6a9.88,9.88,0,0,1,3.2,1,85.29,85.29,0,0,0,15.2,5.2,77.34,77.34,0,0,0,18,1.6,33.41,33.41,0,0,0,15-5,61.78,61.78,0,0,0,22-23.4,25,25,0,0,0,3.6-12.6c-.2-5.6-2.8-9.6-7.6-12.4a24.29,24.29,0,0,0-10-3c-3-.2-6-.6-8.8-.8a12.06,12.06,0,0,1-4.6-1.2,5.3,5.3,0,0,1-2.6-6.8,14.48,14.48,0,0,1,2.4-4.6c4.2-6,8.8-11.6,13.6-17.2a87.58,87.58,0,0,0,10.4-14,20.48,20.48,0,0,0,2.2-5.4c.4-2,0-2.8-2-3.2a17.22,17.22,0,0,0-5.6-.6,86.52,86.52,0,0,0-39,16c-1.4,1-2.8,2.2-4,3.2C680.44,73.46,680.64,73.86,682.84,75.26Z"/><path class="cls-1" d="M791.24,54.06c-1.2-1-2.2-.8-3,.2-4.4,4.4-9,8.6-11.8,14.2-.2.4-.4,1-1,.8a.8.8,0,0,1-.4-1.2,12.23,12.23,0,0,1,1-2.4,47.9,47.9,0,0,1,6-8.2,126.66,126.66,0,0,1,18.8-17c1.6-1.2,3.2-1.4,4.2-.4,1,.8,1.2,2.4.2,4.2a26.78,26.78,0,0,0-1.2,2.4,8.24,8.24,0,0,0,2.4-.2,24.75,24.75,0,0,1,9.4,1,17.47,17.47,0,0,1,10.8,9.8,38.9,38.9,0,0,1,3.4,13.6c1,14.2-2,27.8-6.2,41.2a119.67,119.67,0,0,1-25.2,44c-5.8,6.4-12.2,11.8-20,15.6a35.05,35.05,0,0,1-11.6,3.4c-7.6.4-14.6-2.4-18.8-9.8a32.91,32.91,0,0,1-3.8-15.2c-.2-7.8,1.4-15.4,3.6-22.6,4.6-15,11.8-28.8,20.2-42a303.48,303.48,0,0,1,21.4-29.2A8.88,8.88,0,0,0,791.24,54.06Zm35,21a37.69,37.69,0,0,0-.4-6.8,28.78,28.78,0,0,0-2.8-10.8,13.64,13.64,0,0,0-9-7.2,26.38,26.38,0,0,0-11.2-.2,4,4,0,0,0-2.4,1.6c-1.8,2.2-3.4,4.4-5.2,6.6-9.2,12-18.4,24.2-25.8,37.4a171.1,171.1,0,0,0-14.6,32c-2.6,8-4.2,16-3.8,24.4.4,4.2,1.2,8.4,3.6,12,3,4.4,7,6,12.4,5.4a37,37,0,0,0,13-5.2,80.41,80.41,0,0,0,18.2-16.6,108.26,108.26,0,0,0,16.6-26,117.25,117.25,0,0,0,7.2-19.8A102.57,102.57,0,0,0,826.24,75.06Z"/><path class="cls-1" d="M880,54.06c-1.2-1-2.2-.8-3,.2-4.4,4.4-9,8.6-11.8,14.2-.2.4-.4,1-1,.8a.8.8,0,0,1-.4-1.2,12.23,12.23,0,0,1,1-2.4,47.9,47.9,0,0,1,6-8.2,126.66,126.66,0,0,1,18.8-17c1.6-1.2,3.2-1.4,4.19-.4,1,.8,1.21,2.4.21,4.2a26.78,26.78,0,0,0-1.2,2.4,8.28,8.28,0,0,0,2.4-.2,24.78,24.78,0,0,1,9.4,1,17.48,17.48,0,0,1,10.79,9.8,38.9,38.9,0,0,1,3.4,13.6c1,14.2-2,27.8-6.2,41.2a119.65,119.65,0,0,1-25.19,44c-5.8,6.4-12.2,11.8-20,15.6a35.05,35.05,0,0,1-11.6,3.4c-7.6.4-14.6-2.4-18.8-9.8a32.91,32.91,0,0,1-3.8-15.2c-.2-7.8,1.4-15.4,3.6-22.6,4.6-15,11.8-28.8,20.2-42a303.48,303.48,0,0,1,21.4-29.2A8.88,8.88,0,0,0,880,54.06Zm35,21a37.69,37.69,0,0,0-.4-6.8,28.78,28.78,0,0,0-2.8-10.8,13.62,13.62,0,0,0-9-7.2,26.34,26.34,0,0,0-11.19-.2,4,4,0,0,0-2.4,1.6c-1.8,2.2-3.4,4.4-5.2,6.6-9.2,12-18.4,24.2-25.8,37.4a171.1,171.1,0,0,0-14.6,32c-2.6,8-4.2,16-3.8,24.4.4,4.2,1.2,8.4,3.6,12,3,4.4,7,6,12.4,5.4a37,37,0,0,0,13-5.2,80.41,80.41,0,0,0,18.2-16.6,108.88,108.88,0,0,0,16.6-26,117.21,117.21,0,0,0,7.19-19.8A102.57,102.57,0,0,0,915,75.06Z"/></g></g></svg>