<svg xmlns="http://www.w3.org/2000/svg" viewBox="0 0 1863.6 423.08"><defs><style>.cls-1{fill:#ca985a;}</style></defs><g id="Capa_2" data-name="Capa 2"><g id="Capa_1-2" data-name="Capa 1"><path class="cls-1" d="M47.44,394.25c-.36,1.14-.75,1.5-1.13,1.5-11.27,4.14-22.55,8.67-34.22,10.54a20.27,20.27,0,0,1-6.76.36c-4.89-.36-6.77-4.13-4.14-8.26,1.5-3,4.14-4.9,6.77-7.14a126.66,126.66,0,0,1,16.92-9.8,254,254,0,0,1,41-14.66,14.33,14.33,0,0,0,9.4-7.51c19.55-31.23,39.85-61.66,60.17-92.5,29.33-44,59-87.63,88.37-131.64,13.53-21.06,27.06-42.1,39.48-63.93,6.4-11.27,12.42-22.93,16.55-35.7a41,41,0,0,0,3-14.67c0-6.77-3.38-10.53-9.77-12s-13.16-.77-19.56.36c-16.54,2.64-32,8.64-47.37,15.41A511.71,511.71,0,0,0,99.34,85.88,283.59,283.59,0,0,0,64,117.48a107.11,107.11,0,0,0-15.05,21.06,31.34,31.34,0,0,0-2.63,8.27c-2.25,8.64.77,15,8.65,19.57a85.53,85.53,0,0,0,16.18,6C82,175,93,176.51,103.85,178.78a91.51,91.51,0,0,1,16.55,4.5c3.38,1.13,7.15,2.63,10.15,5.63,4.9,5.27,3.4,12-2.64,15.07-.75.37-1.11.73-1.5,0a1.18,1.18,0,0,1,0-1.5c.75-1.13,1.5-1.9,2.27-3,2.25-3,1.87-5.27-1.13-7.9a16.33,16.33,0,0,0-7.9-4.14,131.39,131.39,0,0,0-16.17-4.13c-13.17-2.24-26.32-3.77-39.12-7.5-4.88-1.53-10.15-3.4-14.65-6.4-8.65-6-12-14.3-9.42-24.83,1.14-5.27,3.39-9.77,6-14.67a145.38,145.38,0,0,1,15-19.17c17.3-18.8,37.6-34.23,59-48.13a457.58,457.58,0,0,1,61.68-35.37c18-9,36.47-16.9,56-22.54,9.78-3,19.57-5.26,29.72-4.53a25.79,25.79,0,0,1,13.91,3.77c9,5.63,11.27,14.3,10.15,24.06-1.5,10.91-5.26,20.67-9.78,30.47-9,18.8-19.55,36.47-30.83,54.14-22.19,34.6-45.5,68.07-68.82,101.93-31.59,46.61-63.55,92.87-94.39,139.88-1.5,1.89-2.63,4.13-4.13,6.39a1.87,1.87,0,0,0,2.63.37c30.45-6.76,60.92-11.63,91.75-16.17,18.05-2.26,36.11-4.5,54.16-6.39,14.66-1.51,29.7-3,44.75-4.14,15.41-1.13,30.83-1.87,46.25-2.63,9.78-.37,19.93-.74,29.7-.37,13.55.37,27.45,1.13,41,3.77,3.75,1.13,7.52,2.23,11.28,3.76.75,0,1.12.37,1.87.74,2.27,1.13,3,2.63,2.27,3.76-1.13,1.87-2.64,1.5-4.14.77-14.66-5.27-30.46-6-46.26-6-12.4-.37-24.82-.37-37.22.37-14.3.39-28.59,1.5-42.87,2.63-12.42,1.5-25.2,2.26-37.62,3.76q-18,1.71-36.1,4.54c-19.55,2.23-38.73,5.23-58.28,8.63-22.57,3.77-45.5,8.64-68.07,14.3a9,9,0,0,0-5.25,3.74c-3.77,6.4-7.9,12.43-10.92,19.2-1.5,2.63-3,3.36-4.88,2.63-1.89-1.13-2.27-2.63-1.14-5.64,1.14-3.76,3.39-7.16,4.9-10.53.75-1.5,2.62-3,1.5-4.53-1.13-1.13-3,.4-4.13.77-13.55,4.5-27.08,8.63-39.5,15-3.38,1.9-6.77,3.77-9.77,5.63a7.65,7.65,0,0,0-3,3c3.38,1.1,6,.36,8.65,0,9.4-1.54,18.43-4.14,27.45-6.77A8.06,8.06,0,0,1,47.44,394.25Z"/><path class="cls-1" d="M479,73.48c-3.75,3-7.51,6.4-11.26,9.4-1.14.76-2.27,3-3.4,1.89-1.5-1.53.38-3,1.51-4.16,5.64-6,12-11.27,18.42-16.53,1.5-.77,3-1.87,4.52-.77,1.88,1.13,1.5,3,1.13,4.9a37.57,37.57,0,0,1-2.63,5.63c-7.9,14.67-16.55,29-25.59,43.27-25.18,39.87-50.75,79.7-76.33,119.57Q338,310.58,291.7,384.48c-7.13,11.64-14.28,23.31-21.05,35.34a10.79,10.79,0,0,1-1.88,2.63,2.87,2.87,0,0,1-3,.37,2.32,2.32,0,0,1-.75-2.63c.75-1.1,1.13-2.64,1.88-3.74,13.54-24.07,28.2-48.13,42.87-71.83,10.53-16.94,21.07-33.84,31.59-50.4L435,145.31c14.28-22.57,28.2-44.77,42.48-67.33.75-1.11,1.5-2.64,2.27-3.74C479.36,73.84,479.36,73.48,479,73.48Z"/><path class="cls-1" d="M483.52,253.25c-5.25,4.5-10.15,9-15,13.53a202.26,202.26,0,0,1-22.19,17.67,28.47,28.47,0,0,1-9,4.13c-9.77,2.64-18-4.5-16.55-14.66a34.49,34.49,0,0,1,4.9-13.54c6.76-11.66,15.78-21.43,27.82-28.2a39.51,39.51,0,0,1,21.43-5.27c7.9,0,13.55,4.14,15.8,11.67.75,2.24.75,4.5,4.13,4.13,1.89,0,2.64,1.87,2.27,3.74-.38,1.13-1.13,2.27-1.52,3.4A88,88,0,0,0,488.42,263a25.32,25.32,0,0,0-2.63,10.54c0,4.13,1.88,6.37,5.63,7.5a30.94,30.94,0,0,0,11.67.77c6.76-.77,13.15-2.64,19.55-4.51,20.3-5.66,40.23-12.79,60.17-19.93,1.13-.4,2.63-1.53,4.51-.76-.75,1.86-2.63,2.26-4.15,2.63-6.76,2.63-13.9,5.27-21,7.9-15.8,5.63-31.58,11.66-48.13,15.8-7.15,1.87-14.29,3.37-21.44,2.23-8.65-1.5-12.78-6-12.78-14.66a32,32,0,0,1,3-13.14,16.19,16.19,0,0,1,1.5-3.77A1.35,1.35,0,0,1,483.52,253.25Zm-49.25,30.43a9.34,9.34,0,0,0,6.38-1.5,68.83,68.83,0,0,0,12.42-7.9c10.53-8.26,20.68-16.9,31.2-24.8,1.13-.76,1.88-1.5,3-2.27a3.43,3.43,0,0,0,1.13-2.63,11.06,11.06,0,0,0-10.92-10.16c-6.76.39-12.78,3-18.41,6.76-10.15,6.4-17.69,15.44-24.45,25.2a75.35,75.35,0,0,0-3.76,7.9,12.08,12.08,0,0,0-1.13,5.27C429.75,282.55,431.25,283.68,434.27,283.68Z"/><path class="cls-1" d="M724.65,258.12c-.75,1.89-2.25,1.89-3.76,2.26-5.64,1.5-11.27,1.87-17.29,2.63-2.63,0-5.26.37-8.28.37-15,1.14-29-3-42.49-9a21,21,0,0,1-4.89-3c-1.51-1.5-2.26-.74-3,.76-1.88,3.74-3.76,7.51-6,11.27a83.7,83.7,0,0,1-30.47,29,30.3,30.3,0,0,1-10.15,3.77c-7.9,1.86-14.67-1.54-17.67-9.41-1.88-5.26-1.51-10.93-.76-16.56,2.63-14.3,9.78-26.33,19.56-36.84a9.72,9.72,0,0,1,2.25-1.9c2.64-2.23,4.89-2.23,7.15-.73a5.79,5.79,0,0,1,1.89,7.13,16.53,16.53,0,0,1-2.27,5.27c-3.38,5.64-7.13,10.9-10.52,16.54a79.68,79.68,0,0,0-8.28,20.3,14.47,14.47,0,0,0-.37,5.66c.37,4.14,3,6,7.14,5.64a27.45,27.45,0,0,0,9.4-3c14.3-6.77,24.81-17.31,32.35-31.24a38,38,0,0,0,2.63-5.63,12,12,0,0,0,1.5-10.17c-1.13-2.6-.38-5.23.75-7.87.38-1.13,1.5-2.26,2.63-1.9a2.83,2.83,0,0,1,2.64,2.27,8.27,8.27,0,0,1,.37,6c-2.26,6,1.13,9,5.26,11.67a98.27,98.27,0,0,0,11.29,4.9,108.38,108.38,0,0,0,24.81,5.26c6,.37,12-.76,18.05-1.13A123.21,123.21,0,0,0,724.65,258.12Z"/><path class="cls-1" d="M740.15,288.22c-4.52,0-9-.4-13.17-2.27-7.9-4.13-11.28-12-10.15-20.3.75-8.67,4.88-15.8,10.15-22.57a59.35,59.35,0,0,1,26.32-19.57c5.65-2.23,11.28-3,16.55-1.13,12.42,3.4,12.42,13.93,6.4,21.44-3.38,4.53-8.28,6.79-13.55,8.66-9.77,3.37-19.92,6.4-30.83,5.64a3.85,3.85,0,0,0-3,1.89,21.29,21.29,0,0,0-4.13,14.27c.75,4.9,4.13,7.17,8.64,8.67,5.26,1.5,10.91,1.13,16.55.37,10.91-1.5,21.81-4.51,32.35-7.54,13.15-3.73,26.31-7.9,39.1-12.4,6.4-2.26,13.16-4.5,19.93-6.76a9,9,0,0,1,3-.77c.77,0,1.52-.37,1.52.77,0,.76-.38,1.13-.75,1.13-3.4,1.13-6.4,2.63-9.79,3.76l-35,12.41a137,137,0,0,1-13.17,4.13c-12.78,3.4-25.57,7.53-38.73,9.77A57.34,57.34,0,0,1,740.15,288.22Zm-7.53-33.47a14,14,0,0,1,2.26.36,100.42,100.42,0,0,0,31.2-7.9,25.87,25.87,0,0,0,6.4-4.89,9.34,9.34,0,0,0,2.25-7.51c-.36-2.63-1.5-4.13-4.13-4.13-3.75-.4-7.52.73-10.9,2.24a70.73,70.73,0,0,0-13.17,8.26C741.65,245,736.76,249.08,732.62,254.75Z"/><path class="cls-1" d="M958.75,288.22c-4.52,0-9-.4-13.17-2.27-7.9-4.13-11.29-12-10.15-20.3.75-8.67,4.88-15.8,10.15-22.57a59.35,59.35,0,0,1,26.32-19.57c5.65-2.23,11.28-3,16.55-1.13,12.41,3.4,12.41,13.93,6.4,21.44-3.39,4.53-8.29,6.79-13.55,8.66-9.77,3.37-19.92,6.4-30.84,5.64a3.84,3.84,0,0,0-3,1.89,21.29,21.29,0,0,0-4.13,14.27c.75,4.9,4.13,7.17,8.63,8.67,5.27,1.5,10.92,1.13,16.55.37,10.92-1.5,21.82-4.51,32.35-7.54,13.15-3.73,26.32-7.9,39.1-12.4,6.4-2.26,13.17-4.5,19.94-6.76a9,9,0,0,1,3-.77c.76,0,1.52-.37,1.52.77,0,.76-.39,1.13-.76,1.13-3.39,1.13-6.39,2.63-9.78,3.76l-35,12.41a137.68,137.68,0,0,1-13.16,4.13c-12.79,3.4-25.57,7.53-38.74,9.77A57.13,57.13,0,0,1,958.75,288.22Zm-7.54-33.47a13.93,13.93,0,0,1,2.27.36,100.42,100.42,0,0,0,31.2-7.9,25.87,25.87,0,0,0,6.4-4.89,9.41,9.41,0,0,0,2.25-7.51c-.37-2.63-1.5-4.13-4.13-4.13-3.75-.4-7.52.73-10.9,2.24a70.4,70.4,0,0,0-13.17,8.26C960.25,245,955.36,249.08,951.21,254.75Z"/><path class="cls-1" d="M1053.94,279.92a3.65,3.65,0,0,0,2.64-1.87c19.18-19.17,40.23-35.34,64.3-48.14,3-1.5,6.4-3,9.78-4.89a25.71,25.71,0,0,0,3-1.11c7.15-1.53,11.67,3,10.54,9.77-.75,3.77-2.64,7.5-4.51,10.9-3.76,6.4-7.9,12.4-12,18.07-3.4,4.5-6.78,9-9,14.27a15.85,15.85,0,0,0-1.5,6c0,2.23,1.12,3.37,3,3.37a20.33,20.33,0,0,0,6.77-.37,98.4,98.4,0,0,0,15.8-6.4c14.66-6.77,29.33-13.53,42.5-22.57.36-.36.75-.36,1.11-.73.75-.4,1.52-.77,1.89,0,.75.73,0,1.5-.75,2.23a12.1,12.1,0,0,0-2.64,1.9c-6.76,4.87-14.28,8.64-21.81,12.4a245.2,245.2,0,0,1-28.2,14.3c-4.52,1.5-8.65,3.37-13.54,3-6.77,0-10.53-4.13-10.15-10.53.37-5.63,2.63-10.9,4.88-15.8,3.39-6.37,7.52-12.4,11.29-18.8,1.88-3,3.76-5.64,5.26-8.64.76-1.5,1.89-3,1.89-4.9-2.27-.36-3.77.77-5.27,1.14a193,193,0,0,0-29,15,254.53,254.53,0,0,0-55.65,48.54,29.17,29.17,0,0,0-2.63,4.5c-.75,1.5-1.5,3-3.75,2.26-1.52-.76-1.88-2.26-1.13-4.53a58.78,58.78,0,0,1,2.63-7.5c4.52-8.67,9.77-17.3,15-25.6,6.77-10.5,13.55-21,20.69-31.2l3.38-4.5c1.88-1.9,4.15-2.27,6-.77a4.16,4.16,0,0,1,1.51,5.64,20.33,20.33,0,0,1-3.76,6c-3.77,5.26-7.9,10.16-11.65,15.4C1064.86,263.38,1059.59,271.28,1053.94,279.92Z"/><path class="cls-1" d="M1394,244.21a47.55,47.55,0,0,0-14.28,5.64A183.52,183.52,0,0,0,1335,283c-3,3-4.52,3.76-6,2.63-3-2.26-1.13-4.53-.36-6.77,3-7.53,7.13-14.29,10.9-21.43,3.75-6.4,7.9-13.17,10.9-20.33.75-1.1,1.88-2.63.75-4.13-1.12-1.14-2.64.39-4.14.76a100.43,100.43,0,0,0-20.68,11.67c-23.32,14.66-43.25,32.7-61.67,53-1.5,1.13-1.88,2.63-2.63,4.13a3,3,0,0,1-3.39,1.5c-1.5-.73-2.25-1.86-1.88-3.36a52.46,52.46,0,0,1,3-8.27c6-11.3,12.78-22.2,19.55-33.47,5.26-8.66,10.53-17.3,16.55-25.57,2.25-3,4.5-5.66,6.76-8.66a8.45,8.45,0,0,1,3.76-2.64,5,5,0,0,1,4.89,1.5,3.92,3.92,0,0,1,.75,4.54,33.2,33.2,0,0,1-3.76,6c-6.77,9.4-13.92,18.8-20.69,28.2a112.26,112.26,0,0,0-7.13,10.9c1.87-.73,3-2.24,4.5-3.74a328,328,0,0,1,51.15-40.23,50,50,0,0,1,15-7.17c3-.73,6-.73,8.65.77a9.44,9.44,0,0,1,5.26,11.27c-.75,4.13-2.63,7.13-4.88,10.53-3.77,5.27-7.9,10.9-11.67,16.54-.75,1.13-1.5,2.63-2.63,4.13a2.48,2.48,0,0,0,2.63-1.1,199.84,199.84,0,0,1,35-24.07c2.63-1.13,5.26-2.27,7.51-3a11.73,11.73,0,0,1,4.89-1.1c6.77-.4,10.53,4.5,9.4,10.9a43,43,0,0,1-5.27,12c-1.87,3.77-3.75,7.5-5.63,10.9-.39,1.13-.75,2.27-1.14,3.77-1.11,4.13.39,6.37,4.9,6.37a23.44,23.44,0,0,0,10.15-1.5c18.06-6,35.72-13.17,53.41-21a24.5,24.5,0,0,0,3-1.53c.38,0,1.13-.37,1.5.4.76.73,0,1.5-.37,1.87a29.42,29.42,0,0,1-6,3c-16.91,7.9-33.85,15.43-51.9,21.06a30.68,30.68,0,0,1-11.65,2.27c-6,0-10.53-4.13-11.28-10.53a19.72,19.72,0,0,1,1.5-9.4,66.1,66.1,0,0,1,5.65-14.3A10.46,10.46,0,0,0,1394,244.21Z"/><path class="cls-1" d="M1513.67,253.25c-5.25,4.5-10.15,9-15,13.53a202.15,202.15,0,0,1-22.18,17.67,28.52,28.52,0,0,1-9,4.13c-9.77,2.64-18.05-4.5-16.55-14.66a34.8,34.8,0,0,1,4.9-13.54c6.77-11.66,15.79-21.43,27.82-28.2a39.55,39.55,0,0,1,21.43-5.27c7.9,0,13.55,4.14,15.8,11.67.75,2.24.75,4.5,4.14,4.13,1.88,0,2.63,1.87,2.26,3.74-.38,1.13-1.13,2.27-1.51,3.4a88.07,88.07,0,0,0-7.14,13.16,25.48,25.48,0,0,0-2.63,10.54c0,4.13,1.88,6.37,5.63,7.5a30.94,30.94,0,0,0,11.67.77c6.77-.77,13.15-2.64,19.55-4.51,20.3-5.66,40.24-12.79,60.17-19.93,1.13-.4,2.63-1.53,4.52-.76-.75,1.86-2.64,2.26-4.15,2.63-6.77,2.63-13.9,5.27-21,7.9-15.8,5.63-31.59,11.66-48.14,15.8-7.15,1.87-14.28,3.37-21.43,2.23-8.65-1.5-12.79-6-12.79-14.66a32,32,0,0,1,3-13.14,16.64,16.64,0,0,1,1.5-3.77A1.39,1.39,0,0,1,1513.67,253.25Zm-49.25,30.43a9.38,9.38,0,0,0,6.39-1.5,68.74,68.74,0,0,0,12.41-7.9c10.54-8.26,20.69-16.9,31.2-24.8,1.14-.76,1.89-1.5,3-2.27a3.43,3.43,0,0,0,1.13-2.63,11.05,11.05,0,0,0-10.91-10.16c-6.77.39-12.79,3-18.42,6.76-10.15,6.4-17.68,15.44-24.45,25.2a75.24,75.24,0,0,0-3.75,7.9,12.09,12.09,0,0,0-1.14,5.27C1459.9,282.55,1461.41,283.68,1464.42,283.68Z"/><path class="cls-1" d="M1608.52,279.92a3.65,3.65,0,0,0,2.63-1.87c19.19-19.17,40.24-35.34,64.31-48.14,3-1.5,6.39-3,9.78-4.89a26.65,26.65,0,0,0,3-1.11c7.14-1.53,11.66,3,10.52,9.77a39.34,39.34,0,0,1-4.51,10.9,213.16,213.16,0,0,1-12,18.07c-3.38,4.5-6.76,9-9,14.27a15.85,15.85,0,0,0-1.5,6c0,2.23,1.12,3.37,3,3.37a20.26,20.26,0,0,0,6.76-.37,97.65,97.65,0,0,0,15.8-6.4c14.67-6.77,29.34-13.53,42.5-22.57.37-.36.75-.36,1.12-.73.75-.4,1.5-.77,1.88,0,.75.73,0,1.5-.75,2.23a12.05,12.05,0,0,0-2.63,1.9c-6.77,4.87-14.28,8.64-21.82,12.4a243.58,243.58,0,0,1-28.2,14.3c-4.51,1.5-8.65,3.37-13.53,3-6.77,0-10.54-4.13-10.15-10.53.36-5.63,2.63-10.9,4.88-15.8,3.38-6.37,7.52-12.4,11.28-18.8,1.89-3,3.77-5.64,5.27-8.64.75-1.5,1.88-3,1.88-4.9-2.26-.36-3.76.77-5.26,1.14a192.54,192.54,0,0,0-29,15,254.53,254.53,0,0,0-55.65,48.54,27.64,27.64,0,0,0-2.63,4.5c-.75,1.5-1.5,3-3.76,2.26-1.51-.76-1.88-2.26-1.13-4.53a57.34,57.34,0,0,1,2.64-7.5c4.51-8.67,9.78-17.3,15-25.6,6.78-10.5,13.55-21,20.68-31.2q1.71-2.25,3.39-4.5c1.88-1.9,4.15-2.27,6-.77a4.16,4.16,0,0,1,1.52,5.64,20.16,20.16,0,0,1-3.77,6c-3.76,5.26-7.9,10.16-11.65,15.4C1619.44,263.38,1614.17,271.28,1608.52,279.92Z"/><path class="cls-1" d="M1792.12,246.85c-.77-.77,0-1.5.37-2.64,1.5-4.9-.75-7.9-5.64-8.66a18.53,18.53,0,0,0-10.16,2.26c-9.4,4.51-16.92,11.27-23.31,19.57-3.76,5.63-7.15,11.64-7.53,18.4,0,.77-.37,1.53-.37,2.27.37,5.63,2.25,7.53,7.9,7.53a22.67,22.67,0,0,0,10.15-2.63c7.15-3.4,13.92-7.53,17.67-15.07.38-.73,1.13-1.5,1.13-2.23,1.14-2.27.39-3.4-2.25-3.77h-6a8.56,8.56,0,0,1-3-.76c-2.25-1.11-2.63-3-.37-4.5,3.39-3,9.77-3,13.16-.37a8.51,8.51,0,0,0,5.64,1.87c18.81-.37,37.22-.37,55.66-1.14,5.26,0,10.15-.36,15.41-.36,1.14,0,3-.37,3,1.5.39,1.5-1.86,1.5-3,1.5a25.68,25.68,0,0,1-5.26.39l-36.85,1.11c-9,.39-18,1.13-27.45.76-2.27,0-3.39.77-4.14,3-.75,4.14-3,7.54-5.65,10.9a55.52,55.52,0,0,1-16.92,12.8c-6,2.64-12.78,4.14-19.55,1.87-5.26-1.5-8.28-4.87-9.78-9.77-2.63-9.77-.37-18.8,5.27-27.07a50.53,50.53,0,0,1,13.91-14.3c7.52-4.89,15-8.63,24.07-9.76a17.78,17.78,0,0,1,14.67,4.13,9.12,9.12,0,0,1,0,13.17C1792.87,247.21,1792.49,246.85,1792.12,246.85Z"/></g></g></svg>