<svg xmlns="http://www.w3.org/2000/svg" viewBox="0 0 1537.81 234.38"><defs><style>.cls-1{fill:#ca985a;}</style></defs><g id="Capa_2" data-name="Capa 2"><g id="Capa_1-2" data-name="Capa 1"><path class="cls-1" d="M108.27,93.11c-14,1.2-28,2.6-41.8,7,.4,1,1.2.8,1.8,1.2s1.2,1,.8,1.8a1.16,1.16,0,0,1-1.8.4,17.73,17.73,0,0,1-3.4-1.6c-1.8-.8-2-2.6-.6-4a13.9,13.9,0,0,1,5-2.8,80.08,80.08,0,0,1,13.2-3.4,150,150,0,0,1,23.2-2.8c2,0,4-.2,6-.4a2.78,2.78,0,0,0,2-1,39.84,39.84,0,0,1,2.4-3.8c13.6-20.8,28.6-41,44.2-60.6,3-3.8,6.19-7.6,9.4-11.4.19-.4.79-.8.79-1.6-.79-.6-1.79-.2-2.79-.2a545.36,545.36,0,0,0-59.8,8.8,346.11,346.11,0,0,0-52.8,15.2c-11.4,4.6-22.6,10-32.6,17.4a56.34,56.34,0,0,0-11.2,10.6c-5.2,6.6-7.2,13.8-5.4,22a25.32,25.32,0,0,0,3.6,8.6,69.33,69.33,0,0,0,28.2,25,27.16,27.16,0,0,0,11.8,3,6.42,6.42,0,0,0,2.8-.2c.6-.4,1-.4,1.4.2a1.21,1.21,0,0,1,0,1.6,5,5,0,0,1-2.8,1.2,16.35,16.35,0,0,1-5.4-.2,47.35,47.35,0,0,1-16.2-6.4,75.08,75.08,0,0,1-21.6-20.4c-3.8-5.2-6.4-11-6.6-17.8a26.52,26.52,0,0,1,3.6-15c3.2-5.6,7.8-10.2,12.6-14.2,8.8-7.2,18.6-12.4,28.6-16.8,19.4-8.6,39.6-14,60-18.4,9.8-2.2,19.4-3.8,29.2-5.2,8-1,15.8-2.2,23.8-2.8,5.2-.4,10.4-1,15.59-1.2a4.47,4.47,0,0,0,2.21-1,23.82,23.82,0,0,1,2.19-2.4,7.33,7.33,0,0,1,2-1.4,2.43,2.43,0,0,1,2.6.6c.8.6.6,1.4.2,2.2a.66.66,0,0,0,0,1,32.5,32.5,0,0,0,7.6-.2h2l18-.6c16.4-.4,32.8-.6,49.2-.4,7.6.2,15.2.2,22.8.4s15.2.6,22.8,1c10,.4,20,1,30,2.2,8,.8,15.8,1.6,23.4,3.8a26.85,26.85,0,0,1,6,2.4,5.47,5.47,0,0,1,2.6,2.6c.2.8.4,1.4-.4,1.8-.6.4-1,0-1.4-.4-1.8-2.2-4.2-2.8-6.6-3.6-6.4-1.6-12.8-2.2-19.4-3-8.6-1-17.4-1.4-26.2-2-3.4-.4-7-.4-10.6-.6-10.8-.4-21.4-.6-32.2-.6-5.2,0-10.4-.4-15.6-.2-11,.2-22,.2-33,.4-8,.2-15.8.4-23.8.8l-17.79,1.2a4,4,0,0,0-3,1.6c-14.2,18.2-27.8,36.6-41,55.4-4.8,6.6-9.2,13.4-13.8,20.2a3.77,3.77,0,0,0-.8,1.8,4.92,4.92,0,0,0,2.4.2h23.4c9,.2,18.19.8,27.19,1.6a131.23,131.23,0,0,1,17.4,2.8,26.41,26.41,0,0,1,9.2,3.8,5.39,5.39,0,0,1,1.6,1.4,1.18,1.18,0,0,1-.2,1.4c-.4.4-.8.6-1.2.4l-1.2-.6c-3.6-2.2-7.8-3.2-12-4a148.62,148.62,0,0,0-16.2-1.8c-16.39-1.4-32.79-1-49.19-.8-4.6.2-4.6.2-7.2,4.2q-12.9,19.8-24,40.8a295.05,295.05,0,0,0-15.2,33.4c-3,7.8-5.6,15.6-6.8,23.8a52.24,52.24,0,0,0-.2,15.8c1.2,6.6,4.4,11.8,11.4,14a24,24,0,0,0,6.6,1c6.2.2,12.2-1,18.2-2.6,9.8-2.6,19.2-6.6,28.6-10.8,13.4-5.8,26.6-12.4,39.6-19.2a708,708,0,0,0,66.19-38.8c5.6-3.8,11.2-7.6,23.6-17.4.4-.2.6-.6,1-.8.6-.2,1.2-.6,1.6,0,.6.6,0,1-.4,1.4-.6.6-1.2,1-1.8,1.6-12,9.2-16.8,12.8-22,16.4-13.2,8.8-26.8,17.2-40.4,25.2-15.6,9-31.2,17.6-47.39,25.4-13.4,6.6-27,13-41,18a94.32,94.32,0,0,1-20.6,5.2,39,39,0,0,1-13.6-.8,19.1,19.1,0,0,1-13.8-12.6,42.53,42.53,0,0,1-2-17.4c1.2-13.4,5.4-25.8,10.4-38.2,5.4-13.8,12.2-27,19.2-39.8,4.8-8.6,9.8-17,15.2-25.2A2.19,2.19,0,0,0,108.27,93.11Z"/><path class="cls-1" d="M270.67,144.31a12.24,12.24,0,0,0,5.79,1.8,55.12,55.12,0,0,0,19-1.2c11.2-2.2,21.8-5.4,32.6-8.6.6-.2,1.2-.6,2,0a5.1,5.1,0,0,1-2.6,1.2c-7,2.2-14,4.2-21,6.2-5,1.4-9.8,3-15,3.6-6.4,1-13,1.6-19.6,0-.19-.2-.59-.2-1-.4-2-1.2-3.4-.4-5,1-2.41,2.2-4.8,4.2-7.2,6-.6.6-1.2,1.4-1.8.8-.8-.8.4-1.2,1-1.6,2.4-2.2,5-4.4,7.59-6.6,1.4-1.2,1.21-1.4.21-2.6a10.83,10.83,0,0,1-2.6-10.2c1-5.8,4.39-10.4,8.79-14a4.35,4.35,0,0,1,1.6-1,2.19,2.19,0,0,1,2.4.8,2,2,0,0,1,.4,2.4c-.19,1-1,1.6-1.4,2.4a73.45,73.45,0,0,0-5,6.4,22.22,22.22,0,0,0-2.79,6.8,7.63,7.63,0,0,0,.6,4.2c.79,1.4,1.6,1.6,2.79.4,4.21-3.6,8.4-7,12.61-10.6,3.79-3.2,7.39-6.4,11.19-9.6.6-.4,1.2-1.4,2-.6s-.4,1.4-.8,1.8c-2.6,3-5.8,5.2-8.8,7.8-5,4.2-10,8.4-15.2,12.6C271.27,143.51,271.07,143.71,270.67,144.31Z"/><path class="cls-1" d="M399.86,135.91c-.8,1-1.8,1-2.8,1.4-4.6,1.4-9.2,2.6-13.8,4.2-7.2,2.4-14.6,4.4-21.8,6.4a86.05,86.05,0,0,1-15.8,3.6c-3.6.2-7.4.6-10.8-.6-6.2-2-9.4-7-8.2-13.6a18.89,18.89,0,0,1,4-8c3.4-4.4,8-7.4,12.8-10a16.79,16.79,0,0,1,9.4-2.2,5.87,5.87,0,0,1,3.2.8c2,1,2.6,2.8,2,5-.8,3-2.8,4.8-5.2,6.4-.2.2-.2.2-.4.2h-.4c-.4-.6,0-.8.2-1.2a36.52,36.52,0,0,0,2.6-3.2,7.1,7.1,0,0,0,.8-1.8c.2-1.4-.6-2.2-1.8-1.8a17.6,17.6,0,0,0-3,1,44.85,44.85,0,0,0-11.2,8.2,45.69,45.69,0,0,0-5.8,6.6,10.44,10.44,0,0,0-1.6,6.8,4.54,4.54,0,0,0,2.2,3.2,16.45,16.45,0,0,0,11,2.2,149,149,0,0,0,19.2-4.4c11-3,22-6.4,33-9.4C398.26,135.71,398.86,135.11,399.86,135.91Z"/><path class="cls-1" d="M459.06,144.31c-5,2.4-9.6,5-14.4,7.2-9,4-18,7.2-27.8,8.6a31.36,31.36,0,0,1-12.2-.4,13.61,13.61,0,0,1-8.2-4.6,11.53,11.53,0,0,1-2.4-10.4,16.08,16.08,0,0,1,1.8-5.2,43,43,0,0,1,26.8-22.2c3-.8,6-1.4,9-.8,5.4,1.2,8,6,5.2,11a15.2,15.2,0,0,1-6.4,6.4c-7.4,4-15,6.8-23.6,6.6h-1.8c-2-.4-2.2-.8-3.6,2a18.76,18.76,0,0,0-2,5.6c-.4,3,.4,5,3.2,6.6a15.63,15.63,0,0,0,6.8,1.8c6,.4,12-.8,17.8-2.4,12.4-3.4,24-9,35-15.8a9.15,9.15,0,0,0,3-3.2c6-8.6,11.6-17.4,17.6-25.8,11-16,22.4-31.8,34.8-46.6a154.77,154.77,0,0,1,17.8-18.4,44.7,44.7,0,0,1,8.8-5.8,16.22,16.22,0,0,1,5.8-1.8c5-1,8.6,2.6,7.8,7.6-.8,4.4-2.8,8.2-4.8,12.2a130.34,130.34,0,0,1-16.4,22.6,342.75,342.75,0,0,1-54.4,49.2c-3.4,2.6-6.8,4.8-10.4,7.2a8.53,8.53,0,0,0-2.2,2.4c-16,22.8-31.6,46.2-46,70-3.6,5.8-7,11.8-10,17.8-1,2.2-2,4.4-2.8,6.6a9.75,9.75,0,0,1-.6,1.4c-.2.6-.8.8-1.6.6a1.52,1.52,0,0,1-1.2-1.6c0-.4.2-1,.2-1.4a45.11,45.11,0,0,1,3-7.8,343.64,343.64,0,0,1,17-30.2c9.6-16,19.8-31.6,30-47C458.26,145.51,458.66,144.91,459.06,144.31Zm-54.6-6a1.51,1.51,0,0,0,.8.2h1.6c7.6.2,14.6-2.4,21.4-6a20.08,20.08,0,0,0,4.4-3.8,6.73,6.73,0,0,0,1.6-3.4c.4-3.2-1-4.8-4.2-4.4a33.31,33.31,0,0,0-6.4,1.6,46.29,46.29,0,0,0-14.6,10A21.83,21.83,0,0,0,404.46,138.31Zm71.4-9.2a3.15,3.15,0,0,1,.8-.2c3.8-2.8,7.8-5.6,11.4-8.4a325.12,325.12,0,0,0,25.8-21.4,257.05,257.05,0,0,0,27-28.2c4.8-6.2,9.2-12.6,12.4-20a16.4,16.4,0,0,0,2-7.4c0-3.2-1-4.2-4.2-3.8a18.63,18.63,0,0,0-6.2,2.6,60.75,60.75,0,0,0-10.8,9.4,294.19,294.19,0,0,0-19,22.8c-13,17.2-25.4,34.8-37.8,52.4C476.86,127.51,476.46,128.31,475.86,129.11Z"/><path class="cls-1" d="M511.06,152.51a16.68,16.68,0,0,1-7-1.2,10.2,10.2,0,0,1-5.4-10.8c.4-4.6,2.6-8.4,5.4-12a31.53,31.53,0,0,1,14-10.4,12.29,12.29,0,0,1,8.8-.6c6.6,1.8,6.6,7.4,3.4,11.4-1.8,2.4-4.4,3.6-7.2,4.6-5.2,1.8-10.6,3.4-16.4,3a2,2,0,0,0-1.6,1,11.36,11.36,0,0,0-2.2,7.6c.4,2.6,2.2,3.8,4.6,4.6a21.67,21.67,0,0,0,8.8.2,126.23,126.23,0,0,0,17.2-4c7-2,14-4.2,20.8-6.6,3.4-1.2,7-2.4,10.6-3.6a4.71,4.71,0,0,1,1.6-.4c.4,0,.8-.2.8.4,0,.4-.2.6-.4.6-1.8.6-3.4,1.4-5.2,2l-18.6,6.6a71.6,71.6,0,0,1-7,2.2c-6.8,1.8-13.6,4-20.6,5.2A32.4,32.4,0,0,1,511.06,152.51Zm-4-17.8a7.07,7.07,0,0,1,1.2.2,53.37,53.37,0,0,0,16.6-4.2,14,14,0,0,0,3.4-2.6,5,5,0,0,0,1.2-4c-.2-1.4-.8-2.2-2.2-2.2a11.66,11.66,0,0,0-5.8,1.2,37.2,37.2,0,0,0-7,4.4A35.84,35.84,0,0,0,507.06,134.71Z"/><path class="cls-1" d="M679.26,73.91c-1.2-.6-1.8.2-2.4.8-2,2-3.8,4-5.6,6-5.2,5.6-10.2,11.2-15.6,16.8-10.6,11.2-21.2,22.4-32,33.4-6,6-12.2,12-18.6,17.4a41.25,41.25,0,0,1-7.4,4.6,9,9,0,0,1-3.8,1,5,5,0,0,1-5-3.4,7.87,7.87,0,0,1,0-4.8,29.28,29.28,0,0,1,3.6-9,82.92,82.92,0,0,1,7-11.4,9.88,9.88,0,0,0,1.6-3.6,5.87,5.87,0,0,0-3.2.8,73.19,73.19,0,0,0-20.8,14c-4.8,4.4-9.2,9.2-13.8,13.6a2.28,2.28,0,0,1-4-1,4.87,4.87,0,0,1,0-2.4c.4-.8.6-1.6,1-2.4a143.46,143.46,0,0,1,16.2-25.8,18,18,0,0,1,2-1.8,3.08,3.08,0,0,1,4,.4c1,1,1,2.2.2,3.6a79,79,0,0,1-5.2,7,126.74,126.74,0,0,0-11.4,15.8,2,2,0,0,0-.8,1.4c.8-.2,1.2-.8,1.8-1.4,4-4,8-8.2,12.2-11.8,5-4.2,10.2-8.4,16-11.4a22.13,22.13,0,0,1,5.4-2.4,4.86,4.86,0,0,1,6,5c.2,2-.8,3.8-1.8,5.6-2.6,4.2-5.2,8.6-7.8,12.8a38.25,38.25,0,0,0-3.2,6.4c-.4.8-.8,2,0,2.8.8.6,1.8,0,2.6-.2a31.14,31.14,0,0,0,5.6-3.2c5.4-3.8,10-8.2,14.8-12.6,11.4-11.2,22.4-22.6,33.4-34,5.2-5.4,10.2-10.6,15.2-16,2.8-3,5.6-5.8,8.4-8.8.4-.6,1-1,1-1.8a7.62,7.62,0,0,0-3-.2,90.41,90.41,0,0,1-10.4.4,22.47,22.47,0,0,1-6.4-.6,5.83,5.83,0,0,0-5.4.8,2.42,2.42,0,0,1-2,.6,1.1,1.1,0,0,1-1.2-.8.73.73,0,0,1,.4-1c2.6-1.4,5.2-3,8.2-1.8a22.37,22.37,0,0,0,7.2,1,106.21,106.21,0,0,0,13.8-.6,3.31,3.31,0,0,0,2.4-1c3-3.2,6.2-6.4,9.2-9.6.6-.8,1.2-1.8,1.8-2.6,5-7.8,10.2-15.4,15.4-23a89.55,89.55,0,0,1,6.4-8.8,12.94,12.94,0,0,1,1.6-1.8,1.21,1.21,0,0,1,1.6,0c.6.4,1,1,.6,1.6a7.39,7.39,0,0,1-1.4,2.8c-4.6,6.8-9,13.8-13.6,20.6l-12,18.6c-.6.8-1.6,1.6-1,2.4.4.8,1.6.4,2.4.4,20.6-.4,41.4-.6,62-.2,21.6.4,43.4,0,65,.2,7,0,14,.4,20.8.4a27.61,27.61,0,0,1,4,.6c.6,0,1,.4.8,1,0,.4-.4.6-1,.6a1.27,1.27,0,0,1-1.2,0,67.62,67.62,0,0,0-9-.2c-18.8,0-37.8-.2-56.6.2-20.6.2-41.2.4-62,0-8.2,0-16.4-.2-24.4-.4a5,5,0,0,0-4.8,2.6c-10,15.8-20.2,31.4-30.2,47.2-14.8,23.4-29.6,46.6-44,70.2-4.8,7.8-9.4,15.6-14.4,23.2-1.6,2.2-3.2,4.4-4.8,6.4a2.76,2.76,0,0,1-.6.8c-.8,1-1.6,1.2-2.4.8-.8-1-.2-1.6.2-2.4,6.4-8.4,11.6-17.4,16.8-26.4,16.4-27.4,33.4-54.4,50.2-81.4,8-12.8,16.2-25.8,24.4-38.6A3.81,3.81,0,0,0,679.26,73.91Z"/><path class="cls-1" d="M680.66,152.51a16.68,16.68,0,0,1-7-1.2,10.2,10.2,0,0,1-5.4-10.8c.4-4.6,2.6-8.4,5.4-12a31.53,31.53,0,0,1,14-10.4,12.29,12.29,0,0,1,8.8-.6c6.6,1.8,6.6,7.4,3.4,11.4-1.8,2.4-4.4,3.6-7.2,4.6-5.2,1.8-10.6,3.4-16.4,3a2,2,0,0,0-1.6,1,11.36,11.36,0,0,0-2.2,7.6c.4,2.6,2.2,3.8,4.6,4.6a21.67,21.67,0,0,0,8.8.2,126.23,126.23,0,0,0,17.2-4c7-2,14-4.2,20.8-6.6,3.4-1.2,7-2.4,10.6-3.6a4.71,4.71,0,0,1,1.6-.4c.4,0,.8-.2.8.4,0,.4-.2.6-.4.6-1.8.6-3.4,1.4-5.2,2l-18.6,6.6a71.6,71.6,0,0,1-7,2.2c-6.8,1.8-13.6,4-20.6,5.2A32.4,32.4,0,0,1,680.66,152.51Zm-4-17.8a7.07,7.07,0,0,1,1.2.2,53.37,53.37,0,0,0,16.6-4.2,14,14,0,0,0,3.4-2.6,5,5,0,0,0,1.2-4c-.2-1.4-.8-2.2-2.2-2.2a11.66,11.66,0,0,0-5.8,1.2,37.2,37.2,0,0,0-7,4.4A35.84,35.84,0,0,0,676.66,134.71Z"/><path class="cls-1" d="M1022.05,85.31a22.44,22.44,0,0,0-5.2,4.4c-8.8,8-17.4,16-26.2,24-4.6,4.6-9.6,8.8-14.4,13.2-11.2,10-22.39,20-34,29.6-13.79,11.6-27.79,23.2-43,33.2a136.64,136.64,0,0,1-24.2,13.6,52.74,52.74,0,0,1-14.6,4,26.21,26.21,0,0,1-5.6,0c-4.8-.8-8-4.8-8.6-9.8a27.37,27.37,0,0,1,.6-9,99.93,99.93,0,0,1,7.4-20,285.36,285.36,0,0,1,15.8-28.8c14.2-23.4,30.2-45.8,45.6-68.4,6-8.6,11.8-17,17-26,3.4-5.8,6.59-11.8,8.2-18.4.39-2.2,1-4.4.6-6.8a9.4,9.4,0,0,0-5.8-8.2,31.63,31.63,0,0,0-14.2-2.2c-13.4.6-26,4-38.6,8.2a240.15,240.15,0,0,0-43,20,158.09,158.09,0,0,0-30.6,23.2,73.55,73.55,0,0,0-13.8,17.6,29.6,29.6,0,0,0-4.2,12.2c-1,8.4,2.2,15.2,8.6,20.4a55.84,55.84,0,0,0,11.6,6.6c4.6,1.8,9.2,3.4,13.8,5a68.45,68.45,0,0,1,6.8,2.6,20.15,20.15,0,0,1,4.6,2.4c5.6,4.2,5.2,10.6-.2,14.8-.2.2-.6.4-.8.6-.6,0-1-.2-.8-.8.2-.4.6-.8.8-1.2a11.94,11.94,0,0,0,1.8-3,6.06,6.06,0,0,0-1.4-7.2,24.45,24.45,0,0,0-3.8-2.4c-4-1.8-8.4-3-12.6-4.6a134.16,134.16,0,0,1-14-5.4c-5-2.6-9.6-5.6-13-10.2-5.8-7.6-6.6-16-3.6-24.8a46.75,46.75,0,0,1,6.4-12.6c6.2-9,14-16.4,22.4-23,18.6-14.8,39.4-25.4,61.6-33.4a171.89,171.89,0,0,1,33.2-8.4,67.48,67.48,0,0,1,16.8-.2,24.47,24.47,0,0,1,8.19,2.6c6.4,3.2,9.21,9.6,8.4,16.4-1,7-4,13.4-7.19,19.6-5.4,10.2-11.8,19.6-18.2,29-10.4,15-20.6,29.8-30.8,44.8a481.29,481.29,0,0,0-26.4,42.2,169,169,0,0,0-11.2,24.4,40.94,40.94,0,0,0-2.2,9.8,16.17,16.17,0,0,0,.2,3.2c.4,4.6,3.4,6.4,7.6,6.4a42,42,0,0,0,10-1.8,104.63,104.63,0,0,0,18.6-8.6,246.15,246.15,0,0,0,29.6-19.8c12.6-9.6,24.59-19.6,36.59-29.8,3-2.8,6-5.2,9.2-8,9.4-8.4,19-16.6,28.4-25.2,11.2-10.4,22.4-20.6,33.4-31a138.79,138.79,0,0,0,12.2-14.6,219.09,219.09,0,0,1,21-26.2,33.37,33.37,0,0,1,5.6-5,8.11,8.11,0,0,1,1.8-1,2.18,2.18,0,0,1,2.6.6,2.43,2.43,0,0,1,.2,2.6,29.61,29.61,0,0,0-1.6,2.6,122.91,122.91,0,0,1-13.6,15.4c-5,5-8.8,10.6-12.8,16.4-17.2,25.2-33.8,51-50,77-7.4,11.4-14.4,23.2-21.2,35-3.6,6.6-7.4,13-10.2,19.8-.8,2-1.6,4-1.2,6.2.2.8.2,1.4-.6,1.6a1.82,1.82,0,0,1-2-.2,4.27,4.27,0,0,1-1.21-4.2,19.52,19.52,0,0,1,1.6-5.8,118.63,118.63,0,0,1,6.8-14.4c9.2-17.4,19.4-34.2,29.6-51,9.2-14.8,18.4-29.6,27.8-44.4Z"/><path class="cls-1" d="M1064.26,139.51c16.4-3.4,33-5.6,49.8-3.6a1.47,1.47,0,0,1,1.6.8c-1,.4-2,0-3,0a74.94,74.94,0,0,0-16.4,0,120.17,120.17,0,0,0-14.6,1.4,163,163,0,0,0-17.2,3.2,4.8,4.8,0,0,0-3,2.2,83,83,0,0,1-21.8,22.4,27,27,0,0,1-8.4,4c-5,1-8-2.4-6.6-7.2a17.39,17.39,0,0,1,5.6-8.4,57.81,57.81,0,0,1,16.2-9.6,85.23,85.23,0,0,1,9.4-3,4.29,4.29,0,0,0,3.2-2.6c.8-1.6,1.6-3,2.4-4.6a9.1,9.1,0,0,0,1-5.6c-.2-2.2-1-3-3.2-3a13.86,13.86,0,0,0-4,.6,50.81,50.81,0,0,0-14.8,7.2c-7,4.8-12.8,11.2-18.4,17.4-.4.2-.6.6-.8.8-.4.6-1,1-1.6.6-1-.4-.6-1.2-.4-2a5,5,0,0,0,.8-1.4c2.6-5,5.6-9.6,8.6-14.2,19.2-29.4,39.2-58.4,60.4-86.6,3.4-4.4,7-8.8,10.6-13.4l1.4-1.4a1.57,1.57,0,0,1,2.2,0,1.94,1.94,0,0,1,.2,1.8,12.75,12.75,0,0,1-1.6,2.8c-4.6,6.6-9.4,12.8-14.2,19.2-10,12.6-19.4,25.6-28.8,38.8-10.8,15.2-21.6,30.6-32,46.2a14.92,14.92,0,0,1-1.4,2.4c.8,0,.8-.6,1.2-.8a111.34,111.34,0,0,1,15.2-13.8,37.16,37.16,0,0,1,10.6-6,24.51,24.51,0,0,1,6.4-1.4,6.9,6.9,0,0,1,7.6,6.6,11.93,11.93,0,0,1-1.2,7.4A5.84,5.84,0,0,0,1064.26,139.51Zm-8.6,4.8c0-.2-.2-.2-.2-.4-1.6.6-3.4,1-5,1.6-6,2.2-11.8,4.8-17,8.8a21.05,21.05,0,0,0-6,7.2,7.41,7.41,0,0,0-.8,3c0,2.4,1.2,3.4,3.6,2.8,2.8-.6,5.2-2.4,7.4-4a73,73,0,0,0,13.8-13.4C1053.06,148.11,1054.26,146.11,1055.66,144.31Z"/><path class="cls-1" d="M1129.86,118.71a4.19,4.19,0,0,1-.8,2.2c-1,1.4-1.8,2.8-2.8,4-7.8,10.6-15.8,21.2-22.6,32.4-1,1.6-1.8,2.2-2.6,1.6-1-1-.2-2,.2-2.8,2.6-5,5.4-9.6,8.4-14.2,4.6-7,9.2-14,14-21a16.89,16.89,0,0,1,3-3.6,1.83,1.83,0,0,1,2.2-.4A2.1,2.1,0,0,1,1129.86,118.71Zm8.6-12.4c.8.2,1.6.2,2.4.4a1.1,1.1,0,0,1,.8,1.2.92.92,0,0,1-.8,1,59.84,59.84,0,0,0-6.4,1.6,1.82,1.82,0,0,1-2.4-1.4,2,2,0,0,1,1.4-2C1135.06,106.51,1136.86,106.71,1138.46,106.31Z"/><path class="cls-1" d="M1219.65,135.91c-.8,1-1.8,1-2.8,1.4-4.6,1.4-9.2,2.6-13.8,4.2-7.2,2.4-14.6,4.4-21.8,6.4a86.05,86.05,0,0,1-15.8,3.6c-3.6.2-7.4.6-10.8-.6-6.2-2-9.4-7-8.2-13.6a18.89,18.89,0,0,1,4-8c3.4-4.4,8-7.4,12.8-10a16.79,16.79,0,0,1,9.4-2.2,5.87,5.87,0,0,1,3.2.8c2,1,2.6,2.8,2,5-.8,3-2.8,4.8-5.2,6.4-.2.2-.2.2-.4.2h-.4c-.4-.6,0-.8.2-1.2a36.52,36.52,0,0,0,2.6-3.2,7.1,7.1,0,0,0,.8-1.8c.2-1.4-.6-2.2-1.8-1.8a17.6,17.6,0,0,0-3,1,44.85,44.85,0,0,0-11.2,8.2,45.69,45.69,0,0,0-5.8,6.6,10.44,10.44,0,0,0-1.6,6.8,4.54,4.54,0,0,0,2.2,3.2,16.45,16.45,0,0,0,11,2.2,149,149,0,0,0,19.2-4.4c11-3,22-6.4,33-9.4C1218.05,135.71,1218.65,135.11,1219.65,135.91Z"/><path class="cls-1" d="M1247.25,133.91c-2.8,2.4-5.4,4.8-8,7.2a105.72,105.72,0,0,1-11.8,9.4,14.9,14.9,0,0,1-4.8,2.2c-5.2,1.4-9.6-2.4-8.8-7.8a18.35,18.35,0,0,1,2.6-7.2,39.47,39.47,0,0,1,14.8-15,21,21,0,0,1,11.4-2.8,8.2,8.2,0,0,1,8.4,6.2c.4,1.2.4,2.4,2.2,2.2,1,0,1.4,1,1.2,2-.2.6-.6,1.2-.8,1.8a47.4,47.4,0,0,0-3.8,7,13.62,13.62,0,0,0-1.4,5.6,3.73,3.73,0,0,0,3,4,16.27,16.27,0,0,0,6.2.4,60.43,60.43,0,0,0,10.4-2.4c10.8-3,21.4-6.8,32-10.6a3.1,3.1,0,0,1,2.4-.4c-.4,1-1.4,1.2-2.2,1.4-3.6,1.4-7.4,2.8-11.2,4.2-8.4,3-16.8,6.2-25.6,8.4-3.8,1-7.6,1.8-11.4,1.2-4.6-.8-6.8-3.2-6.8-7.8a17.05,17.05,0,0,1,1.6-7,8.36,8.36,0,0,1,.8-2A.7.7,0,0,1,1247.25,133.91Zm-26.2,16.2a5.09,5.09,0,0,0,3.4-.8,37,37,0,0,0,6.6-4.2c5.6-4.4,11-9,16.6-13.2.6-.4,1-.8,1.6-1.2a1.82,1.82,0,0,0,.6-1.4,5.87,5.87,0,0,0-5.8-5.4,19.51,19.51,0,0,0-9.8,3.6c-5.4,3.4-9.4,8.2-13,13.4a40,40,0,0,0-2,4.2,6.39,6.39,0,0,0-.6,2.8C1218.65,149.51,1219.45,150.11,1221.05,150.11Z"/><path class="cls-1" d="M1372.85,135.91c-.8,1-1.8,1-2.8,1.4-4.6,1.4-9.2,2.6-13.8,4.2-7.2,2.4-14.6,4.4-21.8,6.4a86.05,86.05,0,0,1-15.8,3.6c-3.6.2-7.4.6-10.8-.6-6.2-2-9.4-7-8.2-13.6a18.89,18.89,0,0,1,4-8c3.4-4.4,8-7.4,12.8-10a16.79,16.79,0,0,1,9.4-2.2,5.87,5.87,0,0,1,3.2.8c2,1,2.6,2.8,2,5-.8,3-2.8,4.8-5.2,6.4-.2.2-.2.2-.4.2h-.4c-.4-.6,0-.8.2-1.2a36.52,36.52,0,0,0,2.6-3.2,7.1,7.1,0,0,0,.8-1.8c.2-1.4-.6-2.2-1.8-1.8a17.6,17.6,0,0,0-3,1,44.85,44.85,0,0,0-11.2,8.2,45.69,45.69,0,0,0-5.8,6.6,10.44,10.44,0,0,0-1.6,6.8,4.54,4.54,0,0,0,2.2,3.2,16.45,16.45,0,0,0,11,2.2,149,149,0,0,0,19.2-4.4c11-3,22-6.4,33-9.4C1371.25,135.71,1371.85,135.11,1372.85,135.91Z"/><path class="cls-1" d="M1386.85,118.71a4.19,4.19,0,0,1-.8,2.2c-1,1.4-1.8,2.8-2.8,4-7.8,10.6-15.8,21.2-22.6,32.4-1,1.6-1.8,2.2-2.6,1.6-1-1-.2-2,.2-2.8,2.6-5,5.4-9.6,8.4-14.2,4.6-7,9.2-14,14-21a16.89,16.89,0,0,1,3-3.6,1.83,1.83,0,0,1,2.2-.4A2.1,2.1,0,0,1,1386.85,118.71Zm8.6-12.4c.8.2,1.6.2,2.4.4a1.1,1.1,0,0,1,.8,1.2.92.92,0,0,1-.8,1,59.84,59.84,0,0,0-6.4,1.6,1.82,1.82,0,0,1-2.4-1.4,2,2,0,0,1,1.4-2C1392.05,106.51,1393.85,106.71,1395.45,106.31Z"/><path class="cls-1" d="M1432.85,130.51c-.4-.4,0-.8.2-1.4.8-2.6-.4-4.2-3-4.6a9.79,9.79,0,0,0-5.4,1.2,34.58,34.58,0,0,0-12.4,10.4c-2,3-3.8,6.2-4,9.8,0,.4-.2.8-.2,1.2.2,3,1.2,4,4.2,4a12,12,0,0,0,5.4-1.4c3.8-1.8,7.4-4,9.4-8,.2-.4.6-.8.6-1.2.6-1.2.2-1.8-1.2-2h-3.2a4.71,4.71,0,0,1-1.6-.4c-1.2-.6-1.4-1.6-.2-2.4a6,6,0,0,1,7-.2,4.52,4.52,0,0,0,3,1c10-.2,19.8-.2,29.6-.6,2.79,0,5.39-.2,8.19-.2.6,0,1.6-.2,1.6.8.21.8-1,.8-1.6.8a14.17,14.17,0,0,1-2.8.2l-19.59.6c-4.8.2-9.6.6-14.6.4a2,2,0,0,0-2.2,1.6,13.46,13.46,0,0,1-3,5.8,29.73,29.73,0,0,1-9,6.8c-3.2,1.4-6.8,2.2-10.4,1a7.21,7.21,0,0,1-5.2-5.2c-1.4-5.2-.2-10,2.8-14.4a26.79,26.79,0,0,1,7.4-7.6c4-2.6,8-4.6,12.8-5.2a9.5,9.5,0,0,1,7.8,2.2,4.83,4.83,0,0,1,0,7C1433.25,130.71,1433.05,130.51,1432.85,130.51Zm-13-15.6a1.4,1.4,0,0,1-1.4-1.8,3.81,3.81,0,0,1,1-2,28.76,28.76,0,0,1,5.6-5.4,140.92,140.92,0,0,1,14-10.4,27.93,27.93,0,0,1,3.4-1.8c1.2-.4,2.2-.2,2.4.6.4,1-.4,1.4-1,2a149.31,149.31,0,0,0-15.4,11.8c-2.2,1.8-4.4,3.8-6.4,5.6A6.75,6.75,0,0,1,1419.85,114.91Z"/><path class="cls-1" d="M1466.24,148.11a2,2,0,0,0,1.4-1,142.94,142.94,0,0,1,34.2-25.6c1.6-.8,3.4-1.6,5.2-2.6a13.78,13.78,0,0,0,1.6-.6c3.8-.8,6.2,1.6,5.6,5.2a20.94,20.94,0,0,1-2.4,5.8,114.33,114.33,0,0,1-6.4,9.6,37.5,37.5,0,0,0-4.8,7.6,8.39,8.39,0,0,0-.8,3.2c0,1.2.6,1.8,1.6,1.8a10.92,10.92,0,0,0,3.6-.2,52.63,52.63,0,0,0,8.4-3.4c7.8-3.6,15.6-7.2,22.6-12,.2-.2.4-.2.6-.4.4-.2.8-.4,1,0,.4.4,0,.8-.4,1.2a6.08,6.08,0,0,0-1.4,1,82.68,82.68,0,0,1-11.6,6.6,131.77,131.77,0,0,1-15,7.6c-2.4.8-4.6,1.8-7.2,1.6-3.6,0-5.6-2.2-5.4-5.6a24.21,24.21,0,0,1,2.6-8.4c1.8-3.4,4-6.6,6-10,1-1.6,2-3,2.8-4.6a5.89,5.89,0,0,0,1-2.6c-1.2-.2-2,.4-2.8.6a101.94,101.94,0,0,0-15.4,8,135.28,135.28,0,0,0-29.6,25.8,14.92,14.92,0,0,0-1.4,2.4c-.4.8-.8,1.6-2,1.2q-1.2-.6-.6-2.4a31.74,31.74,0,0,1,1.4-4c2.4-4.6,5.2-9.2,8-13.6,3.6-5.6,7.2-11.2,11-16.6l1.8-2.4a2.27,2.27,0,0,1,3.2-.4,2.21,2.21,0,0,1,.8,3,10.74,10.74,0,0,1-2,3.2c-2,2.8-4.2,5.4-6.2,8.2C1472,139.31,1469.24,143.51,1466.24,148.11Z"/></g></g></svg>