<svg xmlns="http://www.w3.org/2000/svg" viewBox="0 0 40.66 9.29"><defs><style>.cls-1{fill:#c36d15;}</style></defs><g id="Capa_2" data-name="Capa 2"><g id="Capa_1-2" data-name="Capa 1"><path class="cls-1" d="M7.19,7.74A4.29,4.29,0,0,1,5.61,8.93a4.58,4.58,0,0,1-1.79.36A4.27,4.27,0,0,1,2.09,9,3.29,3.29,0,0,1,.83,8,3.36,3.36,0,0,1,.12,6.62a4.87,4.87,0,0,1-.07-1.8A5.56,5.56,0,0,1,.63,3,5,5,0,0,1,1.74,1.63,4.82,4.82,0,0,1,3.26.7,4.75,4.75,0,0,1,5.08.36,3.79,3.79,0,0,1,6.65.67a2.6,2.6,0,0,1,1.17,1l-.72.54a2,2,0,0,0-.9-.87A2.8,2.8,0,0,0,5,1.08a4,4,0,0,0-1.53.29,3.85,3.85,0,0,0-1.25.79A4.22,4.22,0,0,0,1.3,3.35,4.85,4.85,0,0,0,.84,4.82,4.27,4.27,0,0,0,.89,6.3a3.1,3.1,0,0,0,.55,1.19,2.86,2.86,0,0,0,1,.79,3.49,3.49,0,0,0,1.46.29,3.22,3.22,0,0,0,.67-.08,3.38,3.38,0,0,0,.72-.24A3.49,3.49,0,0,0,6,7.84a3.13,3.13,0,0,0,.62-.59Z"/><path class="cls-1" d="M12.89,6.74c0,.28-.07.52-.1.74s0,.41-.07.6,0,.35,0,.51,0,.32,0,.48H12V8.64c0-.15,0-.31.05-.47h0a2.41,2.41,0,0,1-.88.79,2.67,2.67,0,0,1-1.21.26,2.74,2.74,0,0,1-.7-.09,1.58,1.58,0,0,1-.58-.29,1.15,1.15,0,0,1-.38-.51,1.43,1.43,0,0,1-.07-.76,1.68,1.68,0,0,1,.47-1A2.61,2.61,0,0,1,9.56,6a3.66,3.66,0,0,1,1-.24,8.78,8.78,0,0,1,1-.06h.84l0-.33a1.08,1.08,0,0,0-.3-1A1.74,1.74,0,0,0,11.07,4a2.85,2.85,0,0,0-1.79.63l-.35-.5A3.25,3.25,0,0,1,10,3.58a3.81,3.81,0,0,1,1.15-.2,2.22,2.22,0,0,1,1.54.48,1.61,1.61,0,0,1,.39,1.53Zm-1.38-.45a6.54,6.54,0,0,0-.89.06,3.51,3.51,0,0,0-.79.2,1.83,1.83,0,0,0-.6.39,1,1,0,0,0-.3.6A.85.85,0,0,0,9,8a.8.8,0,0,0,.25.32,1.08,1.08,0,0,0,.37.19,1.41,1.41,0,0,0,.45.07,2.51,2.51,0,0,0,1-.17A1.91,1.91,0,0,0,11.67,8a1.75,1.75,0,0,0,.4-.61,3.55,3.55,0,0,0,.19-.69l0-.37Z"/><path class="cls-1" d="M15.88,0h.72L15.33,9.07h-.72Z"/><path class="cls-1" d="M18.27,3.53H19l-.77,5.54H17.5Zm.13-2.2A.58.58,0,0,1,18.61,1,.55.55,0,0,1,19,.79a.46.46,0,0,1,.47.54.67.67,0,0,1-.2.39.63.63,0,0,1-.41.15.45.45,0,0,1-.36-.15A.49.49,0,0,1,18.4,1.33Z"/><path class="cls-1" d="M25.24,8.1h0a2.32,2.32,0,0,1-.49.5,3.61,3.61,0,0,1-.6.35,3,3,0,0,1-.65.2,3.58,3.58,0,0,1-.64.07A3,3,0,0,1,21.69,9a2.17,2.17,0,0,1-.84-.61,2.24,2.24,0,0,1-.47-.92,2.84,2.84,0,0,1-.05-1.17,3.35,3.35,0,0,1,.38-1.17,3.3,3.3,0,0,1,.73-.92,3.14,3.14,0,0,1,1-.61,3.46,3.46,0,0,1,1.21-.22,3.37,3.37,0,0,1,.62.07,2.42,2.42,0,0,1,.59.2,2,2,0,0,1,.5.35,1.8,1.8,0,0,1,.35.5h0L26.38,0h.72L25.83,9.07h-.72Zm.32-1.8a2,2,0,0,0,0-.88,1.91,1.91,0,0,0-.38-.72,1.94,1.94,0,0,0-.67-.49A2.11,2.11,0,0,0,23.57,4a2.42,2.42,0,0,0-.94.18,2.54,2.54,0,0,0-.76.49,2.43,2.43,0,0,0-.54.72,2.92,2.92,0,0,0-.28.88,2.15,2.15,0,0,0,0,.88,1.7,1.7,0,0,0,.33.72,1.63,1.63,0,0,0,.63.49,2,2,0,0,0,.88.18,2.59,2.59,0,0,0,.95-.18,2.73,2.73,0,0,0,.8-.49,2.77,2.77,0,0,0,.59-.72A2.7,2.7,0,0,0,25.56,6.3Z"/><path class="cls-1" d="M32.22,6.74c0,.28-.07.52-.1.74s0,.41-.07.6l0,.51c0,.16,0,.32,0,.48h-.67a3.08,3.08,0,0,1,0-.43,3.89,3.89,0,0,1,0-.47h0a2.41,2.41,0,0,1-.88.79,2.67,2.67,0,0,1-1.21.26,2.61,2.61,0,0,1-.69-.09A1.63,1.63,0,0,1,28,8.84a1.15,1.15,0,0,1-.38-.51,1.43,1.43,0,0,1-.07-.76,1.74,1.74,0,0,1,.47-1A2.61,2.61,0,0,1,28.89,6a3.66,3.66,0,0,1,1-.24,8.78,8.78,0,0,1,.95-.06h.84l.05-.33a1.08,1.08,0,0,0-.3-1A1.74,1.74,0,0,0,30.4,4a2.88,2.88,0,0,0-1.79.63l-.35-.5a3.25,3.25,0,0,1,1.07-.58,3.81,3.81,0,0,1,1.15-.2A2.2,2.2,0,0,1,32,3.86a1.63,1.63,0,0,1,.4,1.53Zm-1.38-.45a6.54,6.54,0,0,0-.89.06,3.51,3.51,0,0,0-.79.2,1.83,1.83,0,0,0-.6.39,1,1,0,0,0-.3.6,1,1,0,0,0,0,.45.8.8,0,0,0,.25.32,1.18,1.18,0,0,0,.37.19,1.41,1.41,0,0,0,.45.07,2.51,2.51,0,0,0,1-.17A2,2,0,0,0,31,8a1.87,1.87,0,0,0,.39-.61,3.55,3.55,0,0,0,.19-.69l0-.37Z"/><path class="cls-1" d="M38.8,8.1h0a2.07,2.07,0,0,1-.48.5,3.61,3.61,0,0,1-.6.35,3,3,0,0,1-.65.2,3.58,3.58,0,0,1-.64.07A3,3,0,0,1,35.25,9a2.17,2.17,0,0,1-.84-.61,2.24,2.24,0,0,1-.47-.92,2.84,2.84,0,0,1,0-1.17,3.35,3.35,0,0,1,.38-1.17A3.3,3.3,0,0,1,35,4.21a3.14,3.14,0,0,1,1-.61,3.46,3.46,0,0,1,1.21-.22,3.37,3.37,0,0,1,.62.07,2.42,2.42,0,0,1,.59.2,2,2,0,0,1,.5.35,1.8,1.8,0,0,1,.35.5h0L39.94,0h.72L39.39,9.07h-.72Zm.32-1.8a2,2,0,0,0,0-.88,1.9,1.9,0,0,0-1-1.21A2.11,2.11,0,0,0,37.13,4a2.42,2.42,0,0,0-.94.18,2.54,2.54,0,0,0-.76.49,2.43,2.43,0,0,0-.54.72,2.92,2.92,0,0,0-.28.88,2.35,2.35,0,0,0,0,.88A1.85,1.85,0,0,0,35,7.9a1.67,1.67,0,0,0,.62.49,2.11,2.11,0,0,0,.89.18,2.5,2.5,0,0,0,.94-.18,2.77,2.77,0,0,0,1.4-1.21A2.7,2.7,0,0,0,39.12,6.3Z"/></g></g></svg>