<svg xmlns="http://www.w3.org/2000/svg" viewBox="0 0 40.48 8.93"><defs><style>.cls-1{fill:#c36d15;}</style></defs><g id="Capa_2" data-name="Capa 2"><g id="Capa_1-2" data-name="Capa 1"><path class="cls-1" d="M7.19,7.38A4.29,4.29,0,0,1,5.61,8.57a4.58,4.58,0,0,1-1.79.36A4.27,4.27,0,0,1,2.09,8.6,3.29,3.29,0,0,1,.83,7.67,3.36,3.36,0,0,1,.12,6.26a4.87,4.87,0,0,1-.07-1.8A5.56,5.56,0,0,1,.63,2.68,5,5,0,0,1,1.74,1.27,4.82,4.82,0,0,1,3.26.34,4.75,4.75,0,0,1,5.08,0,3.79,3.79,0,0,1,6.65.31a2.6,2.6,0,0,1,1.17,1l-.72.54A2,2,0,0,0,6.2,1,2.8,2.8,0,0,0,5,.72,4,4,0,0,0,3.44,1a3.85,3.85,0,0,0-1.25.79A4.22,4.22,0,0,0,1.3,3,4.85,4.85,0,0,0,.84,4.46,4.27,4.27,0,0,0,.89,5.94a3.1,3.1,0,0,0,.55,1.19,2.86,2.86,0,0,0,1,.79,3.49,3.49,0,0,0,1.46.29,3.22,3.22,0,0,0,.67-.08,3.38,3.38,0,0,0,.72-.24A3.49,3.49,0,0,0,6,7.48a3.13,3.13,0,0,0,.62-.59Z"/><path class="cls-1" d="M8.33,5.94a3.35,3.35,0,0,1,.38-1.17,3.49,3.49,0,0,1,.73-.92,3.14,3.14,0,0,1,1-.61A3.46,3.46,0,0,1,11.66,3a3,3,0,0,1,1.14.22,2.33,2.33,0,0,1,.84.61,2.24,2.24,0,0,1,.47.92,3,3,0,0,1,.05,1.17,3.57,3.57,0,0,1-.38,1.17,3.3,3.3,0,0,1-.73.92,3.25,3.25,0,0,1-1,.61,3.45,3.45,0,0,1-1.2.22,3,3,0,0,1-1.15-.22A2.17,2.17,0,0,1,8.85,8a2.36,2.36,0,0,1-.47-.92A2.84,2.84,0,0,1,8.33,5.94Zm.72,0a2.15,2.15,0,0,0,0,.88,1.7,1.7,0,0,0,.33.72A1.63,1.63,0,0,0,10,8a2,2,0,0,0,.88.18,2.51,2.51,0,0,0,2.24-1.39,2.67,2.67,0,0,0,.28-.88,2.35,2.35,0,0,0,0-.88,1.72,1.72,0,0,0-.34-.72,1.59,1.59,0,0,0-.62-.49,2.08,2.08,0,0,0-.89-.18,2.37,2.37,0,0,0-.93.18,2.47,2.47,0,0,0-.77.49,2.43,2.43,0,0,0-.54.72A2.92,2.92,0,0,0,9.05,5.94Z"/><path class="cls-1" d="M15.94,4.73c0-.11,0-.23.05-.38s0-.3,0-.45,0-.29,0-.43,0-.23,0-.3h.72q0,.31-.06.6a1.46,1.46,0,0,0,0,.37h0a2,2,0,0,1,.35-.43,2.15,2.15,0,0,1,.48-.36,2.44,2.44,0,0,1,.57-.24A2.37,2.37,0,0,1,18.82,3a2.14,2.14,0,0,1,1,.21,1.28,1.28,0,0,1,.57.53,1.6,1.6,0,0,1,.21.76,4.44,4.44,0,0,1,0,.89l-.46,3.3h-.72l.46-3.26a3.69,3.69,0,0,0,0-.66,1.49,1.49,0,0,0-.13-.57,1,1,0,0,0-.37-.4,1.28,1.28,0,0,0-.67-.15,2.23,2.23,0,0,0-.77.14,1.89,1.89,0,0,0-.67.42,2.4,2.4,0,0,0-.51.71,3.46,3.46,0,0,0-.3,1l-.38,2.77h-.72Z"/><path class="cls-1" d="M22.13,5.94a3.35,3.35,0,0,1,.38-1.17,3.49,3.49,0,0,1,.73-.92,3.14,3.14,0,0,1,1-.61A3.46,3.46,0,0,1,25.46,3a3,3,0,0,1,1.14.22,2.33,2.33,0,0,1,.84.61,2.24,2.24,0,0,1,.47.92A3,3,0,0,1,28,5.94a3.57,3.57,0,0,1-.38,1.17,3.3,3.3,0,0,1-.73.92,3.25,3.25,0,0,1-1,.61,3.45,3.45,0,0,1-1.2.22,3,3,0,0,1-1.15-.22A2.17,2.17,0,0,1,22.65,8a2.36,2.36,0,0,1-.47-.92A2.84,2.84,0,0,1,22.13,5.94Zm.72,0a2.15,2.15,0,0,0,0,.88,1.7,1.7,0,0,0,.33.72,1.63,1.63,0,0,0,.63.49,2,2,0,0,0,.88.18A2.51,2.51,0,0,0,27,6.82a2.67,2.67,0,0,0,.28-.88,2.35,2.35,0,0,0,0-.88,1.72,1.72,0,0,0-.34-.72,1.59,1.59,0,0,0-.62-.49,2.08,2.08,0,0,0-.89-.18,2.37,2.37,0,0,0-.93.18,2.47,2.47,0,0,0-.77.49,2.43,2.43,0,0,0-.54.72A2.92,2.92,0,0,0,22.85,5.94Z"/><path class="cls-1" d="M33.94,7.9a3.16,3.16,0,0,1-1,.72,2.78,2.78,0,0,1-1.14.24,3,3,0,0,1-1.15-.22A2.17,2.17,0,0,1,29.78,8a2.24,2.24,0,0,1-.47-.92,2.84,2.84,0,0,1,0-1.17,3.35,3.35,0,0,1,.38-1.17,3.3,3.3,0,0,1,.73-.92,3.14,3.14,0,0,1,1-.61A3.45,3.45,0,0,1,32.58,3a2.32,2.32,0,0,1,1.1.26,2.44,2.44,0,0,1,.84.7l-.64.44a2.09,2.09,0,0,0-.61-.55,1.52,1.52,0,0,0-.77-.2,2.42,2.42,0,0,0-.94.18,2.54,2.54,0,0,0-.76.49,2.43,2.43,0,0,0-.54.72,2.92,2.92,0,0,0-.28.88,2.35,2.35,0,0,0,0,.88,1.85,1.85,0,0,0,.34.72A1.67,1.67,0,0,0,31,8a2.11,2.11,0,0,0,.89.18A1.89,1.89,0,0,0,32.72,8a2.79,2.79,0,0,0,.73-.56Z"/><path class="cls-1" d="M40,7.67a3,3,0,0,1-1.17.91,3.64,3.64,0,0,1-1.4.28,2.8,2.8,0,0,1-1.12-.22,2.11,2.11,0,0,1-.8-.61,2.2,2.2,0,0,1-.45-.92,3.3,3.3,0,0,1,0-1.18,3.38,3.38,0,0,1,.37-1.15,3.24,3.24,0,0,1,.71-.92,3,3,0,0,1,1-.61A2.87,2.87,0,0,1,38.21,3a2.44,2.44,0,0,1,1.09.23,2,2,0,0,1,.74.58,2,2,0,0,1,.38.84,2.75,2.75,0,0,1,0,1l-.08.5H35.73a2.23,2.23,0,0,0,0,.58,1.78,1.78,0,0,0,.24.69,1.55,1.55,0,0,0,.56.58,1.78,1.78,0,0,0,1,.24,2.58,2.58,0,0,0,1.11-.27,2.19,2.19,0,0,0,.89-.72Zm-.25-2.2a1.74,1.74,0,0,0,0-.69,1.46,1.46,0,0,0-.32-.57,1.57,1.57,0,0,0-.56-.39,1.73,1.73,0,0,0-.73-.15,2,2,0,0,0-1,.24,2.67,2.67,0,0,0-.7.55,2.39,2.39,0,0,0-.42.61,1.94,1.94,0,0,0-.15.4Z"/></g></g></svg>