<svg xmlns="http://www.w3.org/2000/svg" viewBox="0 0 580.22 122.47"><defs><style>.cls-1{fill:#ca985a;}</style></defs><g id="Capa_2" data-name="Capa 2"><g id="Capa_1-2" data-name="Capa 1"><path class="cls-1" d="M17.64,96.37a55.68,55.68,0,0,0,14.29-2.09A156.29,156.29,0,0,0,48.31,89c17-6.29,33.63-13.05,50.3-20.1,2.47-1.14,5-2.19,11.9-5.33.38-.19.76-.29,1.15-.48a.49.49,0,0,1,.66.29A.46.46,0,0,1,112,64c-.19.09-.48.28-.67.38C103,68.27,98.89,70.08,94.8,71.8,83,76.94,71.08,81.9,59.08,86.56c-7,2.77-14.1,5.53-21.24,7.81A82.1,82.1,0,0,1,23.45,97.8a30.86,30.86,0,0,1-11.81-.38C4.59,95.71.78,90.28.12,83.9A31.87,31.87,0,0,1,1.55,71.51a73.67,73.67,0,0,1,7.9-16.86A116.63,116.63,0,0,1,22.31,37,134.82,134.82,0,0,1,49.93,12.74a88.68,88.68,0,0,1,21-10.09A44.61,44.61,0,0,1,81.65.74a21.51,21.51,0,0,1,8.76,1.53,10.89,10.89,0,0,1,7,7.71,14.45,14.45,0,0,1-.19,7.24,31.5,31.5,0,0,1-3.91,8.57,43.23,43.23,0,0,1-7,9.05A19.14,19.14,0,0,1,84,36.65l-.57.29c-.67.28-1.14.19-1.33-.29s.19-1.14.76-1.33a2.5,2.5,0,0,0,1.62-1.14,47.78,47.78,0,0,0,9.91-16.29,14.44,14.44,0,0,0,.76-6.39,8.24,8.24,0,0,0-4.86-6.76A17.38,17.38,0,0,0,85.37,3.5C80.79,3,76.32,4,71.94,5.31a77.48,77.48,0,0,0-18.39,8.77A125.77,125.77,0,0,0,34.31,28.94,134.38,134.38,0,0,0,12.78,54.37,87.33,87.33,0,0,0,4.59,70,33.76,33.76,0,0,0,2.31,83a14.55,14.55,0,0,0,2.85,8.29,11.54,11.54,0,0,0,6.67,4.28A19.75,19.75,0,0,0,17.64,96.37Z"/><path class="cls-1" d="M124.14,60.46c-.19-.19,0-.38.09-.66a1.54,1.54,0,0,0-1.42-2.19,4.66,4.66,0,0,0-2.58.57,16.48,16.48,0,0,0-5.9,5,9.63,9.63,0,0,0-1.91,4.67c0,.19-.09.38-.09.57.09,1.43.57,1.91,2,1.91a5.73,5.73,0,0,0,2.57-.67,8.84,8.84,0,0,0,4.48-3.81c.09-.19.28-.38.28-.57.29-.57.1-.86-.57-1h-1.52a2.08,2.08,0,0,1-.76-.19c-.58-.28-.67-.76-.1-1.14a2.86,2.86,0,0,1,3.33-.09,2.17,2.17,0,0,0,1.43.47c4.77-.09,9.43-.09,14.1-.28,1.33,0,2.57-.1,3.91-.1.28,0,.76-.09.76.38s-.48.38-.76.38a6.52,6.52,0,0,1-1.34.1l-9.33.28c-2.29.1-4.57.29-7,.19a.94.94,0,0,0-1,.77,6.53,6.53,0,0,1-1.43,2.76A14.22,14.22,0,0,1,117.09,71a6.87,6.87,0,0,1-5,.47A3.41,3.41,0,0,1,109.66,69,8,8,0,0,1,111,62.18a12.65,12.65,0,0,1,3.52-3.62,14.27,14.27,0,0,1,6.1-2.48,4.53,4.53,0,0,1,3.71,1.05,2.3,2.3,0,0,1,0,3.33C124.33,60.56,124.23,60.46,124.14,60.46Z"/><path class="cls-1" d="M192.44,32.75c-3.24.09-6.48.38-9.62.38-1.53-.1-3-.1-4.58-.1a7.91,7.91,0,0,1-2.09-.28c-.19-.1-.57-.19-.48-.58s.38-.28.67-.19a36.79,36.79,0,0,0,6.48-.09c3-.1,5.9-.29,8.76-.48.19,0,.28-.09.47-.09,2.48.38,3-.57,4.77-2.77a31,31,0,0,0,2.09-3.23c3-4.48,5.91-8.86,8.77-13.24.66-1,1.23-2,1.81-3,.47-.66.85-.85,1.23-.66s.48.66.19,1.43a23.88,23.88,0,0,1-1.81,3.52c-2.19,3.62-4.57,7.14-6.85,10.76-1.34,2-2.58,4-3.91,6a5.19,5.19,0,0,0-.47.77,2,2,0,0,0,1,.09c.48,0,1-.09,1.43-.09,3.43,0,6.76-.19,10.1-.29,11.33-.29,22.67-.19,33.91-.09,4.09,0,8.09.19,12.09.38a110.31,110.31,0,0,1,11.15.95l1.43.28a.54.54,0,0,1,.57.48c-.1.38-.38.38-.67.38-.57-.09-1.14-.09-1.71-.19-3.53-.48-7.15-.67-10.67-.86-10.67-.47-21.34-.38-32-.38l-11.63.29c-3.9.09-7.81.19-11.71.38-1.24,0-2.48.09-3.72.19a1.25,1.25,0,0,0-1.14.76c-1.33,2.19-2.76,4.38-4.19,6.57-8.48,13.34-16.76,26.87-25,40.39-3.52,5.91-6.85,11.91-10.19,17.91-.47.86-.95,1.62-1.43,2.48a2.36,2.36,0,0,1-.47.57.52.52,0,0,1-.76.19.65.65,0,0,1-.29-.86c.09-.19.19-.38.29-.57,7.33-13.72,15.24-27.15,23.33-40.39,5.15-8.57,10.29-17,15.62-25.53a2.83,2.83,0,0,0,.57-1.23,3.61,3.61,0,0,0-1.33,1c-2,1.91-3.81,3.81-5.81,5.62-9.14,8.86-18.1,17.72-27.15,26.67-1.81,1.91-3.81,3.62-5.71,5.43a5,5,0,0,0-.76.77c-.48.38-.48.66-.19,1.14A6.43,6.43,0,0,1,154.05,75a4.68,4.68,0,0,1,.76,2.47,3.71,3.71,0,0,1-1.62,3.15,5.46,5.46,0,0,1-2.57,1.24,23.86,23.86,0,0,1-6.86.66,13.39,13.39,0,0,0-1.9,0c-.38.1-.86.1-1.05-.38s0-.86.29-1.14a7,7,0,0,1,1.61-1.33,66,66,0,0,0,7-5.53c.66-.57.66-.57,0-1.24-1.72-1.62-3.43-3.33-5.15-5a16.78,16.78,0,0,1-2.76-3.52,9.63,9.63,0,0,1,.48-10.76,20,20,0,0,1,12.95-8.77,13.24,13.24,0,0,1,6.38,0,8.12,8.12,0,0,1,3.24,1.72,5,5,0,0,1,1.43,4.38,10.83,10.83,0,0,1-1.33,4.19,27.2,27.2,0,0,1-4.29,6.1,14,14,0,0,1-1.81,1.52,1.25,1.25,0,0,1-.76.29.28.28,0,0,1-.38-.1c0-.09,0-.29.09-.29a9.5,9.5,0,0,1,1-.95,18.86,18.86,0,0,0,5.9-9.52,4.73,4.73,0,0,0,.19-1.62A3.57,3.57,0,0,0,162,46.65a10.57,10.57,0,0,0-4.58-.09A19.17,19.17,0,0,0,145,54.18a8.73,8.73,0,0,0-1.81,5.24,7.81,7.81,0,0,0,1.14,4.38,23,23,0,0,0,3.34,4c1.14,1.24,2.38,2.48,3.52,3.62.76.76.86.76,1.53,0,1.9-1.72,3.71-3.43,5.52-5.24,5.33-5.14,10.48-10.38,15.81-15.53l17.43-16.86A5.18,5.18,0,0,0,192.44,32.75Zm-48.2,48.86a20.71,20.71,0,0,0,4.86-.67,10.18,10.18,0,0,0,2.57-1.14,2.42,2.42,0,0,0,1.05-2.1,3.84,3.84,0,0,0-1.24-2.85c-.57-.67-.57-.67-1.24-.1a54.94,54.94,0,0,1-6.57,5l-1.34,1a.36.36,0,0,0-.19.48c0,.28.29.28.48.28A9.31,9.31,0,0,0,144.24,81.61Z"/><path class="cls-1" d="M203.87,62.08c-1.33,1.15-2.57,2.29-3.81,3.43A49.94,49.94,0,0,1,194.44,70,7,7,0,0,1,192.15,71,3.24,3.24,0,0,1,188,67.32a8.69,8.69,0,0,1,1.24-3.43,18.73,18.73,0,0,1,7.05-7.14,10,10,0,0,1,5.43-1.33,3.9,3.9,0,0,1,4,2.95c.19.57.19,1.14,1,1.05.47,0,.66.47.57.95-.1.28-.29.57-.38.86a21.47,21.47,0,0,0-1.81,3.33,6.5,6.5,0,0,0-.67,2.67,1.78,1.78,0,0,0,1.43,1.9,7.56,7.56,0,0,0,2.95.19,28,28,0,0,0,5-1.14c5.15-1.43,10.2-3.24,15.24-5.05.29-.09.67-.38,1.15-.19-.19.48-.67.57-1,.67-1.71.66-3.52,1.33-5.33,2-4,1.43-8,3-12.2,4a13.29,13.29,0,0,1-5.43.57c-2.19-.38-3.23-1.52-3.23-3.72a8.06,8.06,0,0,1,.76-3.33,3.77,3.77,0,0,1,.38-1A.31.31,0,0,1,203.87,62.08ZM191.39,69.8a2.5,2.5,0,0,0,1.62-.38,17.66,17.66,0,0,0,3.14-2c2.67-2.1,5.24-4.29,7.91-6.29.28-.19.48-.38.76-.57a.87.87,0,0,0,.29-.67,2.8,2.8,0,0,0-2.77-2.57A9.27,9.27,0,0,0,197.68,59a21.77,21.77,0,0,0-6.19,6.38,17.38,17.38,0,0,0-1,2,3,3,0,0,0-.28,1.33C190.25,69.51,190.63,69.8,191.39,69.8Z"/><path class="cls-1" d="M335,85.42c.48,0,.76-.29,1.14-.38a114.08,114.08,0,0,1,15.44-6.29,39.8,39.8,0,0,1,5.81-1.14,9,9,0,0,1,2.76.28,2.82,2.82,0,0,1,2,3.53,3.62,3.62,0,0,1-.38,1c-.19.38-.38.66-.76.57s-.48-.57-.39-1,.19-.67.29-1c.19-1.33-.29-1.9-1.62-2.09a13.26,13.26,0,0,0-3.9.38,56,56,0,0,0-10.2,3.33c-4,1.62-7.9,3.62-11.71,5.62a4.46,4.46,0,0,0-1.72,1.53c-3.52,4.95-7,10-10.57,14.86-3,3.81-6,7.62-9.33,11.14a36.88,36.88,0,0,1-4.86,4.48,10.43,10.43,0,0,1-2.95,1.71,3.73,3.73,0,0,1-1.72.38,2.23,2.23,0,0,1-2.19-1.71,4,4,0,0,1-.1-2.38A21.31,21.31,0,0,1,303.6,111a53.57,53.57,0,0,1,7.71-9,83.39,83.39,0,0,1,18.1-13.43,4.31,4.31,0,0,0,1.53-1.43c5.33-7.81,10.38-15.9,15.52-23.81,7-10.67,13.72-21.43,20.77-32,3.33-5.15,6.66-10.29,10.09-15.43,0-.19.1-.29.19-.48a.65.65,0,0,0-.57.38c-4.95,5.62-10.19,11-15.43,16.29-5.43,5.52-11.24,10.67-17.05,15.81C337.22,54.08,329.79,60.18,322,65.7a56,56,0,0,1-8.28,5,19.52,19.52,0,0,1-5.15,1.72,5.21,5.21,0,0,1-5.71-3.72,10,10,0,0,1-.29-4.09,36.35,36.35,0,0,1,2.95-11.44,105,105,0,0,1,7.24-13.62c3.81-6.19,7.91-12.09,11.81-18.09a80.3,80.3,0,0,0,5.81-10.1,15.36,15.36,0,0,0,1.34-3.72A11,11,0,0,0,331.89,6a2,2,0,0,0-1.72-2.48,10.81,10.81,0,0,0-3.9-.38,48.48,48.48,0,0,0-13.72,3.43,130.24,130.24,0,0,0-31.43,17.53,96.69,96.69,0,0,0-16.48,15.33,44.76,44.76,0,0,0-7.52,12.2,21.33,21.33,0,0,0-1.53,7.24,14.44,14.44,0,0,0,6.67,13,22.33,22.33,0,0,0,9.62,3.43,52.11,52.11,0,0,0,9.43,0c.38,0,.86-.28.95.19s-.47.29-.85.38a33.71,33.71,0,0,1-9.82.29,21,21,0,0,1-11.9-4.86,15.39,15.39,0,0,1-5.53-11,22.26,22.26,0,0,1,2.29-11.33,48.3,48.3,0,0,1,8-12.38c7.05-8.29,15.43-15,24.48-20.86A123.79,123.79,0,0,1,309.12,4.84,66.45,66.45,0,0,1,323.32.36a16.21,16.21,0,0,1,6.76,0c3.9,1,5.9,4,5.05,8a27.8,27.8,0,0,1-2.67,7.05A144.71,144.71,0,0,1,324.65,28c-3.72,5.34-7.34,10.67-10.76,16.29a74,74,0,0,0-7.15,14.29,27.88,27.88,0,0,0-1.62,7.81,7.76,7.76,0,0,0,.19,2.09,2.32,2.32,0,0,0,2.77,1.91,15.66,15.66,0,0,0,5-1.62,72.75,72.75,0,0,0,11-6.76c5.43-3.91,10.76-8.1,16-12.38,4.86-3.91,9.62-8,14.19-12.2,4.86-4.47,9.43-9.14,14-13.81,4.2-4.38,8.2-9,12.2-13.71a8.23,8.23,0,0,1,.95-1.05.76.76,0,0,1,1.05-.19.91.91,0,0,1,.47,1.14c-.19.48-.47,1.05-.66,1.52-1.24,2.29-2.48,4.48-3.81,6.58-7.72,12.38-15.72,24.57-23.63,36.86-6.38,10-12.85,20-19.43,29.91A1,1,0,0,0,335,85.42Zm-7.71,6.67a1,1,0,0,0-.77.38,93.15,93.15,0,0,0-15.24,12.1,42.44,42.44,0,0,0-6.85,8.09,18.3,18.3,0,0,0-2.86,6.19,3.45,3.45,0,0,0,0,1.43c.19.67.47.86,1.14.67a3.56,3.56,0,0,0,.76-.29,11.29,11.29,0,0,0,2.67-1.71,49.71,49.71,0,0,0,5.43-5.43,220.74,220.74,0,0,0,15.53-20.86C327.22,92.47,327.41,92.37,327.32,92.09Z"/><path class="cls-1" d="M396.19,63.13c-.1.57-.48.67-.86.86-1.71.86-3.43,1.62-5.24,2.47a53.39,53.39,0,0,1-6.38,2.86,13.42,13.42,0,0,1-2.76.86h-.19c-2.76.48-4.29-1-3.81-3.72a12.8,12.8,0,0,1,1.33-3.61,1.59,1.59,0,0,0,.38-.67c-.38-.1-.57.19-.76.38-2.48,1.81-4.95,3.71-7.43,5.62a21.35,21.35,0,0,1-4.19,2.67,6.15,6.15,0,0,1-2.19.76,2.19,2.19,0,0,1-2.67-2,6.66,6.66,0,0,1,.29-2.38,27.41,27.41,0,0,1,3.14-6A39.81,39.81,0,0,1,368,57.32c.29-.19.48-.48.77-.57a1,1,0,0,1,1.33-.1,1.22,1.22,0,0,1,.38,1.34,3.07,3.07,0,0,1-.67,1.24c-1.14,1.9-2.38,3.62-3.62,5.43-.76,1-1.42,2.09-2.09,3.14a6.16,6.16,0,0,0-.48,1.14,1.17,1.17,0,0,0-.09,1.24,1.14,1.14,0,0,0,1.33.1,12.41,12.41,0,0,0,2.29-1,71.75,71.75,0,0,0,7.05-4.86c1.71-1.23,3.33-2.47,5-3.71a7.6,7.6,0,0,0,1.53-1.52A6,6,0,0,1,381.81,58a1.16,1.16,0,0,1,1.52-.1,1.07,1.07,0,0,1,.29,1.53c-.58.95-1.15,1.9-1.81,2.85a34.38,34.38,0,0,0-2.58,4.48,5.36,5.36,0,0,0-.47,1.33c0,.58.09.86.66,1a4,4,0,0,0,1.81,0,38.29,38.29,0,0,0,7-2.48c2.28-1,4.47-2,6.67-3A2.78,2.78,0,0,1,396.19,63.13Z"/><path class="cls-1" d="M429.24,63c-.38.47-.85.47-1.33.66-2.19.67-4.38,1.24-6.57,2-3.43,1.15-7,2.1-10.39,3a41.38,41.38,0,0,1-7.52,1.72,13.43,13.43,0,0,1-5.14-.29,5.37,5.37,0,0,1-3.91-6.48,9,9,0,0,1,1.91-3.81,18.71,18.71,0,0,1,6.09-4.76,8.08,8.08,0,0,1,4.48-1.05,2.82,2.82,0,0,1,1.52.38,1.87,1.87,0,0,1,1,2.38,5.32,5.32,0,0,1-2.48,3c-.1.1-.1.1-.19.1h-.19c-.19-.29,0-.38.09-.57a16.65,16.65,0,0,0,1.24-1.53,3.18,3.18,0,0,0,.38-.85c.1-.67-.28-1-.85-.86a7.71,7.71,0,0,0-1.43.47,24.86,24.86,0,0,0-8.1,7.05,4.94,4.94,0,0,0-.76,3.24,2.11,2.11,0,0,0,1.05,1.52,7.8,7.8,0,0,0,5.23,1.05,70.83,70.83,0,0,0,9.15-2.09c5.24-1.43,10.48-3,15.72-4.48C428.48,62.94,428.77,62.65,429.24,63Z"/><path class="cls-1" d="M481.82,35.51a.7.7,0,0,0,.57.19c5.15-.19,10.29-.29,15.34-.38h1c8.09,0,16.19-.1,24.19,0,5.14.09,10.29,0,15.34.19,1.62,0,3.24.09,4.85.19.29,0,.58.09.86.09s.48.19.48.48-.29.38-.57.38h-.29c-2.57-.19-5.14-.09-7.72-.09-11.9-.1-23.9-.1-35.81.09-5.81,0-11.72.19-17.53.38-2.47.1-1.81-.09-3,1.72-4.77,7.24-9.43,14.57-14,21.9C460.68,68.27,456,76,451.25,83.71c-4.19,7-8.48,14-12.77,21-.09.19-.19.48-.38.57a.55.55,0,0,1-1-.57c.09-.28.29-.48.38-.76,2.48-4.38,5.14-8.67,7.72-13.05,5-8.48,10.09-17,15.33-25.34,5.62-9.05,11.24-18.1,17-27.14.19-.39.47-.58.47-1-.47-.1-.66.28-.95.47-1.43,1.81-2.76,3.62-4.19,5.34-4.57,5.52-9,11.14-13.62,16.57a47.68,47.68,0,0,1-9.81,8.76,23.54,23.54,0,0,1-3.15,1.62,3.67,3.67,0,0,1-1,.39,2.85,2.85,0,0,1-3.9-2.67,8.33,8.33,0,0,1,.66-4,4.06,4.06,0,0,0,.48-1.62c-.48,0-.76.38-1.05.57-2.67,1.91-5.33,3.91-8,5.81a10.49,10.49,0,0,1-2.67,1.52,2.72,2.72,0,0,1-3.9-2.66,7.77,7.77,0,0,1,.47-2.48A16.62,16.62,0,0,1,435.72,56a6.43,6.43,0,0,1,5.62-.38,3.92,3.92,0,0,1,2.76,3,.35.35,0,0,1,.1.2c.38-.29.47-.67.76-1.05a11.06,11.06,0,0,0,.57-1,1.39,1.39,0,0,1,2-.38,1.22,1.22,0,0,1,.48,1.71,22.18,22.18,0,0,1-1.34,2.67c-.76,1.33-1.61,2.67-2.28,4.1a11.16,11.16,0,0,0-.86,2.28,2.23,2.23,0,0,0-.09.76c-.1,1.15.47,1.53,1.52,1.34a14,14,0,0,0,2.76-1.15,38.92,38.92,0,0,0,6.77-5,103.75,103.75,0,0,0,9.14-10.1c3.9-4.76,7.91-9.62,11.81-14.48.19-.28.57-.48.57-1-.28-.29-.66-.1-1.05-.1-2.76-.09-5.52.29-8.19.19a8.07,8.07,0,0,1-1.52-.09c-.29,0-.67-.1-.67-.48s.48-.38.76-.38c.77,0,1.53-.09,2.39-.09,2.85-.19,5.81-.38,8.66-.48a2.34,2.34,0,0,0,1.72-.86l6-7.14c1.33-1.72,2.48-3.62,3.81-5.43,1.71-2.48,3.43-4.86,5.24-7.33a4.54,4.54,0,0,1,.95-1.05c.29-.38.57-.48.95-.19a.6.6,0,0,1,.19.95c-.38.57-.66,1.14-.95,1.62-3.71,5.52-7.52,11.14-11.24,16.67A8,8,0,0,0,481.82,35.51Zm-52.48,32.1c0,1,.19,1.24,1.05,1a6.05,6.05,0,0,0,2.09-1l10.29-6.86c.09,0,.09-.09.19-.09a.8.8,0,0,0,.29-1.05A2.85,2.85,0,0,0,440.2,57a6.36,6.36,0,0,0-3.43,1,18.47,18.47,0,0,0-7,8.19A4.16,4.16,0,0,0,429.34,67.61Z"/><path class="cls-1" d="M480.87,70.94a7.88,7.88,0,0,1-3.33-.57A4.85,4.85,0,0,1,475,65.23a10.79,10.79,0,0,1,2.57-5.72,15,15,0,0,1,6.67-4.95,5.89,5.89,0,0,1,4.19-.29c3.14.86,3.14,3.53,1.62,5.43a6.84,6.84,0,0,1-3.43,2.19,19.6,19.6,0,0,1-7.81,1.43,1,1,0,0,0-.77.48,5.39,5.39,0,0,0-1,3.62c.19,1.24,1,1.81,2.19,2.19a10.34,10.34,0,0,0,4.19.09,60.41,60.41,0,0,0,8.19-1.9c3.33-1,6.67-2,9.91-3.14,1.61-.58,3.33-1.15,5-1.72a2.41,2.41,0,0,1,.77-.19c.19,0,.38-.1.38.19s-.1.29-.19.29c-.86.28-1.62.66-2.48,1l-8.86,3.14c-1.05.38-2.19.76-3.33,1.05-3.24.86-6.48,1.91-9.81,2.48A16.4,16.4,0,0,1,480.87,70.94ZM479,62.46a3.41,3.41,0,0,1,.57.1,25.59,25.59,0,0,0,7.9-2,6.41,6.41,0,0,0,1.62-1.24,2.36,2.36,0,0,0,.57-1.9c-.09-.67-.38-1.05-1-1.05a5.53,5.53,0,0,0-2.77.57,17.67,17.67,0,0,0-3.33,2.1A16.93,16.93,0,0,0,479,62.46Z"/><path class="cls-1" d="M540.79,63c-.39.47-.86.47-1.34.66-2.19.67-4.38,1.24-6.57,2-3.43,1.15-7,2.1-10.38,3A41.67,41.67,0,0,1,515,70.47a13.43,13.43,0,0,1-5.14-.29,5.38,5.38,0,0,1-3.91-6.48,9.09,9.09,0,0,1,1.91-3.81,18.64,18.64,0,0,1,6.1-4.76,8,8,0,0,1,4.47-1.05,2.88,2.88,0,0,1,1.53.38,1.87,1.87,0,0,1,1,2.38,5.28,5.28,0,0,1-2.48,3c-.09.1-.09.1-.19.1H518c-.19-.29,0-.38.1-.57a18.32,18.32,0,0,0,1.23-1.53,3.58,3.58,0,0,0,.39-.85c.09-.67-.29-1-.86-.86a8,8,0,0,0-1.43.47,21.48,21.48,0,0,0-5.33,3.91,21.84,21.84,0,0,0-2.77,3.14,5.06,5.06,0,0,0-.76,3.24,2.17,2.17,0,0,0,1.05,1.52,7.83,7.83,0,0,0,5.24,1.05A71.06,71.06,0,0,0,524,67.42c5.24-1.43,10.48-3,15.72-4.48C540,62.94,540.31,62.65,540.79,63Z"/><path class="cls-1" d="M553.93,62.08c-1.33,1.15-2.57,2.29-3.81,3.43A49.94,49.94,0,0,1,544.5,70,7,7,0,0,1,542.22,71a3.24,3.24,0,0,1-4.2-3.72,9,9,0,0,1,1.24-3.43,18.8,18.8,0,0,1,7-7.14,10,10,0,0,1,5.43-1.33,3.9,3.9,0,0,1,4,2.95c.19.57.19,1.14,1,1.05.48,0,.67.47.57.95-.09.28-.28.57-.38.86a22.34,22.34,0,0,0-1.81,3.33,6.5,6.5,0,0,0-.67,2.67,1.78,1.78,0,0,0,1.43,1.9,7.56,7.56,0,0,0,3,.19,28.36,28.36,0,0,0,5-1.14c5.14-1.43,10.19-3.24,15.24-5.05.28-.09.66-.38,1.14-.19-.19.48-.67.57-1.05.67-1.71.66-3.52,1.33-5.33,2-4,1.43-8,3-12.19,4a13.29,13.29,0,0,1-5.43.57C554,69.8,553,68.66,553,66.46a8.06,8.06,0,0,1,.76-3.33,4.19,4.19,0,0,1,.38-1A.35.35,0,0,1,553.93,62.08ZM541.45,69.8a2.47,2.47,0,0,0,1.62-.38,17.74,17.74,0,0,0,3.15-2c2.66-2.1,5.24-4.29,7.9-6.29.29-.19.48-.38.76-.57a.87.87,0,0,0,.29-.67,2.79,2.79,0,0,0-2.76-2.57A9.27,9.27,0,0,0,547.74,59a21.77,21.77,0,0,0-6.19,6.38,17.29,17.29,0,0,0-.95,2,3,3,0,0,0-.29,1.33C540.31,69.51,540.69,69.8,541.45,69.8Z"/></g></g></svg>