<svg xmlns="http://www.w3.org/2000/svg" viewBox="0 0 3179.49 1128.55"><defs><style>.cls-1{fill:#c8965a;}</style></defs><g id="Capa_2" data-name="Capa 2"><g id="Capa_1-2" data-name="Capa 1"><path class="cls-1" d="M97.73,1054.6c26.55-1.83,52.17-3.66,77.8-2.75,21.05.92,42.1,2.75,62.24,9.15a53.88,53.88,0,0,1,7.32,3.67c1.83.91,2.74,2.74,1.83,4.57a3.09,3.09,0,0,1-4.58,2.74c-1.83,0-4.57,0-6.4-.91a170.65,170.65,0,0,0-47.6-6.4,624.24,624.24,0,0,0-92.44,3.66c-3.66.91-7.32,1.83-10.06,5.48-1.84,2.75-3.67,5.5-6.41,7.33-4.58,2.74-9.15,1.83-11-3.66-1.83-4.58-4.58-4.58-8.24-3.67-16.48,2.75-33.86,4.58-49.42,11.9-4.58,1.83-9.15,0-10.07-3.66-1.83-3.66,0-6.4,3.66-9.15,5.49-3.66,12.81-5.49,19.22-7.32,15.56-2.75,30.2-5.49,45.76-7.32q8.24-1.38,11-8.24c47.59-92.44,99.76-183,150.09-274.57C299.09,652.8,369.56,530.17,439.12,407.52,505.93,290.37,573.66,174.14,645.05,59.73c3.66-6.41,9.15-12.81,7.32-22,0-2.74,2.74-5.48,4.58-9.15.91-1.83,3.66-3.66,3.66-7.32-2.75-2.74-5.5-1.83-7.33-1.83-20.13,1.83-39.35,3.66-59.49,5.49L560.84,27.7c-4.57,0-9.15.91-12.81,5.49-3.66,5.49-9.15,5.49-14.64,2.75s-8.24-7.33-9.15-13.73c0-4.58,3.66-8.24,9.15-9.16a54.22,54.22,0,0,1,12.81-1.83c20.14-.91,40.27-1.83,61.32-2.74s43-1.83,64.07-4.58C681.66,3,690.81,3,700,3c27.46-.92,54.92-1.83,83.29-2.75,3.66,0,9.15-1.83,11,4.58.92,2.75-2.75,5.49-11,6.4-12.82.92-25.63,1.83-38.44,1.83L700.88,15.8c-4.58,0-9.16,1.83-11,7.32-11,26.54-25.62,51.26-40.27,76C586.47,206.17,524.24,312.34,461.08,419.42,386,546.64,311,674.78,237.77,803.82c-45.77,80.54-91.53,162-137.29,242.54C99.57,1049.1,97.73,1050.94,97.73,1054.6Z"/><path class="cls-1" d="M487.64,665.62c3.66-.92,5.49-2.74,6.4-4.57C540.72,614.36,592,575,650.55,543.9c7.32-3.67,15.56-7.33,23.8-11.9a63.32,63.32,0,0,0,7.32-2.75c17.39-3.66,28.37,7.32,25.62,23.8-1.83,9.15-6.4,18.3-11,26.54A522.09,522.09,0,0,1,667,623.52c-8.23,11-16.47,22-22,34.78-1.83,4.58-3.66,9.15-3.66,14.64s2.74,8.24,7.32,8.24c5.49.91,11,0,16.47-.92,13.73-4.57,26.55-9.15,38.44-15.56,35.7-16.47,71.39-32.94,103.42-54.91.92-.91,1.84-.91,2.75-1.83,1.83-.91,3.66-1.83,4.58,0,1.83,1.83,0,3.66-1.83,5.49a27.71,27.71,0,0,0-6.41,4.58c-16.47,11.9-34.78,21.05-53.08,30.2A602.45,602.45,0,0,1,684.41,683c-11,3.66-21,8.24-32.95,7.32-16.47,0-25.62-10.07-24.71-25.63.92-13.72,6.41-26.54,11.9-38.44,8.24-15.55,18.3-30.2,27.46-45.76,4.57-7.32,9.15-13.72,12.81-21,1.83-3.66,4.58-7.32,4.58-11.9-5.49-.91-9.15,1.83-12.82,2.75-24.71,10.07-48.5,22.88-70.47,36.61A619.08,619.08,0,0,0,464.76,705a68.42,68.42,0,0,0-6.41,11c-1.83,3.66-3.66,7.32-9.15,5.49q-5.49-2.75-2.75-11a144.61,144.61,0,0,1,6.41-18.31c11-21,23.79-42.1,36.61-62.23,16.47-25.63,32.95-51.26,50.33-76L548,543c4.58-4.58,10.07-5.49,14.65-1.83,4.57,2.75,6.4,8.23,3.66,13.73-1.83,5.49-5.49,10.06-9.16,14.64C548,582.34,538,594.23,528.82,607.05,514.18,625.35,501.37,644.57,487.64,665.62Z"/><path class="cls-1" d="M611.2,1072.9c4.58-1.83,7.32-4.57,10.07-7.32q15.09-19.21,27.46-38.44c17.38-29.29,34.77-57.66,50.33-87.86A645,645,0,0,0,761.3,762.64c1.83-6.41,2.74-11.9,4.58-18.31,3.65-14.64,11.89-25.63,25.62-33.86,15.56-9.15,33-15.56,49.42-22,60.41-22.88,119.9-46.68,178.48-74.14,2.74-1.82,7.32-5.48,9.15-1.82,1.83,4.57-3.66,5.49-6.41,7.32-32,15.56-64.07,30.2-97,43.93-34.78,13.73-69.56,28.37-103.43,42.1A206.61,206.61,0,0,0,797,717.79c-11.89,5.49-19.22,15.56-22,28.37a306,306,0,0,0-7.32,31.12C753.06,848.67,725.6,914.56,689,977.72c-14.64,26.54-29.28,53.08-46.67,76.88A143.67,143.67,0,0,1,624,1077.48c-3.66,3.66-7.32,6.4-11.9,7.32-7.32,2.74-12.81-.92-13.72-9.15a79.76,79.76,0,0,1,1.83-14.65c6.4-32.94,17.39-64.06,28.37-95.18,33.86-90.61,76-177.56,121.73-262.67,70.47-133.63,151-260.85,236.13-385.32,32-47.59,64.06-94.27,97.93-140.94l16.47-22c7.32-9.16,15.56-15.56,24.71-21,2.75-.92,5.5-2.75,8.24-3.67,13.73-4.57,22,1.83,21,16.48-.91,9.15-1.83,19.22-5.49,28.37a396.37,396.37,0,0,1-27.46,64.07c-33.86,58.57-70.47,114.4-111.66,167.49-49.42,66.81-101.59,130-161.08,187.62a24.42,24.42,0,0,1-5.49,4.58c-15.56,11.9-24.71,28.37-33.86,43.93-38.44,67.73-74.14,135.46-108,205-27.46,54.91-53.08,110.75-74.14,169.32-5.49,14.64-10.06,29.29-14.64,44.85C612.11,1064.67,612.11,1068.33,611.2,1072.9ZM840,591.49l.91.91a2.85,2.85,0,0,1,1.83-.91c6.41-7.32,11.9-13.73,18.31-20.14,44.85-45.76,85.12-95.18,124.47-145.52,42.1-55.83,81.46-112.58,117.15-173,14.65-24.71,28.38-50.34,37.53-77.8a79.54,79.54,0,0,0,4.57-25.62c0-2.75.92-6.41-1.83-8.24-2.74-.92-5.49.91-7.32,2.74-1.83.92-2.74,1.83-4.57,2.75-11.9,9.15-21.06,20.13-29.29,32.95q-45.32,68.64-90.61,137.28C963.57,389.22,916.89,462.44,872,537.49,861.06,555.79,850.08,573.18,840,591.49Z"/><path class="cls-1" d="M1175,590.57c-1.83-4.58,0-8.23.92-11,.91-15.56-5.49-29.29-17.39-36.61q-8.23-5.49-19.22-2.75c-18.31,5.49-34.78,13.73-49.42,25.63-20.14,16.48-38.44,35.69-51.26,59.49-2.74,4.58-5.49,9.15-6.4,14.64-9.16,25.63,8.23,51.26,41.18,47.6,25.63-2.75,43-18.31,58.58-37.53a75.21,75.21,0,0,0,11-18.3c1.83-4.58.92-8.24-3.66-10.07a28.28,28.28,0,0,1-14.65-10.07c-7.32-7.32-7.32-16.47-.91-22a18.47,18.47,0,0,1,24.71,2.75,33.31,33.31,0,0,1,6.41,15.56c1.83,10.07,1.83,10.07,11.9,10.07,28.37,0,54-8.24,78.71-21,18.3-10.07,34.78-22.89,47.59-40.27,5.49-6.41,9.15-13.73,12.81-22,8.24-20.13,3.66-40.27-13.73-54a69.54,69.54,0,0,0-17.39-11c-3.66-1.83-6.4-3.66-10.06-5.49-6.41-4.58-6.41-9.16-1.84-15.56a201.69,201.69,0,0,1,16.48-12.81A1285.3,1285.3,0,0,1,1391,369.08a1514.54,1514.54,0,0,1,179.39-83.29c11.89-4.57,23.79-8.23,34.78-11.89a46.47,46.47,0,0,1,15.56-2.75c9.15.92,14.64,8.24,11.89,17.39-1.83,7.33-6.4,13.73-11,19.22-10.07,12.82-20.13,26.55-31.12,39.36a2900.4,2900.4,0,0,0-184,251.69q-96.11,148.26-181.22,302c-22.88,42.1-44.84,83.28-65.9,125.39-13.73,30.2-27.45,59.48-38.44,90.6-1.83,2.75-2.74,5.49-4.57,8.24s-5.49,4.58-9.15,2.74c-4.58-1.83-5.5-4.57-4.58-9.14a64.87,64.87,0,0,1,2.74-7.33c11.9-38.44,28.38-75,45.77-111.66,43.93-92.44,94.27-182.13,146.44-270C1337,662,1378.17,596.06,1421.18,531.08c43.93-66.81,93.36-130.88,146.44-192.2,12.82-14.64,26.54-29.29,39.36-43.93,2.74-2.75,5.49-4.58,6.4-9.16-4.57-.91-8.23.92-11.89,1.83-30.21,10.07-59.49,21.06-88.78,33.87C1434,355.35,1359,396.54,1287.56,443.22a76.54,76.54,0,0,0-11,7.32c-6.4,4.57-6.4,6.4.92,10.07,5.49,3.66,11,6.4,15.56,10.06,25.63,16.48,35.69,46.68,17.39,77.8-18.31,29.29-43.93,50.34-76,64.07-22,10.07-45.76,15.55-70.47,14.64-7.32,0-10.07,1.83-12.81,8.24-8.24,22-22.88,39.36-42.1,53.08-17.39,11.9-37.53,15.56-58.58,11.9-31.12-6.41-50.34-38.44-42.1-70.47,5.49-19.22,16.48-35.7,29.29-50.34a200.13,200.13,0,0,1,38.44-34.78c17.39-11.9,36.61-19.22,57.66-21,36.61-3.66,56.74,37.52,45.76,60.41C1178.64,586.91,1178.64,589.65,1175,590.57Zm-29.29,18.31c-.91-4.58-1.82-9.16-5.49-12.82-2.74-2.74-6.4-3.66-9.15-.91-3.66,2.74-3.66,5.49-1.83,9.15s5.49,7.32,10.07,8.24C1143,614.36,1144.78,613.45,1145.69,608.88Z"/><path class="cls-1" d="M1782.72,578.67a115.09,115.09,0,0,0-34.78,13.73A448.1,448.1,0,0,0,1639,672.94c-7.32,7.32-11,9.15-14.65,6.41-7.32-5.49-2.74-11-.91-16.47,7.32-18.31,17.39-34.79,26.54-52.17,9.15-15.56,19.22-32,26.54-49.43,1.83-2.74,4.58-6.4,1.83-10.07-2.74-2.74-6.4.92-10.07,1.84-18.3,7.32-34.78,17.39-50.33,28.37-56.75,35.69-105.25,79.63-150.1,129.05-3.66,2.75-4.58,6.4-6.41,10.06-1.83,2.75-4.58,4.58-8.24,3.67-3.66-1.84-5.49-4.58-4.57-8.24,1.83-7.32,4.57-13.73,7.32-20.14,14.64-27.46,31.12-54,47.59-81.46,12.81-21,25.63-42.09,40.27-62.23,5.49-7.32,11-13.73,16.48-21,2.74-2.74,5.49-5.49,9.15-6.41,4.57-.91,8.24,0,11.9,3.67,2.74,2.74,3.66,6.4,1.83,11A79,79,0,0,1,1574,554c-16.47,22.88-33.86,45.76-50.33,68.65-6.41,8.23-11.9,17.38-17.39,26.54,4.57-1.83,7.32-5.5,11-9.16,38.44-36.61,79.63-69.55,124.47-97.93,11-7.32,22.88-13.72,36.61-17.39,7.32-1.83,14.64-1.83,21,1.83,11,5.5,15.56,15.56,12.81,27.46-1.82,10.07-6.4,17.39-11.89,25.63-9.15,12.81-19.22,26.54-28.37,40.27-1.83,2.75-3.67,6.4-6.41,10.07,3.66.91,5.49-1.84,6.41-2.75a485.11,485.11,0,0,1,85.11-58.57c6.41-2.75,12.82-5.5,18.31-7.33a28.16,28.16,0,0,1,11.9-2.74c16.47-.92,25.62,11,22.88,26.54-2.75,11-7.33,20.13-12.82,29.28-4.57,9.16-9.15,18.31-13.73,26.55-.91,2.74-1.82,5.49-2.74,9.15-2.75,10.07.92,15.56,11.9,15.56,8.24.91,16.47-.92,24.71-3.66,43.93-14.64,87-32,130-51.25a54.25,54.25,0,0,0,7.32-3.66c.92,0,2.75-.92,3.67.91,1.83,1.83,0,3.66-.92,4.58-4.58,2.74-9.15,5.49-14.64,7.32-41.19,19.22-82.37,37.52-126.31,51.25a74.38,74.38,0,0,1-28.37,5.49c-14.64,0-25.63-10.07-27.46-25.62-.91-8.24.92-15.56,3.66-22.89,2.75-11.89,8.24-23.79,13.73-34.77C1780.89,588.74,1782.72,585.08,1782.72,578.67Z"/><path class="cls-1" d="M2452.69,345.29c1.83,1.83,3.66,1.83,5.49,1.83,49.42-1.83,98.84-2.75,147.35-3.66h10.07c77.79,0,155.59-.92,232.47,0,49.42.91,98.84,0,147.35,1.83,15.56,0,31.12.91,46.68,1.83,2.74,0,5.49.91,8.24.91,2.74.92,4.57,1.83,4.57,4.58,0,3.66-2.74,3.66-5.49,3.66h-2.75c-24.71-1.83-49.42-.92-74.13-.92-114.4-.91-229.72-.91-344.13.92-55.83,0-112.57,1.83-168.4,3.66-23.8.92-17.39-.91-29.29,16.47-45.76,69.56-90.61,140-134.54,210.51-46.68,73.22-91.52,147.35-137.29,221.49-40.27,67.72-81.45,134.54-122.64,201.35-.91,1.83-1.83,4.58-3.66,5.49-1.83,2.75-4.58,2.75-7.32,1.83-2.75-1.83-2.75-4.57-1.83-7.32s2.74-4.58,3.66-7.32c23.79-42.1,49.42-83.29,74.13-125.39,48.51-81.46,97-162.91,147.36-243.45,54-87,108-173.9,162.91-260.84,1.83-3.67,4.57-5.5,4.57-10.07-4.57-.92-6.4,2.74-9.15,4.57-13.72,17.39-26.54,34.78-40.27,51.25-43.93,53.09-86,107.09-130.88,159.26-27.45,32-58.57,60.4-94.27,84.2-10.06,6.4-20.13,11-30.2,15.56-2.75,1.83-6.4,2.74-9.15,3.66-20.14,5.49-35.69-4.58-37.53-25.63-1.83-13.73,1.84-25.62,6.41-38.44,1.83-4.57,4.58-9.15,4.58-15.56-4.58,0-7.33,3.66-10.07,5.5-25.63,18.3-51.25,37.52-76.88,55.83A103.11,103.11,0,0,1,1963,677.52c-20.13,7.32-36.61-3.66-37.52-25.63,0-8.24,1.83-15.56,4.57-23.8,14.65-39.35,43-66.81,79.63-86,17.39-9.15,35.69-11,54-3.66,13.73,5.5,23.79,13.73,26.54,29.29a3.21,3.21,0,0,1,.92,1.83c3.66-2.74,4.57-6.41,7.32-10.07a98.3,98.3,0,0,0,5.49-10.07c4.57-6.4,11.9-8.23,19.22-3.66,5.49,3.66,8.24,9.16,4.57,16.48-3.66,9.15-8.23,17.39-12.81,25.62-7.32,12.82-15.56,25.63-22,39.36a106.59,106.59,0,0,0-8.24,22,20,20,0,0,0-.92,7.32c-.91,11,4.58,14.64,14.65,12.81a135.25,135.25,0,0,0,26.54-11c23.79-13.73,44.85-30.21,65-48.51,32-30.2,60.41-63.15,87.86-97,37.53-45.77,76-92.44,113.49-139.12,1.84-2.75,5.49-4.58,5.49-9.16-2.74-2.74-6.4-.91-10.06-.91-26.54-.91-53.09,2.74-78.71,1.83-5.49,0-10.07,0-14.65-.92-2.74,0-6.4-.91-6.4-4.57.91-3.66,4.57-3.66,7.32-3.66,7.32,0,14.64-.92,22.88-.92,27.46-1.83,55.83-3.66,83.29-4.57,7.32-.92,11.89-2.75,16.47-8.24l57.66-68.64c12.81-16.48,23.8-34.78,36.61-52.17,16.47-23.8,32.95-46.68,50.34-70.47,2.75-3.66,5.49-7.33,9.15-10.07,2.75-3.66,5.49-4.58,9.15-1.83,4.58,2.74,3.67,6.4,1.83,9.15-3.66,5.49-6.4,11-9.15,15.56-35.69,53.08-72.3,107.08-108,160.17C2460,330.64,2455.43,337.05,2452.69,345.29Zm-504.3,308.43c0,10.07,1.83,11.9,10.07,9.16,7.32-1.83,13.72-5.5,20.13-10.08l98.85-65.89c.91,0,.91-.92,1.83-.92,3.66-2.74,4.57-6.4,2.74-10.07-3.66-15.55-12.81-23.79-29.28-23.79-11.9,0-22.89,3.66-33,10.07-29.29,20.14-54,44.85-67.73,78.71C1950.22,645.49,1948.39,650.06,1948.39,653.72Z"/><path class="cls-1" d="M2465.5,531.08c0,3.66-1.83,7.32-3.66,10.07-4.57,6.4-8.23,12.81-12.81,18.3-35.69,48.51-72.3,97-103.42,148.27-4.58,7.32-8.24,10.07-11.9,7.32-4.58-4.57-.92-9.15.92-12.81,11.89-22.88,24.71-43.93,38.43-65,21.06-32,42.11-64.07,64.07-96.1,3.66-5.5,8.24-11.9,13.73-16.48a8.37,8.37,0,0,1,10.07-1.83A9.62,9.62,0,0,1,2465.5,531.08Zm39.36-56.74c3.66.91,7.32.91,11,1.83,2.75.91,3.66,2.74,3.66,5.49s-1.83,4.57-3.66,4.57a272.88,272.88,0,0,0-29.28,7.33,8.35,8.35,0,0,1-11-6.41c0-5.49,2.75-7.32,6.41-9.15C2489.3,475.25,2497.54,476.17,2504.86,474.34Z"/><path class="cls-1" d="M2888.34,612.54c-1.83,4.57-5.49,4.57-9.15,5.49-13.73,3.66-27.46,4.58-42.1,6.4-6.41,0-12.81.92-20.14.92-36.6,2.74-70.47-7.32-103.42-22-4.57-1.83-8.23-4.57-11.9-7.32-3.66-3.66-5.49-1.83-7.32,1.83-4.57,9.16-9.15,18.31-14.64,27.46a203.16,203.16,0,0,1-74.13,70.47c-7.33,4.58-15.56,7.33-24.72,9.15-19.22,4.58-35.69-3.65-43-22.88-4.58-12.81-3.66-26.54-1.83-40.27,6.4-34.77,23.79-64.06,47.59-89.69a24.42,24.42,0,0,1,5.49-4.58c6.41-5.49,11.9-5.49,17.39-1.83,5.49,4.58,7.32,10.07,4.58,17.39-.92,4.58-2.75,8.24-5.49,12.81-8.24,13.73-17.4,26.55-25.63,40.28a193.77,193.77,0,0,0-20.14,49.42c-.91,4.58-1.83,9.16-.91,13.73.91,10.07,7.32,14.64,17.39,13.72,8.23-.91,15.56-3.65,22.88-7.31,34.78-16.48,60.4-42.11,78.71-76a94,94,0,0,0,6.41-13.73c4.57-7.32,6.4-15.56,3.66-24.71-2.75-6.41-.92-12.81,1.83-19.22.91-2.75,3.66-5.49,6.4-4.58,3.66,0,5.49,2.75,6.41,5.5,1.83,4.57,2.75,10.06.92,14.64-5.5,14.65,2.74,22,12.81,28.37a246.94,246.94,0,0,0,27.46,11.9,263.42,263.42,0,0,0,60.4,12.82c14.64.91,29.29-1.84,43.93-2.75A305.43,305.43,0,0,0,2888.34,612.54Z"/><path class="cls-1" d="M3005.5,585.08c-1.83-1.83,0-3.66.91-6.41,3.66-11.89-1.83-19.22-13.73-21-9.15-.91-17.39,1.83-24.71,5.49-22.88,11-41.19,27.46-56.74,47.6-9.16,13.72-17.39,28.37-18.31,44.84,0,1.83-.91,3.66-.91,5.5.91,13.73,5.49,18.3,19.22,18.3,9.15,0,17.38-2.75,24.71-6.41,17.39-8.24,33.86-18.3,43-36.61.92-1.83,2.75-3.66,2.75-5.49,2.75-5.49.91-8.23-5.49-9.15h-14.65c-2.74,0-4.57-.91-7.32-1.83-5.49-2.75-6.41-7.32-.91-11,8.23-7.33,23.79-7.33,32-.92a20.7,20.7,0,0,0,13.73,4.58c45.76-.92,90.61-.92,135.46-2.75,12.81,0,24.71-.91,37.52-.91,2.75,0,7.32-.92,7.32,3.66.92,3.66-4.57,3.66-7.32,3.66a65.19,65.19,0,0,1-12.81.91l-89.7,2.75c-22,.92-43.93,2.75-66.81,1.83-5.49,0-8.24,1.83-10.07,7.32-1.83,10.07-7.32,18.31-13.73,26.54-11.9,12.81-25.62,23.8-41.18,31.12-14.65,6.4-31.12,10.07-47.59,4.58-12.82-3.66-20.14-11.9-23.8-23.8-6.41-23.8-.92-45.76,12.81-65.9,9.15-13.73,20.14-25.63,33.87-34.77,18.3-11.9,36.61-21.06,58.57-23.8,12.82-1.83,24.71.92,35.7,10.07,9.15,8.23,9.15,23.79,0,32C3007.33,586,3006.41,585.08,3005.5,585.08Z"/></g></g></svg>