<svg xmlns="http://www.w3.org/2000/svg" viewBox="0 0 82.52 9.22"><defs><style>.cls-1{fill:#c36d15;}</style></defs><g id="Capa_2" data-name="Capa 2"><g id="Capa_1-2" data-name="Capa 1"><path class="cls-1" d="M1.19.58H2.38L4.48,7.7,8.57.58H9.7L8.51,9.07H7.72l1-7.49h0L4.45,9.07H4.1L1.86,1.58h0l-1,7.49H0Z"/><path class="cls-1" d="M10.62,6.3A3.35,3.35,0,0,1,11,5.13a3.3,3.3,0,0,1,.73-.92,3.14,3.14,0,0,1,1-.61,3.45,3.45,0,0,1,1.2-.22,2.9,2.9,0,0,1,1.14.22,2.17,2.17,0,0,1,.84.61,2.14,2.14,0,0,1,.48.92,3,3,0,0,1,.05,1.17,3.57,3.57,0,0,1-.38,1.17,3.3,3.3,0,0,1-.73.92,3.37,3.37,0,0,1-1,.61,3.45,3.45,0,0,1-1.2.22A3,3,0,0,1,12,9a2.17,2.17,0,0,1-.84-.61,2.24,2.24,0,0,1-.47-.92A2.84,2.84,0,0,1,10.62,6.3Zm.72,0a2.35,2.35,0,0,0,0,.88,1.85,1.85,0,0,0,.34.72,1.67,1.67,0,0,0,.62.49,2.11,2.11,0,0,0,.89.18,2.51,2.51,0,0,0,2.24-1.39,2.92,2.92,0,0,0,.28-.88,2.35,2.35,0,0,0,0-.88,1.85,1.85,0,0,0-.34-.72,1.67,1.67,0,0,0-.62-.49A2.08,2.08,0,0,0,13.86,4a2.42,2.42,0,0,0-.94.18,2.54,2.54,0,0,0-.76.49,2.43,2.43,0,0,0-.54.72A2.92,2.92,0,0,0,11.34,6.3Z"/><path class="cls-1" d="M22.66,8.1h0a2.28,2.28,0,0,1-.48.5,3.61,3.61,0,0,1-.6.35,3.23,3.23,0,0,1-.65.2,3.68,3.68,0,0,1-.64.07A3,3,0,0,1,19.11,9a2.17,2.17,0,0,1-.84-.61,2.24,2.24,0,0,1-.47-.92,2.68,2.68,0,0,1-.05-1.17,3.16,3.16,0,0,1,.38-1.17,3.3,3.3,0,0,1,.73-.92,3.14,3.14,0,0,1,1-.61,3.45,3.45,0,0,1,1.2-.22,3.38,3.38,0,0,1,.63.07,2.57,2.57,0,0,1,.59.2,2.24,2.24,0,0,1,.5.35,1.8,1.8,0,0,1,.35.5h0L23.8,0h.72L23.24,9.07h-.72ZM23,6.3a2,2,0,0,0-.05-.88,1.8,1.8,0,0,0-.39-.72,1.9,1.9,0,0,0-.66-.49A2.14,2.14,0,0,0,21,4a2.51,2.51,0,0,0-2.24,1.39,2.92,2.92,0,0,0-.28.88,2.35,2.35,0,0,0,0,.88,1.85,1.85,0,0,0,.34.72,1.67,1.67,0,0,0,.62.49,2.08,2.08,0,0,0,.89.18,2.5,2.5,0,0,0,.94-.18,2.78,2.78,0,0,0,.81-.49,2.55,2.55,0,0,0,.58-.72A2.5,2.5,0,0,0,23,6.3Z"/><path class="cls-1" d="M30.05,8a3.11,3.11,0,0,1-1.17.91,3.64,3.64,0,0,1-1.4.28A2.8,2.8,0,0,1,26.36,9a2.15,2.15,0,0,1-.81-.61,2.19,2.19,0,0,1-.44-.92,3.3,3.3,0,0,1,0-1.18,3.38,3.38,0,0,1,.37-1.15,3.2,3.2,0,0,1,.7-.92,3.26,3.26,0,0,1,1-.61,3,3,0,0,1,1.15-.23,2.44,2.44,0,0,1,1.09.23,2,2,0,0,1,.74.58,2,2,0,0,1,.38.84,2.53,2.53,0,0,1,0,1l-.07.5H25.78a1.86,1.86,0,0,0,0,.58,1.78,1.78,0,0,0,.24.69,1.6,1.6,0,0,0,.55.58,1.84,1.84,0,0,0,1,.24,2.58,2.58,0,0,0,1.11-.27,2.19,2.19,0,0,0,.89-.72Zm-.25-2.2a1.74,1.74,0,0,0-.05-.69,1.36,1.36,0,0,0-.33-.57,1.45,1.45,0,0,0-.55-.39A1.77,1.77,0,0,0,28.14,4a2,2,0,0,0-1,.24,2.91,2.91,0,0,0-.71.55,2.61,2.61,0,0,0-.41.61,1.94,1.94,0,0,0-.15.4Z"/><path class="cls-1" d="M33.07,0h.72L32.52,9.07H31.8Z"/><path class="cls-1" d="M34.63,6.3A3.35,3.35,0,0,1,35,5.13a3.49,3.49,0,0,1,.73-.92,3.14,3.14,0,0,1,1-.61A3.46,3.46,0,0,1,38,3.38a3,3,0,0,1,1.14.22,2.33,2.33,0,0,1,.84.61,2.24,2.24,0,0,1,.47.92,3,3,0,0,1,.05,1.17,3.57,3.57,0,0,1-.38,1.17,3.3,3.3,0,0,1-.73.92,3.25,3.25,0,0,1-1,.61,3.45,3.45,0,0,1-1.2.22A3,3,0,0,1,36,9a2.17,2.17,0,0,1-.84-.61,2.36,2.36,0,0,1-.47-.92A2.84,2.84,0,0,1,34.63,6.3Zm.72,0a2.15,2.15,0,0,0,0,.88,1.7,1.7,0,0,0,.33.72,1.63,1.63,0,0,0,.63.49,2,2,0,0,0,.88.18,2.51,2.51,0,0,0,2.24-1.39,2.67,2.67,0,0,0,.28-.88,2.35,2.35,0,0,0,0-.88,1.72,1.72,0,0,0-.34-.72,1.59,1.59,0,0,0-.62-.49A2.08,2.08,0,0,0,37.87,4a2.37,2.37,0,0,0-.93.18,2.47,2.47,0,0,0-.77.49,2.43,2.43,0,0,0-.54.72A2.92,2.92,0,0,0,35.35,6.3Z"/><path class="cls-1" d="M48,1.58h0L46.3,2.84l-.36-.55L48.28.58h.61L47.7,9.07H47Z"/><path class="cls-1" d="M54.26,1.58h0L52.54,2.84l-.36-.55L54.52.58h.61L53.94,9.07h-.72Z"/><path class="cls-1" d="M62.83,1.22h-3.5l-.41,2.7a2.29,2.29,0,0,1,.63-.19,4.72,4.72,0,0,1,.64,0,2.38,2.38,0,0,1,1.07.23,2,2,0,0,1,.74.6,2.32,2.32,0,0,1,.41.9,3.23,3.23,0,0,1,0,1.08A3.16,3.16,0,0,1,62,7.69a3,3,0,0,1-.77.85,3,3,0,0,1-.94.51,3.1,3.1,0,0,1-1,.17,2.64,2.64,0,0,1-1.51-.39,2.11,2.11,0,0,1-.83-1l.79-.38a1.6,1.6,0,0,0,.23.45,1.9,1.9,0,0,0,.37.38,2.19,2.19,0,0,0,.48.25,1.71,1.71,0,0,0,.55.09,1.83,1.83,0,0,0,.65-.13,2.26,2.26,0,0,0,.67-.38,2.31,2.31,0,0,0,.57-.63,2.15,2.15,0,0,0,.32-.89,2.06,2.06,0,0,0-.05-.86,1.83,1.83,0,0,0-.34-.7,1.67,1.67,0,0,0-.61-.47,1.83,1.83,0,0,0-.82-.18,2.86,2.86,0,0,0-.91.16,4.29,4.29,0,0,0-.86.42L58.73.58h4.2Z"/><path class="cls-1" d="M67.2,5.09c0-.11,0-.23,0-.38s0-.3,0-.45,0-.29,0-.43,0-.23,0-.3h.72q0,.32-.06.6a1.46,1.46,0,0,0,0,.37h0a2,2,0,0,1,.35-.43,2.15,2.15,0,0,1,.48-.36,2.44,2.44,0,0,1,.57-.24,2.37,2.37,0,0,1,.65-.09,1.68,1.68,0,0,1,1,.29,1.27,1.27,0,0,1,.53.91,2.21,2.21,0,0,1,.91-.91,2.54,2.54,0,0,1,1.14-.29,2.14,2.14,0,0,1,1,.21,1.28,1.28,0,0,1,.57.53,1.6,1.6,0,0,1,.21.76,4.44,4.44,0,0,1,0,.89L75,9.07h-.72l.46-3.26a3.69,3.69,0,0,0,0-.66,1.33,1.33,0,0,0-.13-.57,1,1,0,0,0-.36-.4A1.32,1.32,0,0,0,73.55,4a1.7,1.7,0,0,0-.85.19,1.83,1.83,0,0,0-.59.47,2.45,2.45,0,0,0-.36.63,3.24,3.24,0,0,0-.16.63l-.43,3.12h-.72l.47-3.33A2.28,2.28,0,0,0,70.8,4.5.8.8,0,0,0,70,4a2.23,2.23,0,0,0-.77.14,1.89,1.89,0,0,0-.67.42,2.4,2.4,0,0,0-.51.71,3.46,3.46,0,0,0-.3,1l-.38,2.77h-.72Z"/><path class="cls-1" d="M76.51,8.23l3.67-3.37.5-.46c.16-.17.32-.34.46-.52a3.41,3.41,0,0,0,.36-.57,1.78,1.78,0,0,0,.21-.65,1.33,1.33,0,0,0-.33-1.16,1.55,1.55,0,0,0-1.15-.42,1.93,1.93,0,0,0-1.17.38,2.1,2.1,0,0,0-.72,1l-.83-.08A2.72,2.72,0,0,1,78.62.92,3.13,3.13,0,0,1,80.36.43a2.73,2.73,0,0,1,.92.15A2,2,0,0,1,82,1a1.56,1.56,0,0,1,.43.68,1.81,1.81,0,0,1,.07.91,3.08,3.08,0,0,1-.28.92,4.43,4.43,0,0,1-.51.79,4.94,4.94,0,0,1-.66.72l-.73.67-3,2.72h4.46l-.08.65H76.4Z"/></g></g></svg>