<svg xmlns="http://www.w3.org/2000/svg" viewBox="0 0 60.17 11.95"><defs><style>.cls-1{fill:#c36d15;}</style></defs><g id="Capa_2" data-name="Capa 2"><g id="Capa_1-2" data-name="Capa 1"><path class="cls-1" d="M1.19.58H3.64a4.16,4.16,0,0,1,.91.1A2.26,2.26,0,0,1,5.39,1,1.61,1.61,0,0,1,6,1.72a2,2,0,0,1,.1,1.1,2.58,2.58,0,0,1-.35,1,2.42,2.42,0,0,1-.66.69,2.88,2.88,0,0,1-.87.4,3.64,3.64,0,0,1-1,.13H1.36l-.57,4H0Zm.26,3.74h1.8a3,3,0,0,0,.67-.08A1.88,1.88,0,0,0,4.54,4,1.71,1.71,0,0,0,5,3.53a1.67,1.67,0,0,0,.26-.71,1.33,1.33,0,0,0-.06-.7,1.12,1.12,0,0,0-.36-.47,1.57,1.57,0,0,0-.55-.27,2.48,2.48,0,0,0-.66-.08H1.88Z"/><path class="cls-1" d="M7.24,5.09c0-.11,0-.23,0-.38s0-.3,0-.45l0-.43q0-.19,0-.3h.72a5.54,5.54,0,0,1-.06.6A1.86,1.86,0,0,0,8,4.5a2.83,2.83,0,0,1,.82-.8A2,2,0,0,1,10,3.38a1.56,1.56,0,0,1,.41.06l-.18.71a.86.86,0,0,0-.27-.05,2.16,2.16,0,0,0-.83.15,1.89,1.89,0,0,0-.62.42A1.79,1.79,0,0,0,8,5.29a3,3,0,0,0-.22.76l-.42,3H6.68Z"/><path class="cls-1" d="M11.57,3.53h.72l-.77,5.54H10.8Zm.13-2.2A.58.58,0,0,1,11.91,1a.57.57,0,0,1,.4-.16.46.46,0,0,1,.47.54.62.62,0,0,1-.2.39.63.63,0,0,1-.41.15.46.46,0,0,1-.36-.15A.49.49,0,0,1,11.7,1.33Z"/><path class="cls-1" d="M13.55,3.53h.81l1.19,4.76L18,3.53h.73L15.79,9.07h-.74Z"/><path class="cls-1" d="M20,3.53h.72L20,9.07h-.72Zm.14-2.2A.58.58,0,0,1,20.35,1a.54.54,0,0,1,.4-.16.44.44,0,0,1,.36.16.4.4,0,0,1,.1.38.57.57,0,0,1-.2.39.63.63,0,0,1-.41.15.46.46,0,0,1-.36-.15A.53.53,0,0,1,20.14,1.33Z"/><path class="cls-1" d="M23.39,0h.72L22.83,9.07h-.71Z"/><path class="cls-1" d="M29.92,8a3.11,3.11,0,0,1-1.17.91,3.68,3.68,0,0,1-1.4.28A2.85,2.85,0,0,1,26.22,9a2.11,2.11,0,0,1-.8-.61A2.19,2.19,0,0,1,25,7.47a2.9,2.9,0,0,1,0-1.18,3.16,3.16,0,0,1,.36-1.15A3.43,3.43,0,0,1,26,4.22a3,3,0,0,1,1-.61,3,3,0,0,1,1.15-.23,2.44,2.44,0,0,1,1.09.23,2,2,0,0,1,.74.58,2.29,2.29,0,0,1,.38.84,2.53,2.53,0,0,1,0,1l-.07.5H25.64a2.29,2.29,0,0,0,0,.58,1.76,1.76,0,0,0,.23.69,1.72,1.72,0,0,0,.56.58,1.8,1.8,0,0,0,1,.24,2.52,2.52,0,0,0,1.11-.27,2.29,2.29,0,0,0,.9-.72Zm-.26-2.2a1.58,1.58,0,0,0,0-.69,1.54,1.54,0,0,0-.89-1A1.72,1.72,0,0,0,28,4a2.08,2.08,0,0,0-1,.24,2.85,2.85,0,0,0-.7.55,2.61,2.61,0,0,0-.41.61,1.94,1.94,0,0,0-.15.4Z"/><path class="cls-1" d="M37.16,8.71a4.06,4.06,0,0,1-.54,1.67,3.39,3.39,0,0,1-.88,1,2.8,2.8,0,0,1-1,.47,4.41,4.41,0,0,1-1,.12,3.92,3.92,0,0,1-1.54-.3,2.32,2.32,0,0,1-1.05-.86l.65-.53a1.83,1.83,0,0,0,.84.79,2.76,2.76,0,0,0,1.19.25,2.72,2.72,0,0,0,.95-.14,2.17,2.17,0,0,0,.67-.38,2.24,2.24,0,0,0,.47-.51,3,3,0,0,0,.28-.57,3.06,3.06,0,0,0,.15-.53c0-.17.06-.31.07-.41L36.54,8h0a2.6,2.6,0,0,1-.95.79,3,3,0,0,1-2.41.07,2.39,2.39,0,0,1-1.37-1.52,2.51,2.51,0,0,1-.08-1.1,3.2,3.2,0,0,1,.39-1.11,3.86,3.86,0,0,1,.76-.9,4,4,0,0,1,1-.61,3.22,3.22,0,0,1,1.18-.23,2.42,2.42,0,0,1,1.22.29,1.85,1.85,0,0,1,.73.79h0l.13-.93h.72Zm-.35-2.48a2,2,0,0,0-.05-.86,1.88,1.88,0,0,0-.37-.7,1.83,1.83,0,0,0-.63-.46A1.9,1.9,0,0,0,34.93,4a2.23,2.23,0,0,0-.88.18,2.71,2.71,0,0,0-.77.46,2.58,2.58,0,0,0-.57.7,2.37,2.37,0,0,0-.29.86,2.06,2.06,0,0,0,.06.86,1.71,1.71,0,0,0,.37.69,1.88,1.88,0,0,0,1.46.64,2.22,2.22,0,0,0,.88-.17A2.89,2.89,0,0,0,36,7.78a2.73,2.73,0,0,0,.57-.69A2.42,2.42,0,0,0,36.81,6.23Z"/><path class="cls-1" d="M39.77,3.53h.72l-.77,5.54H39Zm.13-2.2A.58.58,0,0,1,40.11,1a.55.55,0,0,1,.4-.16.46.46,0,0,1,.47.54.67.67,0,0,1-.2.39.63.63,0,0,1-.41.15A.43.43,0,0,1,40,1.72.49.49,0,0,1,39.9,1.33Z"/><path class="cls-1" d="M46.39,6.74c0,.28-.07.52-.1.74s0,.41-.07.6,0,.35,0,.51,0,.32,0,.48H45.5V8.64c0-.15,0-.31,0-.47h0a2.36,2.36,0,0,1-.89.79,2.59,2.59,0,0,1-1.2.26,2.74,2.74,0,0,1-.7-.09,1.58,1.58,0,0,1-.58-.29,1.15,1.15,0,0,1-.38-.51,1.43,1.43,0,0,1-.07-.76,1.68,1.68,0,0,1,.47-1A2.52,2.52,0,0,1,43.06,6a3.66,3.66,0,0,1,1-.24,8.63,8.63,0,0,1,.95-.06h.84l0-.33a1,1,0,0,0-.3-1A1.71,1.71,0,0,0,44.57,4a2.85,2.85,0,0,0-1.79.63l-.35-.5a3.15,3.15,0,0,1,1.07-.58,3.81,3.81,0,0,1,1.15-.2,2.22,2.22,0,0,1,1.54.48,1.61,1.61,0,0,1,.39,1.53ZM45,6.29a6.54,6.54,0,0,0-.89.06,3.38,3.38,0,0,0-.79.2,2,2,0,0,0-.61.39,1,1,0,0,0-.29.6.85.85,0,0,0,0,.45.87.87,0,0,0,.24.32,1.23,1.23,0,0,0,.38.19,1.37,1.37,0,0,0,.45.07,2.55,2.55,0,0,0,1-.17,1.93,1.93,0,0,0,1-1.05,2.93,2.93,0,0,0,.18-.69l0-.37Z"/><path class="cls-1" d="M53,8.1h0a2.28,2.28,0,0,1-.48.5,3.61,3.61,0,0,1-.6.35,3.23,3.23,0,0,1-.65.2,3.68,3.68,0,0,1-.64.07A3,3,0,0,1,49.42,9a2.17,2.17,0,0,1-.84-.61,2.24,2.24,0,0,1-.47-.92,2.68,2.68,0,0,1,0-1.17,3.16,3.16,0,0,1,.38-1.17,3.3,3.3,0,0,1,.73-.92,3.14,3.14,0,0,1,1-.61,3.45,3.45,0,0,1,1.2-.22,3.38,3.38,0,0,1,.63.07,2.57,2.57,0,0,1,.59.2,2.24,2.24,0,0,1,.5.35,1.8,1.8,0,0,1,.35.5h0L54.11,0h.72L53.55,9.07h-.72Zm.32-1.8a2,2,0,0,0,0-.88,1.8,1.8,0,0,0-.39-.72,1.9,1.9,0,0,0-.66-.49A2.14,2.14,0,0,0,51.3,4a2.51,2.51,0,0,0-2.24,1.39,2.92,2.92,0,0,0-.28.88,2.35,2.35,0,0,0,0,.88,1.85,1.85,0,0,0,.34.72,1.67,1.67,0,0,0,.62.49,2.08,2.08,0,0,0,.89.18,2.5,2.5,0,0,0,.94-.18,2.78,2.78,0,0,0,.81-.49A2.55,2.55,0,0,0,53,7.18,2.5,2.5,0,0,0,53.29,6.3Z"/><path class="cls-1" d="M60,6.74c0,.28-.07.52-.1.74s-.05.41-.07.6,0,.35,0,.51,0,.32,0,.48h-.67a3.08,3.08,0,0,1,0-.43c0-.15,0-.31,0-.47h0A2.36,2.36,0,0,1,58.2,9a2.59,2.59,0,0,1-1.2.26,2.74,2.74,0,0,1-.7-.09,1.71,1.71,0,0,1-.59-.29,1.2,1.2,0,0,1-.37-.51,1.43,1.43,0,0,1-.07-.76,1.68,1.68,0,0,1,.47-1A2.52,2.52,0,0,1,56.62,6a3.66,3.66,0,0,1,1-.24,8.63,8.63,0,0,1,1-.06h.84l0-.33a1,1,0,0,0-.3-1A1.71,1.71,0,0,0,58.13,4a2.85,2.85,0,0,0-1.79.63L56,4.16a3.15,3.15,0,0,1,1.07-.58,3.81,3.81,0,0,1,1.15-.2,2.22,2.22,0,0,1,1.54.48,1.61,1.61,0,0,1,.39,1.53Zm-1.38-.45a6.54,6.54,0,0,0-.89.06,3.6,3.6,0,0,0-.8.2,2.07,2.07,0,0,0-.6.39,1,1,0,0,0-.29.6A.85.85,0,0,0,56,8a.77.77,0,0,0,.24.32,1.23,1.23,0,0,0,.38.19,1.37,1.37,0,0,0,.45.07,2.55,2.55,0,0,0,1-.17,1.93,1.93,0,0,0,1.05-1.05,2.93,2.93,0,0,0,.18-.69l0-.37Z"/></g></g></svg>