<svg xmlns="http://www.w3.org/2000/svg" viewBox="0 0 565.64 204.64"><defs><style>.cls-1{fill:#ca985a;}</style></defs><g id="Capa_2" data-name="Capa 2"><g id="Capa_1-2" data-name="Capa 1"><path class="cls-1" d="M37,200.82c11.2,0,20.6-2,30-4.4a328.2,328.2,0,0,0,34.4-11C137,172.22,172,158,207,143.22c5.2-2.4,10.6-4.6,25-11.2.8-.4,1.6-.6,2.4-1a1,1,0,0,1,1.4.6,1,1,0,0,1-.6,1.2c-.4.2-1,.6-1.4.8-17.6,8.2-26.2,12-34.8,15.6-24.8,10.8-49.8,21.2-75,31-14.8,5.8-29.6,11.6-44.6,16.4a174.61,174.61,0,0,1-30.2,7.2,64.64,64.64,0,0,1-24.8-.8c-14.8-3.6-22.79-15-24.2-28.4a67.28,67.28,0,0,1,3-26c3.81-12.6,9.8-24.2,16.61-35.4a242.47,242.47,0,0,1,27-37c17-19.4,36.2-36.8,58-51,13.8-8.8,28.2-16.2,44-21.2a93.89,93.89,0,0,1,22.6-4,45.27,45.27,0,0,1,18.4,3.2c7.4,3,12.6,8.2,14.6,16.2a30.14,30.14,0,0,1-.4,15.2,66.58,66.58,0,0,1-8.2,18,91.49,91.49,0,0,1-14.8,19,42.2,42.2,0,0,1-4.6,3.8l-1.2.6c-1.4.6-2.4.4-2.8-.6-.4-.8.4-2.4,1.6-2.8,1.6-.2,2.4-1.2,3.4-2.4,9-10.2,16.4-21.2,20.8-34.2a29.89,29.89,0,0,0,1.6-13.4c-.8-6.6-4.2-11.2-10.2-14.2a36.09,36.09,0,0,0-10.4-2.6c-9.6-1-19,1-28.2,3.8-13.8,4.2-26.4,10.8-38.6,18.4A265.39,265.39,0,0,0,72,59.22a281.74,281.74,0,0,0-45.2,53.4,183,183,0,0,0-17.2,32.8c-3.19,8.8-5.19,17.8-4.79,27.4.39,6.4,2,12.2,6,17.4a24.14,24.14,0,0,0,14,9A41.69,41.69,0,0,0,37,200.82Z"/><path class="cls-1" d="M260.64,125.42c-.4-.4,0-.8.2-1.4.8-2.6-.4-4.2-3-4.6a9.79,9.79,0,0,0-5.4,1.2A34.58,34.58,0,0,0,240,131c-2,3-3.8,6.2-4,9.8,0,.4-.2.8-.2,1.2.2,3,1.2,4,4.2,4a12,12,0,0,0,5.4-1.4c3.8-1.8,7.4-4,9.4-8,.2-.4.6-.8.6-1.2.6-1.2.2-1.8-1.2-2H251a4.71,4.71,0,0,1-1.6-.4c-1.2-.6-1.4-1.6-.2-2.4a6,6,0,0,1,7-.2,4.52,4.52,0,0,0,3,1c10-.2,19.8-.2,29.6-.6,2.8,0,5.4-.2,8.2-.2.6,0,1.6-.2,1.6.8.2.8-1,.8-1.6.8a14.17,14.17,0,0,1-2.8.2l-19.6.6c-4.8.2-9.6.6-14.6.4a2,2,0,0,0-2.2,1.6,13.46,13.46,0,0,1-3,5.8,29.73,29.73,0,0,1-9,6.8c-3.2,1.4-6.8,2.2-10.4,1a7.21,7.21,0,0,1-5.2-5.2c-1.4-5.2-.2-10,2.8-14.4a26.79,26.79,0,0,1,7.4-7.6c4-2.6,8-4.6,12.8-5.2a9.5,9.5,0,0,1,7.8,2.2,4.83,4.83,0,0,1,0,7C261,125.62,260.84,125.42,260.64,125.42Z"/><path class="cls-1" d="M294,143a2,2,0,0,0,1.4-1,142.94,142.94,0,0,1,34.2-25.6c1.6-.8,3.4-1.6,5.2-2.6a13.78,13.78,0,0,0,1.6-.6c3.8-.8,6.2,1.6,5.6,5.2a20.94,20.94,0,0,1-2.4,5.8,114.33,114.33,0,0,1-6.4,9.6,37.5,37.5,0,0,0-4.8,7.6,8.39,8.39,0,0,0-.8,3.2c0,1.2.6,1.8,1.6,1.8a10.92,10.92,0,0,0,3.6-.2,52.63,52.63,0,0,0,8.4-3.4c7.8-3.6,15.6-7.2,22.6-12,.2-.2.4-.2.6-.4.4-.2.8-.4,1,0,.4.4,0,.8-.4,1.2a6.08,6.08,0,0,0-1.4,1,82.68,82.68,0,0,1-11.6,6.6,131.77,131.77,0,0,1-15,7.6c-2.4.8-4.6,1.8-7.2,1.6-3.6,0-5.6-2.2-5.4-5.6a24.21,24.21,0,0,1,2.6-8.4c1.8-3.4,4-6.6,6-10,1-1.6,2-3,2.8-4.6a5.89,5.89,0,0,0,1-2.6c-1.2-.2-2,.4-2.8.6a101.94,101.94,0,0,0-15.4,8,135.28,135.28,0,0,0-29.6,25.8,14.92,14.92,0,0,0-1.4,2.4c-.4.8-.8,1.6-2,1.2q-1.2-.6-.6-2.4a31.74,31.74,0,0,1,1.4-4c2.4-4.6,5.2-9.2,8-13.6,3.6-5.6,7.2-11.2,11-16.6l1.8-2.4a2.27,2.27,0,0,1,3.2-.4,2.21,2.21,0,0,1,.8,3,10.74,10.74,0,0,1-2,3.2c-2,2.8-4.2,5.4-6.2,8.2C299.84,134.22,297,138.42,294,143Z"/><path class="cls-1" d="M391.64,125.42c-.4-.4,0-.8.2-1.4.8-2.6-.4-4.2-3-4.6a9.79,9.79,0,0,0-5.4,1.2A34.58,34.58,0,0,0,371,131c-2,3-3.8,6.2-4,9.8,0,.4-.2.8-.2,1.2.2,3,1.2,4,4.2,4a12,12,0,0,0,5.4-1.4c3.8-1.8,7.4-4,9.4-8,.2-.4.6-.8.6-1.2.6-1.2.2-1.8-1.2-2H382a4.71,4.71,0,0,1-1.6-.4c-1.2-.6-1.4-1.6-.2-2.4a6,6,0,0,1,7-.2,4.52,4.52,0,0,0,3,1c10-.2,19.8-.2,29.6-.6,2.8,0,5.4-.2,8.2-.2.6,0,1.6-.2,1.6.8.2.8-1,.8-1.6.8a14.17,14.17,0,0,1-2.8.2l-19.6.6c-4.8.2-9.6.6-14.6.4a2,2,0,0,0-2.2,1.6,13.46,13.46,0,0,1-3,5.8,29.73,29.73,0,0,1-9,6.8c-3.2,1.4-6.8,2.2-10.4,1a7.21,7.21,0,0,1-5.2-5.2c-1.4-5.2-.2-10,2.8-14.4a26.79,26.79,0,0,1,7.4-7.6c4-2.6,8-4.6,12.8-5.2a9.5,9.5,0,0,1,7.8,2.2,4.83,4.83,0,0,1,0,7C392,125.62,391.84,125.42,391.64,125.42Z"/><path class="cls-1" d="M500.24,130.82c-.8,1-1.8,1-2.8,1.4-4.6,1.4-9.2,2.6-13.8,4.2-7.2,2.4-14.6,4.4-21.8,6.4a86.05,86.05,0,0,1-15.8,3.6c-3.6.2-7.4.6-10.8-.6-6.2-2-9.4-7-8.2-13.6a18.89,18.89,0,0,1,4-8c3.4-4.4,8-7.4,12.8-10a16.79,16.79,0,0,1,9.4-2.2,5.87,5.87,0,0,1,3.2.8c2,1,2.6,2.8,2,5-.8,3-2.8,4.8-5.2,6.4-.2.2-.2.2-.4.2h-.4c-.4-.6,0-.8.2-1.2a36.52,36.52,0,0,0,2.6-3.2,7.1,7.1,0,0,0,.8-1.8c.2-1.4-.6-2.2-1.8-1.8a17.6,17.6,0,0,0-3,1,44.85,44.85,0,0,0-11.2,8.2,45.69,45.69,0,0,0-5.8,6.6,10.44,10.44,0,0,0-1.6,6.8,4.54,4.54,0,0,0,2.2,3.2,16.45,16.45,0,0,0,11,2.2A149,149,0,0,0,465,140c11-3,22-6.4,33-9.4C498.64,130.62,499.24,130,500.24,130.82Z"/><path class="cls-1" d="M509.44,147.42a16.68,16.68,0,0,1-7-1.2,10.2,10.2,0,0,1-5.4-10.8c.4-4.6,2.6-8.4,5.4-12a31.53,31.53,0,0,1,14-10.4,12.29,12.29,0,0,1,8.8-.6c6.6,1.8,6.6,7.4,3.4,11.4-1.8,2.4-4.4,3.6-7.2,4.6-5.2,1.8-10.6,3.4-16.4,3a2,2,0,0,0-1.6,1,11.36,11.36,0,0,0-2.2,7.6c.4,2.6,2.2,3.8,4.6,4.6a21.67,21.67,0,0,0,8.8.2,126.23,126.23,0,0,0,17.2-4c7-2,14-4.2,20.8-6.6,3.4-1.2,7-2.4,10.6-3.6a4.71,4.71,0,0,1,1.6-.4c.4,0,.8-.2.8.4,0,.4-.2.6-.4.6-1.8.6-3.4,1.4-5.2,2l-18.6,6.6a71.6,71.6,0,0,1-7,2.2c-6.8,1.8-13.6,4-20.6,5.2A32.4,32.4,0,0,1,509.44,147.42Zm-4-17.8a7.07,7.07,0,0,1,1.2.2,53.37,53.37,0,0,0,16.6-4.2,14,14,0,0,0,3.4-2.6,5,5,0,0,0,1.2-4c-.2-1.4-.8-2.2-2.2-2.2a11.66,11.66,0,0,0-5.8,1.2,37.2,37.2,0,0,0-7,4.4A35.84,35.84,0,0,0,505.44,129.62Z"/></g></g></svg>