<svg xmlns="http://www.w3.org/2000/svg" viewBox="0 0 868.23 220.25"><defs><style>.cls-1{fill:#ca985a;}</style></defs><g id="Capa_2" data-name="Capa 2"><g id="Capa_1-2" data-name="Capa 1"><path class="cls-1" d="M37,200.82c11.2,0,20.6-2,30-4.4a328.2,328.2,0,0,0,34.4-11C137,172.22,172,158,207,143.22c5.2-2.4,10.6-4.6,25-11.2.8-.4,1.6-.6,2.4-1a1,1,0,0,1,1.4.6,1,1,0,0,1-.6,1.2c-.4.2-1,.6-1.4.8-17.6,8.2-26.2,12-34.8,15.6-24.8,10.8-49.8,21.2-75,31-14.8,5.8-29.6,11.6-44.6,16.4a174.61,174.61,0,0,1-30.2,7.2,64.64,64.64,0,0,1-24.8-.8c-14.8-3.6-22.79-15-24.2-28.4a67.28,67.28,0,0,1,3-26c3.81-12.6,9.8-24.2,16.61-35.4a242.47,242.47,0,0,1,27-37c17-19.4,36.2-36.8,58-51,13.8-8.8,28.2-16.2,44-21.2a93.89,93.89,0,0,1,22.6-4,45.27,45.27,0,0,1,18.4,3.2c7.4,3,12.6,8.2,14.6,16.2a30.14,30.14,0,0,1-.4,15.2,66.58,66.58,0,0,1-8.2,18,91.49,91.49,0,0,1-14.8,19,42.2,42.2,0,0,1-4.6,3.8l-1.2.6c-1.4.6-2.4.4-2.8-.6-.4-.8.4-2.4,1.6-2.8,1.6-.2,2.4-1.2,3.4-2.4,9-10.2,16.4-21.2,20.8-34.2a29.89,29.89,0,0,0,1.6-13.4c-.8-6.6-4.2-11.2-10.2-14.2a36.09,36.09,0,0,0-10.4-2.6c-9.6-1-19,1-28.2,3.8-13.8,4.2-26.4,10.8-38.6,18.4A265.39,265.39,0,0,0,72,59.22a281.74,281.74,0,0,0-45.2,53.4,183,183,0,0,0-17.2,32.8c-3.19,8.8-5.19,17.8-4.79,27.4.39,6.4,2,12.2,6,17.4a24.14,24.14,0,0,0,14,9A41.69,41.69,0,0,0,37,200.82Z"/><path class="cls-1" d="M260.64,125.42c-.4-.4,0-.8.2-1.4.8-2.6-.4-4.2-3-4.6a9.79,9.79,0,0,0-5.4,1.2A34.58,34.58,0,0,0,240,131c-2,3-3.8,6.2-4,9.8,0,.4-.2.8-.2,1.2.2,3,1.2,4,4.2,4a12,12,0,0,0,5.4-1.4c3.8-1.8,7.4-4,9.4-8,.2-.4.6-.8.6-1.2.6-1.2.2-1.8-1.2-2H251a4.71,4.71,0,0,1-1.6-.4c-1.2-.6-1.4-1.6-.2-2.4a6,6,0,0,1,7-.2,4.52,4.52,0,0,0,3,1c10-.2,19.8-.2,29.6-.6,2.8,0,5.4-.2,8.2-.2.6,0,1.6-.2,1.6.8.2.8-1,.8-1.6.8a14.17,14.17,0,0,1-2.8.2l-19.6.6c-4.8.2-9.6.6-14.6.4a2,2,0,0,0-2.2,1.6,13.46,13.46,0,0,1-3,5.8,29.73,29.73,0,0,1-9,6.8c-3.2,1.4-6.8,2.2-10.4,1a7.21,7.21,0,0,1-5.2-5.2c-1.4-5.2-.2-10,2.8-14.4a26.79,26.79,0,0,1,7.4-7.6c4-2.6,8-4.6,12.8-5.2a9.5,9.5,0,0,1,7.8,2.2,4.83,4.83,0,0,1,0,7C261,125.62,260.84,125.42,260.64,125.42Z"/><path class="cls-1" d="M411.64,68.82c-1.2-.6-1.8.2-2.4.8-2,2-3.8,4-5.6,6-5.2,5.6-10.2,11.2-15.6,16.8-10.6,11.2-21.2,22.4-32,33.4-6,6-12.2,12-18.6,17.4a41.25,41.25,0,0,1-7.4,4.6,9,9,0,0,1-3.8,1,5,5,0,0,1-5-3.4,7.87,7.87,0,0,1,0-4.8,29.28,29.28,0,0,1,3.6-9,82.92,82.92,0,0,1,7-11.4,9.88,9.88,0,0,0,1.6-3.6,5.87,5.87,0,0,0-3.2.8,73.19,73.19,0,0,0-20.8,14c-4.8,4.4-9.2,9.2-13.8,13.6a2.28,2.28,0,0,1-4-1,4.88,4.88,0,0,1,0-2.4c.4-.8.6-1.6,1-2.4a143.46,143.46,0,0,1,16.2-25.8,18,18,0,0,1,2-1.8,3.08,3.08,0,0,1,4,.4c1,1,1,2.2.2,3.6a79,79,0,0,1-5.2,7,126.74,126.74,0,0,0-11.4,15.8,2,2,0,0,0-.8,1.4c.8-.2,1.2-.8,1.8-1.4,4-4,8-8.2,12.2-11.8,5-4.2,10.2-8.4,16-11.4a22.13,22.13,0,0,1,5.4-2.4,4.86,4.86,0,0,1,6,5c.2,2-.8,3.8-1.8,5.6-2.6,4.2-5.2,8.6-7.8,12.8a38.25,38.25,0,0,0-3.2,6.4c-.4.8-.8,2,0,2.8.8.6,1.8,0,2.6-.2a31.14,31.14,0,0,0,5.6-3.2c5.4-3.8,10-8.2,14.8-12.6,11.4-11.2,22.4-22.6,33.4-34,5.2-5.4,10.2-10.6,15.2-16,2.8-3,5.6-5.8,8.4-8.8.4-.6,1-1,1-1.8a7.62,7.62,0,0,0-3-.2,90.41,90.41,0,0,1-10.4.4,22.47,22.47,0,0,1-6.4-.6,5.83,5.83,0,0,0-5.4.8,2.42,2.42,0,0,1-2,.6,1.1,1.1,0,0,1-1.2-.8.73.73,0,0,1,.4-1c2.6-1.4,5.2-3,8.2-1.8a22.37,22.37,0,0,0,7.2,1,106.21,106.21,0,0,0,13.8-.6,3.31,3.31,0,0,0,2.4-1c3-3.2,6.2-6.4,9.2-9.6.6-.8,1.2-1.8,1.8-2.6,5-7.8,10.2-15.4,15.4-23a89.55,89.55,0,0,1,6.4-8.8,12.94,12.94,0,0,1,1.6-1.8,1.21,1.21,0,0,1,1.6,0c.6.4,1,1,.6,1.6a7.39,7.39,0,0,1-1.4,2.8c-4.6,6.8-9,13.8-13.6,20.6l-12,18.6c-.6.8-1.6,1.6-1,2.4.4.8,1.6.4,2.4.4,20.6-.4,41.4-.6,62-.2,21.6.4,43.4,0,65,.2,7,0,14,.4,20.8.4a27.61,27.61,0,0,1,4,.6c.6,0,1,.4.8,1,0,.4-.4.6-1,.6a1.28,1.28,0,0,1-1.2,0,67.62,67.62,0,0,0-9-.2c-18.8,0-37.8-.2-56.6.2-20.6.2-41.2.4-62,0-8.2,0-16.4-.2-24.4-.4a5,5,0,0,0-4.8,2.6c-10,15.8-20.2,31.4-30.2,47.2-14.8,23.4-29.6,46.6-44,70.2-4.8,7.8-9.4,15.6-14.4,23.2-1.6,2.2-3.2,4.4-4.8,6.4a2.76,2.76,0,0,1-.6.8c-.8,1-1.6,1.2-2.4.8-.8-1-.2-1.6.2-2.4,6.4-8.4,11.6-17.4,16.8-26.4,16.4-27.4,33.4-54.4,50.2-81.4,8-12.8,16.2-25.8,24.4-38.6A3.81,3.81,0,0,0,411.64,68.82Z"/><path class="cls-1" d="M431.44,128.82c-2.8,2.4-5.4,4.8-8,7.2a105.72,105.72,0,0,1-11.8,9.4,14.9,14.9,0,0,1-4.8,2.2c-5.2,1.4-9.6-2.4-8.8-7.8a18.35,18.35,0,0,1,2.6-7.2,39.47,39.47,0,0,1,14.8-15,21,21,0,0,1,11.4-2.8,8.2,8.2,0,0,1,8.4,6.2c.4,1.2.4,2.4,2.2,2.2,1,0,1.4,1,1.2,2-.2.6-.6,1.2-.8,1.8a47.4,47.4,0,0,0-3.8,7,13.62,13.62,0,0,0-1.4,5.6,3.73,3.73,0,0,0,3,4,16.27,16.27,0,0,0,6.2.4,60.43,60.43,0,0,0,10.4-2.4c10.8-3,21.4-6.8,32-10.6a3.1,3.1,0,0,1,2.4-.4c-.4,1-1.4,1.2-2.2,1.4-3.6,1.4-7.4,2.8-11.2,4.2-8.4,3-16.8,6.2-25.6,8.4-3.8,1-7.6,1.8-11.4,1.2-4.6-.8-6.8-3.2-6.8-7.8a17.05,17.05,0,0,1,1.6-7,8.36,8.36,0,0,1,.8-2A.7.7,0,0,1,431.44,128.82ZM405.24,145a5.09,5.09,0,0,0,3.4-.8,37,37,0,0,0,6.6-4.2c5.6-4.4,11-9,16.6-13.2.6-.4,1-.8,1.6-1.2a1.82,1.82,0,0,0,.6-1.4,5.87,5.87,0,0,0-5.8-5.4,19.51,19.51,0,0,0-9.8,3.6c-5.4,3.4-9.4,8.2-13,13.4a40,40,0,0,0-2,4.2,6.39,6.39,0,0,0-.6,2.8C402.84,144.42,403.64,145,405.24,145Zm13.6-37.8a1.4,1.4,0,0,1-1.4-1.8,3.81,3.81,0,0,1,1-2A28.76,28.76,0,0,1,424,98a140.92,140.92,0,0,1,14-10.4,27.93,27.93,0,0,1,3.4-1.8c1.2-.4,2.2-.2,2.4.6.4,1-.4,1.4-1,2a149.31,149.31,0,0,0-15.4,11.8c-2.2,1.8-4.4,3.8-6.4,5.6A6.75,6.75,0,0,1,418.84,107.22Z"/><path class="cls-1" d="M557,130.82c-.8,1-1.8,1-2.8,1.4-4.6,1.4-9.2,2.6-13.8,4.2-7.2,2.4-14.6,4.4-21.8,6.4a86.05,86.05,0,0,1-15.8,3.6c-3.6.2-7.4.6-10.8-.6-6.2-2-9.4-7-8.2-13.6a18.89,18.89,0,0,1,4-8c3.4-4.4,8-7.4,12.8-10A16.79,16.79,0,0,1,510,112a5.87,5.87,0,0,1,3.2.8c2,1,2.6,2.8,2,5-.8,3-2.8,4.8-5.2,6.4-.2.2-.2.2-.4.2h-.4c-.4-.6,0-.8.2-1.2A36.52,36.52,0,0,0,512,120a7.1,7.1,0,0,0,.8-1.8c.2-1.4-.6-2.2-1.8-1.8a17.6,17.6,0,0,0-3,1,44.85,44.85,0,0,0-11.2,8.2,45.69,45.69,0,0,0-5.8,6.6,10.44,10.44,0,0,0-1.6,6.8,4.54,4.54,0,0,0,2.2,3.2,16.45,16.45,0,0,0,11,2.2,149,149,0,0,0,19.2-4.4c11-3,22-6.4,33-9.4C555.44,130.62,556,130,557,130.82Z"/><path class="cls-1" d="M595,75.22a5.11,5.11,0,0,0,2.4.2,103,103,0,0,1,11-.4c12.59-.4,25-.8,37.39-1,5.2-.2,10.4-.2,15.6-.4,13.8-.4,27.6-.6,41.4-1,4,0,7.8-.2,11.8-.2h1.6a.43.43,0,0,1,.4.4c0,.2-.2.4-.4.6a3.29,3.29,0,0,1-2,.4c-2.4.2-4.6.4-7,.4l-22.2.6c-10.8.2-21.6.6-32.4,1-9,.2-17.8.6-26.8.8-10.4.4-20.59.8-31,.8-1.6,0-2.2.8-3,2-5.6,8.8-11.2,17.4-16.8,26.2-13,20.4-25.6,40.8-37.8,61.6-8.4,14.2-16.8,28.6-25.2,42.8-1.8,2.8-3.8,5.6-5.6,8.4a3.11,3.11,0,0,1-1.2,1.6c-.6.2-1.2.4-1.6,0a1.25,1.25,0,0,1-.4-1.6,4.18,4.18,0,0,1,.8-1.2c5.8-9,11-18.6,16.4-28,14.6-25.4,29.2-50.4,44.6-75.2,6.8-11.2,13.8-22.2,20.8-33.4.4-.6,1.6-1.6,1-2.4-.4-.8-1.6-.4-2.6-.4h-37a8.81,8.81,0,0,1-3.2-.4c-.4,0-.8,0-.8-.6s.4-.6.8-.6c1.2,0,2.4-.2,3.6-.2,3.8-.2,29.6,0,33.4-.2,2,0,4.2-.2,6.2-.2a3.1,3.1,0,0,0,3-1.8c2.4-3.6,5-7.4,7.4-11,7.6-11.2,15.6-22.4,23.6-33.4.6-.6,1.19-1.4,1.79-2a1.49,1.49,0,0,1,1.8-.2c.6.4.6,1,.41,1.8a23.57,23.57,0,0,1-2,3.8c-4.81,7.2-9.6,14.2-14.4,21.2-4.4,6.6-8.8,13.2-13.2,19.6C595.44,74,594.84,74.42,595,75.22Z"/><path class="cls-1" d="M612.23,128.82c-2.8,2.4-5.4,4.8-8,7.2a105.72,105.72,0,0,1-11.8,9.4,14.9,14.9,0,0,1-4.8,2.2c-5.2,1.4-9.6-2.4-8.8-7.8a18.35,18.35,0,0,1,2.6-7.2,39.47,39.47,0,0,1,14.8-15,21,21,0,0,1,11.4-2.8A8.2,8.2,0,0,1,616,121c.4,1.2.4,2.4,2.2,2.2,1,0,1.4,1,1.2,2-.2.6-.6,1.2-.8,1.8a47.4,47.4,0,0,0-3.8,7,13.62,13.62,0,0,0-1.4,5.6,3.73,3.73,0,0,0,3,4,16.27,16.27,0,0,0,6.2.4,60.43,60.43,0,0,0,10.4-2.4c10.8-3,21.4-6.8,32-10.6a3.1,3.1,0,0,1,2.4-.4c-.4,1-1.4,1.2-2.2,1.4-3.6,1.4-7.4,2.8-11.2,4.2-8.4,3-16.8,6.2-25.6,8.4-3.8,1-7.6,1.8-11.4,1.2-4.6-.8-6.8-3.2-6.8-7.8a17.05,17.05,0,0,1,1.6-7,8.36,8.36,0,0,1,.8-2A.7.7,0,0,1,612.23,128.82ZM586,145a5.09,5.09,0,0,0,3.4-.8A37,37,0,0,0,596,140c5.6-4.4,11-9,16.6-13.2.6-.4,1-.8,1.6-1.2a1.82,1.82,0,0,0,.6-1.4,5.87,5.87,0,0,0-5.8-5.4,19.51,19.51,0,0,0-9.8,3.6c-5.4,3.4-9.4,8.2-13,13.4a40,40,0,0,0-2,4.2,6.39,6.39,0,0,0-.6,2.8C583.63,144.42,584.43,145,586,145Z"/><path class="cls-1" d="M662.63,143a2,2,0,0,0,1.4-1,142.94,142.94,0,0,1,34.2-25.6c1.6-.8,3.4-1.6,5.2-2.6a13.78,13.78,0,0,0,1.6-.6c3.8-.8,6.2,1.6,5.6,5.2a20.94,20.94,0,0,1-2.4,5.8,114.33,114.33,0,0,1-6.4,9.6,37.5,37.5,0,0,0-4.8,7.6,8.39,8.39,0,0,0-.8,3.2c0,1.2.6,1.8,1.6,1.8a10.92,10.92,0,0,0,3.6-.2,52.63,52.63,0,0,0,8.4-3.4c7.8-3.6,15.6-7.2,22.6-12,.2-.2.4-.2.6-.4.4-.2.8-.4,1,0,.4.4,0,.8-.4,1.2a6.08,6.08,0,0,0-1.4,1,82.68,82.68,0,0,1-11.6,6.6,131.77,131.77,0,0,1-15,7.6c-2.4.8-4.6,1.8-7.2,1.6-3.6,0-5.6-2.2-5.4-5.6a24.21,24.21,0,0,1,2.6-8.4c1.8-3.4,4-6.6,6-10,1-1.6,2-3,2.8-4.6a5.89,5.89,0,0,0,1-2.6c-1.2-.2-2,.4-2.8.6a101.94,101.94,0,0,0-15.4,8,135.28,135.28,0,0,0-29.6,25.8,14.92,14.92,0,0,0-1.4,2.4c-.4.8-.8,1.6-2,1.2q-1.2-.6-.6-2.4a31.74,31.74,0,0,1,1.4-4c2.4-4.6,5.2-9.2,8-13.6,3.6-5.6,7.2-11.2,11-16.6l1.8-2.4a2.27,2.27,0,0,1,3.2-.4,2.21,2.21,0,0,1,.8,3,10.74,10.74,0,0,1-2,3.2c-2,2.8-4.2,5.4-6.2,8.2C668.43,134.22,665.63,138.42,662.63,143Z"/><path class="cls-1" d="M760.23,125.42c-.4-.4,0-.8.2-1.4.8-2.6-.4-4.2-3-4.6a9.79,9.79,0,0,0-5.4,1.2,34.58,34.58,0,0,0-12.4,10.4c-2,3-3.8,6.2-4,9.8,0,.4-.2.8-.2,1.2.2,3,1.2,4,4.2,4a12,12,0,0,0,5.4-1.4c3.8-1.8,7.4-4,9.4-8,.2-.4.6-.8.6-1.2.6-1.2.2-1.8-1.2-2h-3.2a4.71,4.71,0,0,1-1.6-.4c-1.2-.6-1.4-1.6-.2-2.4a6,6,0,0,1,7-.2,4.52,4.52,0,0,0,3,1c10-.2,19.8-.2,29.6-.6,2.8,0,5.4-.2,8.2-.2.6,0,1.6-.2,1.6.8.2.8-1,.8-1.6.8a14.17,14.17,0,0,1-2.8.2l-19.6.6c-4.8.2-9.6.6-14.6.4a2,2,0,0,0-2.2,1.6,13.46,13.46,0,0,1-3,5.8,29.73,29.73,0,0,1-9,6.8c-3.2,1.4-6.8,2.2-10.4,1a7.21,7.21,0,0,1-5.2-5.2c-1.4-5.2-.2-10,2.8-14.4a26.79,26.79,0,0,1,7.4-7.6c4-2.6,8-4.6,12.8-5.2a9.5,9.5,0,0,1,7.8,2.2,4.83,4.83,0,0,1,0,7C760.63,125.62,760.43,125.42,760.23,125.42Z"/><path class="cls-1" d="M868.23,129.82c0,.8-.8.8-1.2,1a201.1,201.1,0,0,0-23.6,9.6c-7.6,3.6-15.2,7.2-22.6,11.2-2,1-2,1-1.6,3.4a9.28,9.28,0,0,1-2.4,7.4,13.86,13.86,0,0,1-5,4,36.4,36.4,0,0,1-13.8,3.8c-1.2,0-2.8.2-3.6-1.4-.6-1.4.6-2.6,1.6-3.4a74,74,0,0,1,12-8.8c1.6-1,3.2-1.8,4.8-2.8,1.2-.6,1.2-1,.2-2-1.8-1.4-3.6-2.8-5.4-4-2.6-1.8-5.2-3.2-7.4-5.2-.4-.4-1-.8-1.4-1.2-3.8-4.2-4.4-8.6-1.4-13.6a27.49,27.49,0,0,1,6.6-7c4.6-3.6,9.4-6.2,15-7.2a15,15,0,0,1,8.4.2c5.4,1.8,7,6.4,4.4,11.2a17.52,17.52,0,0,1-3.8,4.8c-.4.2-.8.6-1.4.2a1.23,1.23,0,0,1,.2-1.2,21.08,21.08,0,0,1,1.4-2.2,9.56,9.56,0,0,0,2-5.6,4.09,4.09,0,0,0-2.8-3.8,8.89,8.89,0,0,0-6-.4,30.59,30.59,0,0,0-18.4,11.8,16.53,16.53,0,0,0-1.4,2.6,6.13,6.13,0,0,0,1.4,7,38.2,38.2,0,0,0,6.4,4.8,37.67,37.67,0,0,1,7.2,6.6c1.4,1.4,1.4,1.4,3.2.6,11.6-6,23.4-11.6,35.6-16.6a98.56,98.56,0,0,1,10.8-3.8C867,129.62,867.63,129.22,868.23,129.82Zm-70,39.2a9.34,9.34,0,0,0,3.4-.6c4.2-1,8.2-2.2,11.4-5.2a7.19,7.19,0,0,0,2.6-7c-.2-1.2-.6-1.4-1.6-.8-5.8,3.4-11.6,6.8-16.8,11.2-.6.4-1.6,1-1.2,1.8C796.43,169.42,797.63,168.82,798.23,169Z"/></g></g></svg>