<svg xmlns="http://www.w3.org/2000/svg" viewBox="0 0 817.66 234.56"><defs><style>.cls-1{fill:#ca985a;}</style></defs><g id="Capa_2" data-name="Capa 2"><g id="Capa_1-2" data-name="Capa 1"><path class="cls-1" d="M108.27,93.11c-14,1.2-28,2.6-41.8,7,.4,1,1.2.8,1.8,1.2s1.2,1,.8,1.8a1.16,1.16,0,0,1-1.8.4,17.73,17.73,0,0,1-3.4-1.6c-1.8-.8-2-2.6-.6-4a13.9,13.9,0,0,1,5-2.8,80.08,80.08,0,0,1,13.2-3.4,150,150,0,0,1,23.2-2.8c2,0,4-.2,6-.4a2.78,2.78,0,0,0,2-1,39.84,39.84,0,0,1,2.4-3.8c13.6-20.8,28.6-41,44.2-60.6,3-3.8,6.19-7.6,9.4-11.4.19-.4.79-.8.79-1.6-.79-.6-1.79-.2-2.79-.2a545.36,545.36,0,0,0-59.8,8.8,346.11,346.11,0,0,0-52.8,15.2c-11.4,4.6-22.6,10-32.6,17.4a56.34,56.34,0,0,0-11.2,10.6c-5.2,6.6-7.2,13.8-5.4,22a25.32,25.32,0,0,0,3.6,8.6,69.33,69.33,0,0,0,28.2,25,27.16,27.16,0,0,0,11.8,3,6.42,6.42,0,0,0,2.8-.2c.6-.4,1-.4,1.4.2a1.21,1.21,0,0,1,0,1.6,5,5,0,0,1-2.8,1.2,16.35,16.35,0,0,1-5.4-.2,47.35,47.35,0,0,1-16.2-6.4,75.08,75.08,0,0,1-21.6-20.4c-3.8-5.2-6.4-11-6.6-17.8a26.52,26.52,0,0,1,3.6-15c3.2-5.6,7.8-10.2,12.6-14.2,8.8-7.2,18.6-12.4,28.6-16.8,19.4-8.6,39.6-14,60-18.4,9.8-2.2,19.4-3.8,29.2-5.2,8-1,15.8-2.2,23.8-2.8,5.2-.4,10.4-1,15.59-1.2a4.47,4.47,0,0,0,2.21-1,23.82,23.82,0,0,1,2.19-2.4,7.33,7.33,0,0,1,2-1.4,2.43,2.43,0,0,1,2.6.6c.8.6.6,1.4.2,2.2a.66.66,0,0,0,0,1,32.5,32.5,0,0,0,7.6-.2h2l18-.6c16.4-.4,32.8-.6,49.2-.4,7.6.2,15.2.2,22.8.4s15.2.6,22.8,1c10,.4,20,1,30,2.2,8,.8,15.8,1.6,23.4,3.8a26.85,26.85,0,0,1,6,2.4,5.47,5.47,0,0,1,2.6,2.6c.2.8.4,1.4-.4,1.8-.6.4-1,0-1.4-.4-1.8-2.2-4.2-2.8-6.6-3.6-6.4-1.6-12.8-2.2-19.4-3-8.6-1-17.4-1.4-26.2-2-3.4-.4-7-.4-10.6-.6-10.8-.4-21.4-.6-32.2-.6-5.2,0-10.4-.4-15.6-.2-11,.2-22,.2-33,.4-8,.2-15.8.4-23.8.8l-17.79,1.2a4,4,0,0,0-3,1.6c-14.2,18.2-27.8,36.6-41,55.4-4.8,6.6-9.2,13.4-13.8,20.2a3.77,3.77,0,0,0-.8,1.8,4.92,4.92,0,0,0,2.4.2h23.4c9,.2,18.19.8,27.19,1.6a131.23,131.23,0,0,1,17.4,2.8,26.41,26.41,0,0,1,9.2,3.8,5.39,5.39,0,0,1,1.6,1.4,1.18,1.18,0,0,1-.2,1.4c-.4.4-.8.6-1.2.4l-1.2-.6c-3.6-2.2-7.8-3.2-12-4a148.62,148.62,0,0,0-16.2-1.8c-16.39-1.4-32.79-1-49.19-.8-4.6.2-4.6.2-7.2,4.2q-12.9,19.8-24,40.8a295.05,295.05,0,0,0-15.2,33.4c-3,7.8-5.6,15.6-6.8,23.8a52.24,52.24,0,0,0-.2,15.8c1.2,6.6,4.4,11.8,11.4,14a24,24,0,0,0,6.6,1c6.2.2,12.2-1,18.2-2.6,9.8-2.6,19.2-6.6,28.6-10.8,13.4-5.8,26.6-12.4,39.6-19.2a708,708,0,0,0,66.19-38.8c5.6-3.8,11.2-7.6,23.6-17.4.4-.2.6-.6,1-.8.6-.2,1.2-.6,1.6,0,.6.6,0,1-.4,1.4-.6.6-1.2,1-1.8,1.6-12,9.2-16.8,12.8-22,16.4-13.2,8.8-26.8,17.2-40.4,25.2-15.6,9-31.2,17.6-47.39,25.4-13.4,6.6-27,13-41,18a94.32,94.32,0,0,1-20.6,5.2,39,39,0,0,1-13.6-.8,19.1,19.1,0,0,1-13.8-12.6,42.53,42.53,0,0,1-2-17.4c1.2-13.4,5.4-25.8,10.4-38.2,5.4-13.8,12.2-27,19.2-39.8,4.8-8.6,9.8-17,15.2-25.2A2.19,2.19,0,0,0,108.27,93.11Z"/><path class="cls-1" d="M370.26,72.31c-6.8.2-13.6.8-20.2.8-3.2-.2-6.4-.2-9.6-.2a16.66,16.66,0,0,1-4.4-.6c-.4-.2-1.2-.4-1-1.2.2-.6.8-.6,1.4-.4,4.6.6,9.2,0,13.6-.2,6.2-.2,12.4-.6,18.4-1,.4,0,.6-.2,1-.2,5.2.8,6.2-1.2,10-5.8a65.15,65.15,0,0,0,4.4-6.8c6.2-9.4,12.4-18.6,18.4-27.8,1.4-2,2.6-4.2,3.8-6.2,1-1.4,1.8-1.8,2.6-1.4,1,.6,1,1.4.4,3a51.67,51.67,0,0,1-3.8,7.4c-4.6,7.6-9.6,15-14.4,22.6-2.8,4.2-5.4,8.4-8.2,12.6a11.16,11.16,0,0,0-1,1.6,4.16,4.16,0,0,0,2.2.2c1,0,2-.2,3-.2,7.2,0,14.2-.4,21.2-.6,23.8-.6,47.6-.4,71.2-.2,8.6,0,17,.4,25.4.8a230.8,230.8,0,0,1,23.4,2l3,.6a1.12,1.12,0,0,1,1.2,1c-.2.8-.8.8-1.4.8-1.2-.2-2.4-.2-3.6-.4-7.4-1-15-1.4-22.4-1.8-22.4-1-44.8-.8-67.2-.8l-24.4.6c-8.2.2-16.4.4-24.6.8-2.6,0-5.2.2-7.8.4a2.6,2.6,0,0,0-2.4,1.6c-2.8,4.6-5.8,9.2-8.8,13.8-17.8,28-35.2,56.4-52.4,84.8-7.4,12.4-14.4,25-21.4,37.6-1,1.8-2,3.4-3,5.2a5.3,5.3,0,0,1-1,1.2,1.08,1.08,0,0,1-1.6.4,1.37,1.37,0,0,1-.6-1.8l.6-1.2c15.4-28.8,32-57,49-84.8,10.8-18,21.6-35.8,32.8-53.6a6.2,6.2,0,0,0,1.2-2.6,7.63,7.63,0,0,0-2.8,2.2c-4.2,4-8,8-12.2,11.8-19.2,18.6-38,37.2-57,56-3.8,4-8,7.6-12,11.4a12.07,12.07,0,0,0-1.6,1.6c-1,.8-1,1.4-.4,2.4a13.14,13.14,0,0,1,2.4,3.4,9.91,9.91,0,0,1,1.6,5.2,7.8,7.8,0,0,1-3.4,6.6,11.34,11.34,0,0,1-5.4,2.6,50.26,50.26,0,0,1-14.39,1.4,26.7,26.7,0,0,0-4,0c-.8.2-1.8.2-2.2-.8-.6-1,0-1.8.59-2.4a15,15,0,0,1,3.41-2.8,137.53,137.53,0,0,0,14.59-11.6c1.4-1.2,1.4-1.2,0-2.6-3.6-3.4-7.2-7-10.79-10.6a34.5,34.5,0,0,1-5.8-7.4c-4.41-7.8-3.8-15.4,1-22.6,6.4-10,15.79-15.8,27.19-18.4a27.62,27.62,0,0,1,13.4,0,17.16,17.16,0,0,1,6.8,3.6,10.46,10.46,0,0,1,3,9.2,22.71,22.71,0,0,1-2.8,8.8c-2.6,4.6-5.2,9-9,12.8a29.24,29.24,0,0,1-3.8,3.2,2.66,2.66,0,0,1-1.6.6c-.4.2-.6,0-.8-.2,0-.2,0-.6.2-.6a18.86,18.86,0,0,1,2-2,39.59,39.59,0,0,0,12.4-20,9.91,9.91,0,0,0,.4-3.4c0-4.4-1.8-7-6-8.2a22.22,22.22,0,0,0-9.6-.2c-10.8,1.8-19.4,7.4-26,16a18.33,18.33,0,0,0-3.81,11,16.36,16.36,0,0,0,2.41,9.2,47.7,47.7,0,0,0,7,8.4c2.41,2.6,5,5.2,7.4,7.6,1.6,1.6,1.8,1.6,3.2,0,4-3.6,7.8-7.2,11.6-11,11.2-10.8,22-21.8,33.2-32.6l36.6-35.4A10.94,10.94,0,0,0,370.26,72.31ZM269.07,174.91a43.17,43.17,0,0,0,10.19-1.4,22,22,0,0,0,5.4-2.4,5.06,5.06,0,0,0,2.2-4.4c.2-2.6-1.2-4.4-2.6-6-1.19-1.4-1.19-1.4-2.6-.2a112.55,112.55,0,0,1-13.8,10.4c-1,.8-1.79,1.4-2.79,2.2a.72.72,0,0,0-.4,1c0,.6.6.6,1,.6A20.51,20.51,0,0,0,269.07,174.91Z"/><path class="cls-1" d="M394.26,133.91c-2.8,2.4-5.4,4.8-8,7.2a105.72,105.72,0,0,1-11.8,9.4,14.9,14.9,0,0,1-4.8,2.2c-5.2,1.4-9.6-2.4-8.8-7.8a18.35,18.35,0,0,1,2.6-7.2,39.47,39.47,0,0,1,14.8-15,21,21,0,0,1,11.4-2.8,8.2,8.2,0,0,1,8.4,6.2c.4,1.2.4,2.4,2.2,2.2,1,0,1.4,1,1.2,2-.2.6-.6,1.2-.8,1.8a47.4,47.4,0,0,0-3.8,7,13.62,13.62,0,0,0-1.4,5.6,3.73,3.73,0,0,0,3,4,16.27,16.27,0,0,0,6.2.4,60.43,60.43,0,0,0,10.4-2.4c10.8-3,21.4-6.8,32-10.6a3.1,3.1,0,0,1,2.4-.4c-.4,1-1.4,1.2-2.2,1.4-3.6,1.4-7.4,2.8-11.2,4.2-8.4,3-16.8,6.2-25.6,8.4-3.8,1-7.6,1.8-11.4,1.2-4.6-.8-6.8-3.2-6.8-7.8a17.05,17.05,0,0,1,1.6-7,8.36,8.36,0,0,1,.8-2A.7.7,0,0,1,394.26,133.91Zm-26.2,16.2a5.09,5.09,0,0,0,3.4-.8,37,37,0,0,0,6.6-4.2c5.6-4.4,11-9,16.6-13.2.6-.4,1-.8,1.6-1.2a1.82,1.82,0,0,0,.6-1.4,5.87,5.87,0,0,0-5.8-5.4,19.51,19.51,0,0,0-9.8,3.6c-5.4,3.4-9.4,8.2-13,13.4a40,40,0,0,0-2,4.2,6.39,6.39,0,0,0-.6,2.8C365.66,149.51,366.46,150.11,368.06,150.11Zm13.6-37.8a1.4,1.4,0,0,1-1.4-1.8,3.81,3.81,0,0,1,1-2,28.76,28.76,0,0,1,5.6-5.4,140.92,140.92,0,0,1,14-10.4,27.93,27.93,0,0,1,3.4-1.8c1.2-.4,2.2-.2,2.4.6.4,1-.4,1.4-1,2a149.31,149.31,0,0,0-15.4,11.8c-2.2,1.8-4.4,3.8-6.4,5.6A6.75,6.75,0,0,1,381.66,112.31Z"/><path class="cls-1" d="M444.66,148.11a2,2,0,0,0,1.4-1,142.94,142.94,0,0,1,34.2-25.6c1.6-.8,3.4-1.6,5.2-2.6a13.78,13.78,0,0,0,1.6-.6c3.8-.8,6.2,1.6,5.6,5.2a20.94,20.94,0,0,1-2.4,5.8,114.33,114.33,0,0,1-6.4,9.6,37.5,37.5,0,0,0-4.8,7.6,8.39,8.39,0,0,0-.8,3.2c0,1.2.6,1.8,1.6,1.8a10.92,10.92,0,0,0,3.6-.2,52.63,52.63,0,0,0,8.4-3.4c7.8-3.6,15.6-7.2,22.6-12,.2-.2.4-.2.6-.4.4-.2.8-.4,1,0,.4.4,0,.8-.4,1.2a6.08,6.08,0,0,0-1.4,1,82.68,82.68,0,0,1-11.6,6.6,131.77,131.77,0,0,1-15,7.6c-2.4.8-4.6,1.8-7.2,1.6-3.6,0-5.6-2.2-5.4-5.6a24.21,24.21,0,0,1,2.6-8.4c1.8-3.4,4-6.6,6-10,1-1.6,2-3,2.8-4.6a5.89,5.89,0,0,0,1-2.6c-1.2-.2-2,.4-2.8.6a101.94,101.94,0,0,0-15.4,8,135.28,135.28,0,0,0-29.6,25.8,14.92,14.92,0,0,0-1.4,2.4c-.4.8-.8,1.6-2,1.2q-1.2-.6-.6-2.4a31.74,31.74,0,0,1,1.4-4c2.4-4.6,5.2-9.2,8-13.6,3.6-5.6,7.2-11.2,11-16.6l1.8-2.4a2.27,2.27,0,0,1,3.2-.4,2.21,2.21,0,0,1,.8,3,10.74,10.74,0,0,1-2,3.2c-2,2.8-4.2,5.4-6.2,8.2C450.46,139.31,447.66,143.51,444.66,148.11Z"/><path class="cls-1" d="M549.86,127.51c.6-.2.8-.8,1-1,3-5.4,6.4-10.4,9.8-15.4,4.8-7.4,9.8-14.6,14.8-22,2.2-3.4,4.6-6.6,6.6-10,3.6-5.4,7.6-10.8,11.4-16.2,3.6-5.6,7.8-10.8,11.8-16.2,1.8-2.6,3.4-5.4,5.4-7.8a22.92,22.92,0,0,1,4.4-4.4c1.2-.8,2.2-.8,2.8,0,.8.8.6,1.6,0,2.6a32.57,32.57,0,0,1-2.2,3.4c-2.6,3-4.8,6.2-7.2,9.4l-2.4,3c-6,7.8-11.6,15.6-17.2,23.6-4.2,6-8.4,12-12.6,18.2-5.2,7-9.8,14.4-14.8,21.6-3.6,5-6.8,10.2-10,15.2l-15,24c-4,6.8-8.4,13.4-12.6,20a8.55,8.55,0,0,1-1.8,2.6,1.35,1.35,0,0,1-2,.2c-.6-.4-.4-1.2-.2-1.8,1.2-1.6,2.4-3.2,3.4-4.8,3.2-5.4,6.4-11,9.8-16.4,4.2-6.8,8.4-13.8,12.4-20.6a4.56,4.56,0,0,0,1.2-2.4c-2.6,1.8-5,3.6-7.4,5.4-5.2,3.8-10.2,7.6-15.4,11.4a48,48,0,0,1-5.4,3.2,8.85,8.85,0,0,1-3,1c-3.8.6-6.6-1.8-6.4-5.6a26.19,26.19,0,0,1,1.2-5.4c2.4-6.4,6.6-11.4,11.8-15.6a36.93,36.93,0,0,1,11.2-6.4,17.79,17.79,0,0,1,7.2-.8,8,8,0,0,1,6.6,3.6C548.06,124.51,548.86,125.91,549.86,127.51Zm-34.4,22.6a9.53,9.53,0,0,0,3.6-1.2c2.2-1.4,4.4-2.8,6.4-4.2l19.8-13.2c2.6-1.8,2.6-2,.6-4.4-.2-.2-.4-.6-.6-.8a5.41,5.41,0,0,0-6.4-2,29.72,29.72,0,0,0-11.6,6.2,53.14,53.14,0,0,0-11.6,14.2,11.68,11.68,0,0,0-1.6,4.4C513.86,149.91,514.26,150.31,515.46,150.11Z"/><path class="cls-1" d="M715.66,61.31a13.61,13.61,0,0,0-3,.4c-5,1.4-9.8,3.4-14.6,5.2-16,6-31.4,12.8-47,19.8-3.8,1.8-7.6,3.6-11.4,5.6a16.35,16.35,0,0,0-4,2.4c-1.4,1.2-1.4,1.8-.2,3a34.82,34.82,0,0,1,2.8,2.4c3,2.6,5.4,5.4,6.2,9.4a18.71,18.71,0,0,1-.8,9.4c-5.4,13.2-13.8,23.6-26.6,30a18.74,18.74,0,0,1-6.4,2.2c-5,.8-8.4-2.8-7.6-7.8.4-3,1.8-5.6,3.2-8.2a9.18,9.18,0,0,0,1.4-2.8c-.6-.2-1,.4-1.4.6l-20.4,15a49.9,49.9,0,0,1-7,4.2,11.84,11.84,0,0,1-3.8,1,5.26,5.26,0,0,1-5.6-5.2,10.21,10.21,0,0,1,.6-4.2,31.14,31.14,0,0,1,3.2-5.6c5-7,11-12.8,18.6-16.6a15.38,15.38,0,0,1,8.4-2,11.17,11.17,0,0,1,9.4,5.2c1.2,1.4,1.2,1.4,2.8.4a17.3,17.3,0,0,1,2-1.4,2.26,2.26,0,0,1,2.2-.6,1.72,1.72,0,0,1,1.4,2.4,7,7,0,0,1-1,1.6c-2.4,4.2-5.2,8-7.4,12.4a17,17,0,0,0-1.8,4.4c-.6,2.8.2,3.6,2.8,3.2a21.42,21.42,0,0,0,5.4-1.8,52.64,52.64,0,0,0,25.2-26.2,16.89,16.89,0,0,0,1-10.4,11.7,11.7,0,0,0-2.8-4.8,30.13,30.13,0,0,0-4.6-4.2c-3.4-2.8-3.2-4.8.4-7.4a70.92,70.92,0,0,1,12.2-6.4c15.8-7.4,31.8-14.4,48.2-20.6,5.4-2.2,10.8-4.2,16.4-6a26.64,26.64,0,0,1,3.8-1c2.8-.2,4.2,1.6,3.2,4.2a18.63,18.63,0,0,1-3.6,5.2c-5.6,6.8-11.4,13.4-17,20.2a465,465,0,0,0-29.6,39c-15.2,21.8-29.4,44.4-42.8,67.2-5.2,8.6-10,17.2-14.4,26.2a70.47,70.47,0,0,0-3.6,7.8,8,8,0,0,0-.6,4.8c0,.8,0,1.4-.8,1.6a1.5,1.5,0,0,1-1.8-.8,3.61,3.61,0,0,1-.4-2,20,20,0,0,1,1.2-5.8,164.31,164.31,0,0,1,8.6-18q24.6-44.4,53.2-86.6a414.18,414.18,0,0,1,31.4-40.6c4.8-5.6,9.6-10.8,14.4-16.2A9.63,9.63,0,0,0,715.66,61.31Zm-107.8,66.6a3,3,0,0,0-.6-1.4,7.44,7.44,0,0,0-6.4-2.6,17.17,17.17,0,0,0-7,2.4,58.1,58.1,0,0,0-17.4,16.8,13.26,13.26,0,0,0-1.8,3.8c-.2.4-.4,1.2,0,1.6.6.6,1.2.2,1.6,0a24.47,24.47,0,0,0,6.8-3.6c5.8-3.6,11.4-7.4,17-11.2,2.2-1.6,4.4-3,6.6-4.6C607.26,128.71,607.66,128.51,607.86,127.91Z"/><path class="cls-1" d="M692.46,152.51a16.68,16.68,0,0,1-7-1.2,10.2,10.2,0,0,1-5.4-10.8c.4-4.6,2.6-8.4,5.4-12a31.53,31.53,0,0,1,14-10.4,12.29,12.29,0,0,1,8.8-.6c6.6,1.8,6.6,7.4,3.4,11.4-1.8,2.4-4.4,3.6-7.2,4.6-5.2,1.8-10.6,3.4-16.4,3a2,2,0,0,0-1.6,1,11.36,11.36,0,0,0-2.2,7.6c.4,2.6,2.2,3.8,4.6,4.6a21.67,21.67,0,0,0,8.8.2,126.23,126.23,0,0,0,17.2-4c7-2,14-4.2,20.8-6.6,3.4-1.2,7-2.4,10.6-3.6a4.71,4.71,0,0,1,1.6-.4c.4,0,.8-.2.8.4,0,.4-.2.6-.4.6-1.8.6-3.4,1.4-5.2,2l-18.6,6.6a71.6,71.6,0,0,1-7,2.2c-6.8,1.8-13.6,4-20.6,5.2A32.4,32.4,0,0,1,692.46,152.51Zm-4-17.8a7.07,7.07,0,0,1,1.2.2,53.37,53.37,0,0,0,16.6-4.2,14,14,0,0,0,3.4-2.6,5,5,0,0,0,1.2-4c-.2-1.4-.8-2.2-2.2-2.2a11.66,11.66,0,0,0-5.8,1.2,37.2,37.2,0,0,0-7,4.4A35.84,35.84,0,0,0,688.46,134.71Z"/><path class="cls-1" d="M817.66,134.91c0,.8-.8.8-1.2,1a201.1,201.1,0,0,0-23.6,9.6c-7.6,3.6-15.2,7.2-22.6,11.2-2,1-2,1-1.6,3.4a9.28,9.28,0,0,1-2.4,7.4,13.86,13.86,0,0,1-5,4,36.4,36.4,0,0,1-13.8,3.8c-1.2,0-2.8.2-3.6-1.4-.6-1.4.6-2.6,1.6-3.4a74,74,0,0,1,12-8.8c1.6-1,3.2-1.8,4.8-2.8,1.2-.6,1.2-1,.2-2-1.8-1.4-3.6-2.8-5.4-4-2.6-1.8-5.2-3.2-7.4-5.2-.4-.4-1-.8-1.4-1.2-3.8-4.2-4.4-8.6-1.4-13.6a27.49,27.49,0,0,1,6.6-7c4.6-3.6,9.4-6.2,15-7.2a15,15,0,0,1,8.4.2c5.4,1.8,7,6.4,4.4,11.2a17.52,17.52,0,0,1-3.8,4.8c-.4.2-.8.6-1.4.2a1.23,1.23,0,0,1,.2-1.2,21.08,21.08,0,0,1,1.4-2.2,9.56,9.56,0,0,0,2-5.6,4.09,4.09,0,0,0-2.8-3.8,8.89,8.89,0,0,0-6-.4,30.59,30.59,0,0,0-18.4,11.8,16.53,16.53,0,0,0-1.4,2.6,6.13,6.13,0,0,0,1.4,7,38.2,38.2,0,0,0,6.4,4.8,37.67,37.67,0,0,1,7.2,6.6c1.4,1.4,1.4,1.4,3.2.6,11.6-6,23.4-11.6,35.6-16.6a98.56,98.56,0,0,1,10.8-3.8C816.46,134.71,817.06,134.31,817.66,134.91Zm-70,39.2a9.34,9.34,0,0,0,3.4-.6c4.2-1,8.2-2.2,11.4-5.2a7.19,7.19,0,0,0,2.6-7c-.2-1.2-.6-1.4-1.6-.8-5.8,3.4-11.6,6.8-16.8,11.2-.6.4-1.6,1-1.2,1.8C745.86,174.51,747.06,173.91,747.66,174.11Z"/></g></g></svg>