<svg xmlns="http://www.w3.org/2000/svg" viewBox="0 0 74.11 11.95"><defs><style>.cls-1{fill:#c36d15;}</style></defs><g id="Capa_2" data-name="Capa 2"><g id="Capa_1-2" data-name="Capa 1"><path class="cls-1" d="M2.9,1.3H0L.1.58H6.7l-.1.72H3.7L2.6,9.07H1.81Z"/><path class="cls-1" d="M10.42,7.51a3.22,3.22,0,0,0-.05.38c0,.15,0,.3,0,.45s0,.29,0,.43,0,.23,0,.3H9.54l.06-.6a1.86,1.86,0,0,0,0-.37h0a2.42,2.42,0,0,1-.36.43,2.09,2.09,0,0,1-.47.36,2.72,2.72,0,0,1-.58.24,2.25,2.25,0,0,1-.64.09A2.18,2.18,0,0,1,6.5,9a1.39,1.39,0,0,1-.57-.53,1.86,1.86,0,0,1-.21-.76,5.35,5.35,0,0,1,0-.89l.46-3.3h.72L6.48,6.79a5,5,0,0,0,0,.66A1.49,1.49,0,0,0,6.58,8a1,1,0,0,0,.36.4,1.32,1.32,0,0,0,.68.15,2.28,2.28,0,0,0,.77-.14A1.89,1.89,0,0,0,9.06,8a2.4,2.4,0,0,0,.51-.71,3.18,3.18,0,0,0,.29-1l.39-2.77H11Z"/><path class="cls-1" d="M16.69.58h.79L16.39,8.35h4l-.09.72H15.5Z"/><path class="cls-1" d="M26.21,7.51c0,.11,0,.23-.05.38s0,.3,0,.45,0,.29,0,.43,0,.23,0,.3h-.72l.06-.6a2.2,2.2,0,0,0,0-.37h0a2.36,2.36,0,0,1-.35.43,2.15,2.15,0,0,1-.48.36,2.64,2.64,0,0,1-.57.24,2.37,2.37,0,0,1-.65.09,2.14,2.14,0,0,1-1-.21,1.28,1.28,0,0,1-.57-.53,1.6,1.6,0,0,1-.21-.76,4.44,4.44,0,0,1,0-.89L22,3.53h.72l-.46,3.26a3.69,3.69,0,0,0,0,.66,1.33,1.33,0,0,0,.13.57,1,1,0,0,0,.36.4,1.32,1.32,0,0,0,.68.15,2.23,2.23,0,0,0,.77-.14A1.89,1.89,0,0,0,24.85,8a2.4,2.4,0,0,0,.51-.71,3.46,3.46,0,0,0,.3-1L26,3.53h.72Z"/><path class="cls-1" d="M33.59,8.71a4.37,4.37,0,0,1-.54,1.67,3.41,3.41,0,0,1-.89,1,2.73,2.73,0,0,1-1,.47,4.33,4.33,0,0,1-.95.12,3.88,3.88,0,0,1-1.54-.3,2.27,2.27,0,0,1-1.05-.86l.65-.53a1.83,1.83,0,0,0,.84.79,2.71,2.71,0,0,0,1.18.25,2.68,2.68,0,0,0,.95-.14,2.23,2.23,0,0,0,.68-.38,2.19,2.19,0,0,0,.46-.51,2.5,2.5,0,0,0,.28-.57,3.06,3.06,0,0,0,.15-.53c0-.17.06-.31.08-.41L33,8h0a2.69,2.69,0,0,1-.95.79,2.72,2.72,0,0,1-1.29.29,2.78,2.78,0,0,1-1.13-.22,2.4,2.4,0,0,1-.85-.61,2.21,2.21,0,0,1-.51-.91,2.37,2.37,0,0,1-.08-1.1,2.84,2.84,0,0,1,.39-1.11,3.64,3.64,0,0,1,.76-.9,3.79,3.79,0,0,1,1-.61,3.18,3.18,0,0,1,1.18-.23,2.38,2.38,0,0,1,1.21.29,1.8,1.8,0,0,1,.73.79h0l.13-.93h.72Zm-.35-2.48a2.23,2.23,0,0,0-.05-.86,1.77,1.77,0,0,0-.38-.7A2,2,0,0,0,31.36,4a2.28,2.28,0,0,0-.89.18,2.66,2.66,0,0,0-.76.46,2.58,2.58,0,0,0-.57.7,2.19,2.19,0,0,0-.29.86,2.24,2.24,0,0,0,0,.86,1.84,1.84,0,0,0,.37.69,2.08,2.08,0,0,0,.63.47,1.9,1.9,0,0,0,.83.17,2.19,2.19,0,0,0,.88-.17,2.74,2.74,0,0,0,.77-.47A2.53,2.53,0,0,0,33,7.09,2.43,2.43,0,0,0,33.24,6.23Z"/><path class="cls-1" d="M39.94,6.74c0,.28-.08.52-.11.74s0,.41-.06.6,0,.35,0,.51,0,.32,0,.48h-.67a3.08,3.08,0,0,1,0-.43,4,4,0,0,1,.05-.47h0a2.34,2.34,0,0,1-.88.79,2.85,2.85,0,0,1-1.9.17,1.63,1.63,0,0,1-.59-.29,1.22,1.22,0,0,1-.38-.51,1.54,1.54,0,0,1-.06-.76,1.67,1.67,0,0,1,.46-1A2.56,2.56,0,0,1,36.61,6a3.6,3.6,0,0,1,1-.24,8.78,8.78,0,0,1,1-.06h.84l0-.33a1.08,1.08,0,0,0-.3-1A1.72,1.72,0,0,0,38.11,4a2.88,2.88,0,0,0-1.79.63L36,4.16A3.2,3.2,0,0,1,37,3.58a3.88,3.88,0,0,1,1.16-.2,2.24,2.24,0,0,1,1.54.48,1.66,1.66,0,0,1,.39,1.53Zm-1.38-.45a6.58,6.58,0,0,0-.9.06,3.65,3.65,0,0,0-.79.2,1.83,1.83,0,0,0-.6.39,1,1,0,0,0-.29.6A.85.85,0,0,0,36,8a.8.8,0,0,0,.25.32,1.13,1.13,0,0,0,.38.19,1.31,1.31,0,0,0,.44.07,2.48,2.48,0,0,0,1-.17,1.85,1.85,0,0,0,1-1.05,2.54,2.54,0,0,0,.19-.69l.05-.37Z"/><path class="cls-1" d="M42.08,5.09a3.22,3.22,0,0,0,.05-.38c0-.15,0-.3,0-.45s0-.29,0-.43,0-.23,0-.3H43q0,.32-.06.6a1.86,1.86,0,0,0,0,.37,2.83,2.83,0,0,1,.82-.8,1.92,1.92,0,0,1,1.09-.32,1.51,1.51,0,0,1,.41.06L45,4.15a.75.75,0,0,0-.26-.05,2.16,2.16,0,0,0-.83.15,2,2,0,0,0-1,1,2.68,2.68,0,0,0-.22.76l-.42,3h-.72Z"/><path class="cls-1" d="M50,.58h.79L49.64,9.07h-.79Z"/><path class="cls-1" d="M56.75,8.1h0a2.07,2.07,0,0,1-.48.5,3.61,3.61,0,0,1-.6.35,3,3,0,0,1-.65.2,3.58,3.58,0,0,1-.64.07A3,3,0,0,1,53.2,9a2.17,2.17,0,0,1-.84-.61,2.24,2.24,0,0,1-.47-.92,2.84,2.84,0,0,1,0-1.17,3.35,3.35,0,0,1,.38-1.17A3.3,3.3,0,0,1,53,4.21a3.14,3.14,0,0,1,1-.61,3.45,3.45,0,0,1,1.2-.22,3.38,3.38,0,0,1,.63.07,2.42,2.42,0,0,1,.59.2,2,2,0,0,1,.5.35,1.8,1.8,0,0,1,.35.5h0L57.89,0h.72L57.34,9.07h-.72Zm.32-1.8a2,2,0,0,0,0-.88,1.8,1.8,0,0,0-.39-.72A1.9,1.9,0,0,0,56,4.21,2.14,2.14,0,0,0,55.08,4a2.42,2.42,0,0,0-.94.18,2.54,2.54,0,0,0-.76.49,2.43,2.43,0,0,0-.54.72,2.92,2.92,0,0,0-.28.88,2.35,2.35,0,0,0,0,.88,1.85,1.85,0,0,0,.34.72,1.67,1.67,0,0,0,.62.49,2.11,2.11,0,0,0,.89.18,2.5,2.5,0,0,0,.94-.18,2.77,2.77,0,0,0,1.4-1.21A2.7,2.7,0,0,0,57.07,6.3Z"/><path class="cls-1" d="M64.14,8A3,3,0,0,1,63,8.94a3.64,3.64,0,0,1-1.4.28A2.8,2.8,0,0,1,60.45,9a2.11,2.11,0,0,1-.8-.61,2.2,2.2,0,0,1-.45-.92,3.3,3.3,0,0,1,0-1.18,3.38,3.38,0,0,1,.37-1.15,3.24,3.24,0,0,1,.71-.92,3,3,0,0,1,1-.61,2.87,2.87,0,0,1,1.14-.23,2.41,2.41,0,0,1,1.09.23,2,2,0,0,1,.74.58,2.16,2.16,0,0,1,.39.84,3,3,0,0,1,0,1l-.08.5H59.87a2.23,2.23,0,0,0,0,.58,1.78,1.78,0,0,0,.24.69,1.63,1.63,0,0,0,.56.58,1.78,1.78,0,0,0,1,.24,2.52,2.52,0,0,0,1.11-.27,2.19,2.19,0,0,0,.89-.72Zm-.25-2.2a1.74,1.74,0,0,0,0-.69,1.34,1.34,0,0,0-.32-.57A1.57,1.57,0,0,0,63,4.18,1.73,1.73,0,0,0,62.23,4a2,2,0,0,0-1,.24,2.67,2.67,0,0,0-.7.55,2.39,2.39,0,0,0-.42.61,1.94,1.94,0,0,0-.15.4Z"/><path class="cls-1" d="M70.4,6.74c0,.28-.07.52-.1.74s0,.41-.06.6,0,.35,0,.51,0,.32,0,.48h-.67a3.08,3.08,0,0,1,0-.43,3.89,3.89,0,0,1,0-.47h0a2.41,2.41,0,0,1-.88.79,2.85,2.85,0,0,1-1.9.17,1.63,1.63,0,0,1-.59-.29,1.15,1.15,0,0,1-.38-.51,1.54,1.54,0,0,1-.07-.76,1.74,1.74,0,0,1,.47-1A2.61,2.61,0,0,1,67.07,6a3.74,3.74,0,0,1,1-.24,8.78,8.78,0,0,1,1-.06h.84l0-.33a1.08,1.08,0,0,0-.3-1A1.74,1.74,0,0,0,68.58,4a2.88,2.88,0,0,0-1.79.63l-.35-.5a3.25,3.25,0,0,1,1.07-.58,3.81,3.81,0,0,1,1.15-.2,2.25,2.25,0,0,1,1.55.48,1.66,1.66,0,0,1,.39,1.53ZM69,6.29a6.54,6.54,0,0,0-.89.06,3.51,3.51,0,0,0-.79.2,1.83,1.83,0,0,0-.6.39,1,1,0,0,0-.3.6,1,1,0,0,0,0,.45.8.8,0,0,0,.25.32,1.13,1.13,0,0,0,.38.19,1.31,1.31,0,0,0,.44.07,2.51,2.51,0,0,0,1-.17A2,2,0,0,0,69.19,8a1.87,1.87,0,0,0,.39-.61,3,3,0,0,0,.19-.69l0-.37Z"/><path class="cls-1" d="M73.39,0h.72L72.84,9.07h-.72Z"/></g></g></svg>