<svg xmlns="http://www.w3.org/2000/svg" viewBox="0 0 101.09 11.95"><defs><style>.cls-1{fill:#c36d15;}</style></defs><g id="Capa_2" data-name="Capa 2"><g id="Capa_1-2" data-name="Capa 1"><path class="cls-1" d="M6.25,5.82a5.73,5.73,0,0,1-.34,1.31,3.76,3.76,0,0,1-.68,1.1A3.13,3.13,0,0,1,4.16,9a3.62,3.62,0,0,1-1.5.29A3,3,0,0,1,1.25,9a2.15,2.15,0,0,1-.86-.77A2.51,2.51,0,0,1,0,7.13a4.83,4.83,0,0,1,0-1.31L.79.58h.79l-.71,5a6,6,0,0,0-.05,1,2.57,2.57,0,0,0,.19,1,1.69,1.69,0,0,0,.6.73,2,2,0,0,0,1.15.29A2.41,2.41,0,0,0,4,8.28a2.59,2.59,0,0,0,.81-.73,3.57,3.57,0,0,0,.47-1,6.83,6.83,0,0,0,.21-1l.71-5H7Z"/><path class="cls-1" d="M8.31,5.09a3.22,3.22,0,0,0,0-.38c0-.15,0-.3,0-.45s0-.29,0-.43,0-.23,0-.3h.72q0,.32-.06.6a1.86,1.86,0,0,0,0,.37h0a2.42,2.42,0,0,1,.36-.43A2.09,2.09,0,0,1,10,3.71a2.72,2.72,0,0,1,.58-.24,2.25,2.25,0,0,1,.64-.09,2.18,2.18,0,0,1,1,.21,1.39,1.39,0,0,1,.57.53,1.86,1.86,0,0,1,.21.76,5.35,5.35,0,0,1,0,.89l-.46,3.3h-.72l.46-3.26a5,5,0,0,0,0-.66,1.49,1.49,0,0,0-.14-.57,1,1,0,0,0-.36-.4A1.32,1.32,0,0,0,11.11,4a2.28,2.28,0,0,0-.77.14,1.89,1.89,0,0,0-.67.42,2.4,2.4,0,0,0-.51.71,3.18,3.18,0,0,0-.29,1L8.48,9.07H7.76Z"/><path class="cls-1" d="M18.94,0h.73L18.39,9.07h-.72Z"/><path class="cls-1" d="M25.34,7.51c0,.11,0,.23-.05.38s0,.3,0,.45l0,.43a2.13,2.13,0,0,0,0,.3h-.72c0-.21,0-.41.05-.6a1.46,1.46,0,0,0,0-.37h0a2,2,0,0,1-.35.43,2.35,2.35,0,0,1-.47.36,2.72,2.72,0,0,1-.58.24,2.32,2.32,0,0,1-.65.09,2.16,2.16,0,0,1-1-.21,1.28,1.28,0,0,1-.57-.53,1.72,1.72,0,0,1-.21-.76,4.46,4.46,0,0,1,0-.89l.45-3.3h.72L21.4,6.79a3.69,3.69,0,0,0,0,.66A1.49,1.49,0,0,0,21.5,8a1,1,0,0,0,.37.4,1.29,1.29,0,0,0,.68.15,2.22,2.22,0,0,0,.76-.14A1.89,1.89,0,0,0,24,8a2.25,2.25,0,0,0,.52-.71,3.46,3.46,0,0,0,.29-1l.38-2.77h.72Z"/><path class="cls-1" d="M32.72,8.71a4.21,4.21,0,0,1-.54,1.67,3.28,3.28,0,0,1-.89,1,2.69,2.69,0,0,1-1,.47,4.48,4.48,0,0,1-1,.12,3.88,3.88,0,0,1-1.54-.3,2.27,2.27,0,0,1-1.05-.86l.65-.53a1.83,1.83,0,0,0,.84.79,2.76,2.76,0,0,0,1.19.25,2.72,2.72,0,0,0,1-.14,2.29,2.29,0,0,0,.67-.38,2.19,2.19,0,0,0,.46-.51,2.56,2.56,0,0,0,.29-.57,4.32,4.32,0,0,0,.15-.53c0-.17,0-.31.07-.41L32.1,8h0a2.6,2.6,0,0,1-.95.79,3,3,0,0,1-2.41.07,2.39,2.39,0,0,1-1.37-1.52,2.37,2.37,0,0,1-.08-1.1,3.2,3.2,0,0,1,.39-1.11,3.86,3.86,0,0,1,.76-.9,4,4,0,0,1,1-.61,3.18,3.18,0,0,1,1.18-.23,2.36,2.36,0,0,1,1.21.29,1.8,1.8,0,0,1,.73.79h0l.13-.93h.72Zm-.35-2.48a2,2,0,0,0,0-.86,1.88,1.88,0,0,0-.37-.7,2,2,0,0,0-.63-.46A1.9,1.9,0,0,0,30.49,4a2.23,2.23,0,0,0-.88.18,2.71,2.71,0,0,0-.77.46,2.58,2.58,0,0,0-.57.7,2.37,2.37,0,0,0-.29.86,2.24,2.24,0,0,0,.05.86,1.73,1.73,0,0,0,.38.69,1.86,1.86,0,0,0,.63.47,1.83,1.83,0,0,0,.82.17,2.27,2.27,0,0,0,.89-.17,2.89,2.89,0,0,0,.77-.47,3,3,0,0,0,.57-.69A2.42,2.42,0,0,0,32.37,6.23Z"/><path class="cls-1" d="M39.07,6.74c0,.28-.08.52-.1.74s0,.41-.07.6,0,.35,0,.51,0,.32,0,.48h-.67a3.08,3.08,0,0,1,0-.43,4,4,0,0,1,0-.47h0a2.34,2.34,0,0,1-.88.79,2.59,2.59,0,0,1-1.2.26,2.74,2.74,0,0,1-.7-.09,1.71,1.71,0,0,1-.59-.29,1.32,1.32,0,0,1-.38-.51,1.54,1.54,0,0,1-.06-.76,1.62,1.62,0,0,1,.47-1A2.52,2.52,0,0,1,35.74,6a3.66,3.66,0,0,1,1-.24,8.63,8.63,0,0,1,.95-.06h.83l0-.33a1,1,0,0,0-.3-1A1.72,1.72,0,0,0,37.24,4a2.85,2.85,0,0,0-1.78.63l-.35-.5a3.15,3.15,0,0,1,1.07-.58,3.81,3.81,0,0,1,1.15-.2,2.22,2.22,0,0,1,1.54.48,1.61,1.61,0,0,1,.39,1.53Zm-1.38-.45a6.54,6.54,0,0,0-.89.06,3.6,3.6,0,0,0-.8.2,2.07,2.07,0,0,0-.6.39,1,1,0,0,0-.29.6.85.85,0,0,0,0,.45.77.77,0,0,0,.24.32,1.23,1.23,0,0,0,.38.19,1.37,1.37,0,0,0,.45.07,2.55,2.55,0,0,0,1-.17A1.91,1.91,0,0,0,37.85,8a2.08,2.08,0,0,0,.4-.61,2.93,2.93,0,0,0,.18-.69l0-.37Z"/><path class="cls-1" d="M41.22,5.09c0-.11,0-.23,0-.38s0-.3.05-.45l0-.43c0-.13,0-.23,0-.3h.72a5.54,5.54,0,0,1-.06.6,1.86,1.86,0,0,0,0,.37,2.83,2.83,0,0,1,.82-.8,2,2,0,0,1,1.1-.32,1.56,1.56,0,0,1,.41.06l-.18.71a.86.86,0,0,0-.27-.05,2.16,2.16,0,0,0-.83.15,1.89,1.89,0,0,0-.62.42,1.79,1.79,0,0,0-.42.62,3,3,0,0,0-.22.76l-.42,3h-.72Z"/><path class="cls-1" d="M48,7.66a1.32,1.32,0,0,0,.58.67,1.73,1.73,0,0,0,.9.24,2,2,0,0,0,.47-.07,1.78,1.78,0,0,0,.44-.21A1.26,1.26,0,0,0,50.7,8a1,1,0,0,0,.18-.42.72.72,0,0,0-.08-.46.94.94,0,0,0-.33-.29,2.91,2.91,0,0,0-.5-.18l-.58-.13a4.91,4.91,0,0,1-.58-.17,1.58,1.58,0,0,1-.5-.26A1,1,0,0,1,48,5.63,1.13,1.13,0,0,1,48,5a1.65,1.65,0,0,1,.27-.71,2,2,0,0,1,.51-.5,2.23,2.23,0,0,1,.65-.29,2.74,2.74,0,0,1,.69-.1,2.36,2.36,0,0,1,1.15.26,1.43,1.43,0,0,1,.67.79l-.71.38a1.38,1.38,0,0,0-.43-.58A1.27,1.27,0,0,0,50,4a1.56,1.56,0,0,0-.41.06,2.09,2.09,0,0,0-.41.17,1,1,0,0,0-.32.28.77.77,0,0,0-.17.38.56.56,0,0,0,.17.55,1.38,1.38,0,0,0,.57.28,6.75,6.75,0,0,0,.77.18,3,3,0,0,1,.75.23,1.3,1.3,0,0,1,.54.47,1.28,1.28,0,0,1,.13.87,1.77,1.77,0,0,1-.27.75,1.87,1.87,0,0,1-.52.53,2,2,0,0,1-.68.33,2.94,2.94,0,0,1-2-.17,1.58,1.58,0,0,1-.8-.85Z"/><path class="cls-1" d="M53,6.3a3.34,3.34,0,0,1,.37-1.17,3.49,3.49,0,0,1,.73-.92,3.25,3.25,0,0,1,1-.61,3.46,3.46,0,0,1,1.21-.22,3,3,0,0,1,1.14.22,2.17,2.17,0,0,1,.84.61,2.24,2.24,0,0,1,.47.92A3,3,0,0,1,58.8,6.3a3.59,3.59,0,0,1-.39,1.17A3.32,3.32,0,0,1,56.67,9a3.37,3.37,0,0,1-1.2.22A3,3,0,0,1,54.33,9a2.17,2.17,0,0,1-.84-.61A2.38,2.38,0,0,1,53,7.47,2.85,2.85,0,0,1,53,6.3Zm.72,0a2.35,2.35,0,0,0,0,.88,1.72,1.72,0,0,0,.34.72,1.52,1.52,0,0,0,.62.49,2.08,2.08,0,0,0,.89.18,2.37,2.37,0,0,0,.93-.18,2.59,2.59,0,0,0,.77-.49,2.61,2.61,0,0,0,.54-.72,2.92,2.92,0,0,0,.28-.88,2.15,2.15,0,0,0,0-.88,1.7,1.7,0,0,0-.33-.72,1.63,1.63,0,0,0-.63-.49A2,2,0,0,0,56.21,4,2.51,2.51,0,0,0,54,5.42,2.67,2.67,0,0,0,53.69,6.3Z"/><path class="cls-1" d="M60.23,7.66a1.25,1.25,0,0,0,.57.67,1.73,1.73,0,0,0,.9.24,2,2,0,0,0,.47-.07,1.63,1.63,0,0,0,.44-.21A1.26,1.26,0,0,0,62.94,8a1,1,0,0,0,.18-.42A.72.72,0,0,0,63,7.09a.94.94,0,0,0-.33-.29,2.91,2.91,0,0,0-.5-.18l-.58-.13a4.91,4.91,0,0,1-.58-.17,1.43,1.43,0,0,1-.49-.26.92.92,0,0,1-.32-.43A1.13,1.13,0,0,1,60.19,5a1.65,1.65,0,0,1,.27-.71,2,2,0,0,1,.51-.5,2.23,2.23,0,0,1,.65-.29,2.74,2.74,0,0,1,.69-.1,2.36,2.36,0,0,1,1.15.26,1.43,1.43,0,0,1,.67.79l-.71.38A1.38,1.38,0,0,0,63,4.23a1.27,1.27,0,0,0-.76-.2,1.56,1.56,0,0,0-.41.06,2.09,2.09,0,0,0-.41.17,1,1,0,0,0-.32.28.77.77,0,0,0-.17.38.56.56,0,0,0,.17.55,1.38,1.38,0,0,0,.57.28,7.29,7.29,0,0,0,.77.18,3,3,0,0,1,.75.23,1.3,1.3,0,0,1,.54.47,1.22,1.22,0,0,1,.13.87,1.77,1.77,0,0,1-.27.75,1.87,1.87,0,0,1-.52.53,2,2,0,0,1-.68.33,2.87,2.87,0,0,1-.77.11,2.9,2.9,0,0,1-1.28-.28,1.58,1.58,0,0,1-.8-.85Z"/><path class="cls-1" d="M68.53,4.18H67l-.51,3.61a.65.65,0,0,0,.12.57.64.64,0,0,0,.53.21,1.65,1.65,0,0,0,.43-.06,2.92,2.92,0,0,0,.42-.13l0,.64a4,4,0,0,1-.48.14,2.4,2.4,0,0,1-.48.06,1.57,1.57,0,0,1-.65-.12,1,1,0,0,1-.4-.3,1,1,0,0,1-.18-.45,1.75,1.75,0,0,1,0-.56l.51-3.61H65l.09-.65h1.2l.23-1.6h.72L67,3.53h1.58Z"/><path class="cls-1" d="M74.17,8A3,3,0,0,1,73,8.94a3.64,3.64,0,0,1-1.4.28A2.8,2.8,0,0,1,70.48,9a2.11,2.11,0,0,1-.8-.61,2.2,2.2,0,0,1-.45-.92,3.3,3.3,0,0,1,0-1.18,3.38,3.38,0,0,1,.37-1.15,3.24,3.24,0,0,1,.71-.92,3,3,0,0,1,1-.61,2.87,2.87,0,0,1,1.14-.23,2.41,2.41,0,0,1,1.09.23,2,2,0,0,1,.74.58A2.16,2.16,0,0,1,74.6,5a3,3,0,0,1,0,1l-.08.5H69.9a2.23,2.23,0,0,0,0,.58,1.78,1.78,0,0,0,.24.69,1.63,1.63,0,0,0,.56.58,1.78,1.78,0,0,0,1,.24,2.55,2.55,0,0,0,1.11-.27,2.19,2.19,0,0,0,.89-.72Zm-.25-2.2a1.74,1.74,0,0,0,0-.69,1.34,1.34,0,0,0-.32-.57A1.57,1.57,0,0,0,73,4.18,1.73,1.73,0,0,0,72.26,4a2,2,0,0,0-1,.24,2.67,2.67,0,0,0-.7.55,2.39,2.39,0,0,0-.42.61,1.94,1.94,0,0,0-.15.4Z"/><path class="cls-1" d="M76.35,5.09a3.22,3.22,0,0,0,.05-.38c0-.15,0-.3,0-.45s0-.29,0-.43,0-.23,0-.3h.72l-.06.6a1.86,1.86,0,0,0,0,.37h0a2.42,2.42,0,0,1,.36-.43A2.09,2.09,0,0,1,78,3.71a2.72,2.72,0,0,1,.58-.24,2.25,2.25,0,0,1,.64-.09,2.18,2.18,0,0,1,1,.21,1.39,1.39,0,0,1,.57.53,1.86,1.86,0,0,1,.21.76,5.35,5.35,0,0,1,0,.89l-.46,3.3h-.72l.46-3.26a5,5,0,0,0,0-.66,1.49,1.49,0,0,0-.14-.57,1,1,0,0,0-.36-.4A1.32,1.32,0,0,0,79.15,4a2.28,2.28,0,0,0-.77.14,1.89,1.89,0,0,0-.67.42,2.4,2.4,0,0,0-.51.71,3.18,3.18,0,0,0-.29,1l-.39,2.77H75.8Z"/><path class="cls-1" d="M83.36,3.53h.72l-.77,5.54h-.72Zm.13-2.2A.68.68,0,0,1,83.7,1a.57.57,0,0,1,.41-.16.44.44,0,0,1,.36.16.42.42,0,0,1,.1.38.57.57,0,0,1-.2.39.63.63,0,0,1-.41.15.46.46,0,0,1-.36-.15A.53.53,0,0,1,83.49,1.33Z"/><path class="cls-1" d="M86.47,0h.72l-.64,4.5h0a2.28,2.28,0,0,1,.48-.5,3.61,3.61,0,0,1,.6-.35,3,3,0,0,1,.65-.2A3.58,3.58,0,0,1,89,3.38a2.9,2.9,0,0,1,1.14.22,2.17,2.17,0,0,1,.84.61,2.25,2.25,0,0,1,.48.92,3,3,0,0,1,0,1.17,3.57,3.57,0,0,1-.38,1.17,3.3,3.3,0,0,1-.73.92,3.37,3.37,0,0,1-1,.61,3.45,3.45,0,0,1-1.2.22,3.38,3.38,0,0,1-.63-.07,2.57,2.57,0,0,1-.59-.2,2,2,0,0,1-.5-.35,1.46,1.46,0,0,1-.35-.5h0l-.13,1H85.2Zm-.24,6.3a2,2,0,0,0,0,.88,1.8,1.8,0,0,0,.39.72,1.9,1.9,0,0,0,.66.49,2.14,2.14,0,0,0,.89.18,2.42,2.42,0,0,0,.94-.18,2.54,2.54,0,0,0,.76-.49,2.43,2.43,0,0,0,.54-.72,2.92,2.92,0,0,0,.28-.88,2.35,2.35,0,0,0,0-.88,1.85,1.85,0,0,0-.34-.72,1.67,1.67,0,0,0-.62-.49A2.11,2.11,0,0,0,88.87,4a2.5,2.5,0,0,0-.94.18,2.77,2.77,0,0,0-1.4,1.21A2.7,2.7,0,0,0,86.23,6.3Z"/><path class="cls-1" d="M94.08,0h.72L93.52,9.07h-.71Z"/><path class="cls-1" d="M100.61,8a3.11,3.11,0,0,1-1.17.91,3.68,3.68,0,0,1-1.4.28A2.85,2.85,0,0,1,96.91,9a2.11,2.11,0,0,1-.8-.61,2.19,2.19,0,0,1-.44-.92,2.9,2.9,0,0,1,0-1.18A3.16,3.16,0,0,1,96,5.14a3.43,3.43,0,0,1,.71-.92,3,3,0,0,1,1-.61,3,3,0,0,1,1.15-.23,2.44,2.44,0,0,1,1.09.23,2,2,0,0,1,.74.58A2.29,2.29,0,0,1,101,5a2.53,2.53,0,0,1,0,1l-.07.5H96.33a2.29,2.29,0,0,0,0,.58,1.76,1.76,0,0,0,.23.69,1.72,1.72,0,0,0,.56.58,1.8,1.8,0,0,0,1,.24,2.52,2.52,0,0,0,1.11-.27,2.29,2.29,0,0,0,.9-.72Zm-.26-2.2a1.58,1.58,0,0,0,0-.69,1.54,1.54,0,0,0-.89-1A1.72,1.72,0,0,0,98.7,4a2.08,2.08,0,0,0-1,.24,2.85,2.85,0,0,0-.7.55,2.61,2.61,0,0,0-.41.61,1.94,1.94,0,0,0-.15.4Z"/></g></g></svg>