<svg xmlns="http://www.w3.org/2000/svg" viewBox="0 0 213.71 130.74"><defs><style>.cls-1{fill:#c36d15;}</style></defs><g id="Capa_2" data-name="Capa 2"><g id="Capa_1-2" data-name="Capa 1"><path class="cls-1" d="M37.3,24.28h0l-.67-.16h0A13.84,13.84,0,0,0,27.54,0H0V4.12H.19a6.4,6.4,0,0,1,6.32,6.43V47.32a6.6,6.6,0,0,1-5.23,6.51A6.45,6.45,0,0,1,.11,54H0v4.42H32.69A17.33,17.33,0,0,0,37.3,24.28Zm-13.76-22c4.18,0,6.81-.12,9.14,1.61A8,8,0,0,1,34,5.16a13.61,13.61,0,0,1-.68,18.15C27.74,21.5,19.27,17.61,16.89,7a3.92,3.92,0,0,1,3.83-4.77Zm-7.71,15.5a1,1,0,0,1,2-.52,28.12,28.12,0,0,0,7.49,8.29h0l.15.11,0,0h0A51.23,51.23,0,0,0,33,30.26a11.88,11.88,0,0,1,3.9,2.9,12,12,0,0,1-9.08,19.92c-6.41,0-12-4.6-12-11.41C15.85,41.46,15.83,17.74,15.83,17.74Z"/><circle class="cls-1" cx="60.78" cy="51.59" r="6.67"/><path class="cls-1" d="M17.84,93.92a8.47,8.47,0,0,0-3.32-2.65q-.5-.21-1.14-.42l.16-.11a6.21,6.21,0,0,0,1.93-2.17,6.16,6.16,0,0,0,.79-3.1,6.4,6.4,0,0,0-.57-2.64,6.9,6.9,0,0,0-1.64-2.25,8.6,8.6,0,0,0-6.13-2.16H0l0,27.35H10.09a10.61,10.61,0,0,0,3.61-.61,9.22,9.22,0,0,0,3-1.71,7.74,7.74,0,0,0,1.88-2.52A6.89,6.89,0,0,0,19.22,98a6.59,6.59,0,0,0-1.38-4.1ZM2.17,92.39H8.71a12.64,12.64,0,0,1,5,.86,6.24,6.24,0,0,1,2.39,1.91,4.54,4.54,0,0,1,1,2.86,4.78,4.78,0,0,1-.85,2.7,6.46,6.46,0,0,1-2.45,2.11h0a8.1,8.1,0,0,1-3.7.82H2.17Zm9-2.7a7.25,7.25,0,0,1-1.48.41,11.83,11.83,0,0,1-1.85.12H2.17V80.59H7.92a7.54,7.54,0,0,1,3.39.7,5.12,5.12,0,0,1,2.11,1.81,4.29,4.29,0,0,1,.71,2.37,3.94,3.94,0,0,1-.94,2.67A5.77,5.77,0,0,1,11.17,89.69Z"/><path class="cls-1" d="M48.64,80a13.83,13.83,0,0,0-13.89,0,14,14,0,0,0,0,24.19,13.77,13.77,0,0,0,13.89,0,13.78,13.78,0,0,0,5-5.09,14,14,0,0,0-5-19.1Zm-7,23.9a11.37,11.37,0,0,1-5.85-1.59A12,12,0,0,1,31.57,98a11.82,11.82,0,0,1,0-11.84,11.87,11.87,0,0,1,4.27-4.29,11.58,11.58,0,0,1,11.71,0,11.85,11.85,0,0,1,0,20.42A11.38,11.38,0,0,1,41.69,103.9Z"/><path class="cls-1" d="M77,93.74A8.55,8.55,0,0,0,79.52,93a8.23,8.23,0,0,0,3.3-2.65,6.83,6.83,0,0,0,.74-7.07,7.77,7.77,0,0,0-1.88-2.5,9,9,0,0,0-3-1.76,10.76,10.76,0,0,0-3.63-.61H65.5v27.35h2.13V80.55h7.46a7.93,7.93,0,0,1,3.69.82,6.32,6.32,0,0,1,2.46,2.1,4.79,4.79,0,0,1,.85,2.71,4.69,4.69,0,0,1-1,2.9,6.58,6.58,0,0,1-2.41,2,13.23,13.23,0,0,1-5,.79h-3.6l11.43,13.88,0,0H84.4L74.6,93.89A21.79,21.79,0,0,0,77,93.74Z"/><polygon class="cls-1" points="95.44 105.77 113.24 105.77 113.24 103.56 97.56 103.56 97.56 93.18 109.78 93.18 109.78 91.01 97.56 91.01 97.56 80.59 113.24 80.59 113.24 78.42 95.44 78.42 95.44 105.77"/><path class="cls-1" d="M122.92,105.77h2.37l3.21-6.88h14.26l3,6.88h2.32L135.88,77.91Zm12.87-22.62,6,13.62H129.49Z"/><polygon class="cls-1" points="176.66 100.3 157.89 77.87 157.89 105.77 160.02 105.77 160.02 83.98 178.78 106.45 178.78 78.42 176.66 78.42 176.66 100.3"/><path class="cls-1" d="M201.47,77.91l-13,27.86h2.36l3.21-6.88h14.26l3,6.88h2.32Zm-.09,5.24,6,13.62H195.07Z"/><path class="cls-1" d="M8.92,120.23V121H4.83v9.6H4.1V121H0v-.73Z"/><path class="cls-1" d="M20.1,130.67a5.09,5.09,0,0,1-2.62-.7A5.28,5.28,0,0,1,15.57,128a5.31,5.31,0,0,1,1.91-7.22,5.1,5.1,0,0,1,2.62-.71,5.16,5.16,0,0,1,2.63.71,5.1,5.1,0,0,1,1.9,1.93,5.35,5.35,0,0,1,0,5.29,5.25,5.25,0,0,1-1.9,1.93A5.15,5.15,0,0,1,20.1,130.67Zm0-9.82a4.33,4.33,0,0,0-2.26.61,4.63,4.63,0,0,0-1.64,1.65,4.52,4.52,0,0,0,0,4.57,4.63,4.63,0,0,0,1.64,1.65,4.49,4.49,0,0,0,4.52,0A4.63,4.63,0,0,0,24,127.68a4.65,4.65,0,0,0,0-4.57,4.63,4.63,0,0,0-1.64-1.65A4.33,4.33,0,0,0,20.1,120.85Z"/><path class="cls-1" d="M40.25,128.51l2.56-8.28h.76l-3.26,10.51L37.37,123l-3,7.7-3.28-10.51h.75l2.59,8.31,2.91-7.5Z"/><path class="cls-1" d="M51.32,122.17v8.39H50.6V120.1l7.16,8.55v-8.42h.72v10.51Z"/><path class="cls-1" d="M73.15,125.76h-6.1v4.8h-.73V120.23h.73V125h6.1v-4.8h.72v10.33h-.72Z"/><path class="cls-1" d="M86.29,130.67a5.09,5.09,0,0,1-2.62-.7,5.32,5.32,0,0,1-1.91-7.22,5.21,5.21,0,0,1,9.06,0A5.31,5.31,0,0,1,88.91,130,5.09,5.09,0,0,1,86.29,130.67Zm0-9.82a4.33,4.33,0,0,0-2.26.61,4.55,4.55,0,0,0-1.64,1.65,4.52,4.52,0,0,0,0,4.57A4.55,4.55,0,0,0,84,129.33a4.49,4.49,0,0,0,4.52,0,4.63,4.63,0,0,0,1.64-1.65,4.65,4.65,0,0,0,0-4.57,4.63,4.63,0,0,0-1.64-1.65A4.33,4.33,0,0,0,86.29,120.85Z"/><path class="cls-1" d="M102.54,130.67a3.7,3.7,0,0,1-1.5-.31,3.86,3.86,0,0,1-1.28-.88,3.55,3.55,0,0,1-.85-1.27,4,4,0,0,1-.3-1.54v-6.44h.72v6.44a3.23,3.23,0,0,0,.25,1.27,3.09,3.09,0,0,0,.69,1.05,3.25,3.25,0,0,0,1,.71,3.27,3.27,0,0,0,2.46,0,3.36,3.36,0,0,0,1-.71,3.09,3.09,0,0,0,.69-1.05,3.23,3.23,0,0,0,.25-1.27v-6.44h.72v6.44a4,4,0,0,1-.3,1.54,3.55,3.55,0,0,1-.85,1.27,3.82,3.82,0,0,1-1.27.88A3.77,3.77,0,0,1,102.54,130.67Z"/><path class="cls-1" d="M120.89,126.56a2.25,2.25,0,0,1,.4,1.28A2.2,2.2,0,0,1,121,129a2.68,2.68,0,0,1-.82.93,4.35,4.35,0,0,1-2.59.8,4.61,4.61,0,0,1-1.4-.21,3.74,3.74,0,0,1-1.2-.59,2.6,2.6,0,0,1-1.09-1.63l.68-.39a1.8,1.8,0,0,0,.86,1.44,2.94,2.94,0,0,0,1,.48,4.1,4.1,0,0,0,1.18.17,3.51,3.51,0,0,0,2.14-.65,1.81,1.81,0,0,0,.85-1.47,1.59,1.59,0,0,0-.31-.92,2.53,2.53,0,0,0-.87-.73,6.27,6.27,0,0,0-1.88-.43l-.8-.13a4.18,4.18,0,0,1-1.19-.35,3.13,3.13,0,0,1-1.22-1,2.29,2.29,0,0,1-.45-1.36,2.14,2.14,0,0,1,.3-1.1,2.88,2.88,0,0,1,.83-.92,4.2,4.2,0,0,1,1.2-.59,4.93,4.93,0,0,1,1.4-.2,4.34,4.34,0,0,1,2.59.79,2.64,2.64,0,0,1,1.08,1.63l-.68.38a1.69,1.69,0,0,0-.24-.77,2.21,2.21,0,0,0-.61-.66,2.91,2.91,0,0,0-1-.49,4.08,4.08,0,0,0-2.33,0,2.74,2.74,0,0,0-1,.49,2.25,2.25,0,0,0-.64.67,1.48,1.48,0,0,0-.22.77,1.58,1.58,0,0,0,.37,1,2.54,2.54,0,0,0,.9.76,3.21,3.21,0,0,0,.74.23c.27,0,.62.1,1,.15l.56.08a7.7,7.7,0,0,1,.86.17,4,4,0,0,1,.7.27A3.42,3.42,0,0,1,120.89,126.56Z"/><path class="cls-1" d="M128.75,130.56V120.23h6.69V121h-6V125h4.65v.73h-4.65v4.06h6v.74Z"/><path class="cls-1" d="M149.35,126.56a2.26,2.26,0,0,1,.41,1.28,2.31,2.31,0,0,1-.29,1.12,2.71,2.71,0,0,1-.83.93,4.33,4.33,0,0,1-2.59.8,4.65,4.65,0,0,1-1.4-.21,3.79,3.79,0,0,1-1.19-.59,2.66,2.66,0,0,1-1.1-1.63l.69-.39a1.78,1.78,0,0,0,.86,1.44,2.84,2.84,0,0,0,1,.48,4.09,4.09,0,0,0,1.17.17,3.52,3.52,0,0,0,2.15-.65,1.8,1.8,0,0,0,.84-1.47,1.52,1.52,0,0,0-.31-.92,2.36,2.36,0,0,0-.87-.73,6.1,6.1,0,0,0-1.87-.43l-.8-.13a4.08,4.08,0,0,1-1.19-.35,3.06,3.06,0,0,1-1.22-1,2.29,2.29,0,0,1-.45-1.36,2.14,2.14,0,0,1,.3-1.1,2.88,2.88,0,0,1,.83-.92,4.27,4.27,0,0,1,1.19-.59,5,5,0,0,1,1.4-.2,4.32,4.32,0,0,1,2.59.79,2.61,2.61,0,0,1,1.09,1.63l-.69.38a1.68,1.68,0,0,0-.23-.77,2.35,2.35,0,0,0-.61-.66,3.06,3.06,0,0,0-1-.49,4.07,4.07,0,0,0-1.16-.17,4.19,4.19,0,0,0-1.17.17,2.77,2.77,0,0,0-1,.49,2.25,2.25,0,0,0-.64.67,1.48,1.48,0,0,0-.22.77,1.63,1.63,0,0,0,.36,1,2.67,2.67,0,0,0,.91.76,3.21,3.21,0,0,0,.74.23c.27,0,.62.1,1,.15l.56.08a8.17,8.17,0,0,1,.86.17,3.82,3.82,0,0,1,.69.27A3.42,3.42,0,0,1,149.35,126.56Z"/></g></g></svg>