<svg xmlns="http://www.w3.org/2000/svg" viewBox="0 0 146.25 126.55"><defs><style>.cls-1{fill:#c36d15;}</style></defs><g id="Capa_2" data-name="Capa 2"><g id="Capa_1-2" data-name="Capa 1"><path class="cls-1" d="M80.87,52.65h0c-.49-.13-1-.24-1.46-.35h0A30,30,0,0,0,59.72,0H0V8.93H.42a13.89,13.89,0,0,1,13.7,13.93V102.6A14.29,14.29,0,0,1,2.78,116.7,12.65,12.65,0,0,1,.24,117H0v9.59H70.88c20.5,0,37.62-16.23,38.06-36.73A37.55,37.55,0,0,0,80.87,52.65ZM51,4.87c9.06,0,14.77-.28,19.81,3.47a17.06,17.06,0,0,1,2.92,2.84A29.51,29.51,0,0,1,72.3,50.53C60.14,46.6,41.78,38.18,36.61,15.2A8.5,8.5,0,0,1,44.92,4.87ZM34.33,38.45a2.27,2.27,0,0,1,4.25-1.11c4.18,7.52,10.5,13.57,16.22,18h0l.31.24.11.09h0C61,60.3,71,65.31,71.64,65.6a25.53,25.53,0,0,1,8.44,6.3,26.06,26.06,0,0,1-19.67,43.18c-13.9,0-26-10-26-24.74C34.36,89.89,34.33,38.45,34.33,38.45Z"/><circle class="cls-1" cx="131.78" cy="111.84" r="14.47"/></g></g></svg>