<svg xmlns="http://www.w3.org/2000/svg" viewBox="0 0 379.78 526.05"><defs><style>.cls-1{fill:#cda787;}.cls-2{fill:#21362c;}</style></defs><g id="Capa_2" data-name="Capa 2"><g id="Layer_1" data-name="Layer 1"><path class="cls-1" d="M379.78,0H0V423.14H379.78ZM360.61,5.5h13.67V304.23l-13.67-15.47Zm-19.26,0h13.76V290.84l19.17,21.69V332l-32.93-37.26Zm-19.27,0h13.77V296.82l38.43,43.48v19.49l-52.2-59.07Zm-19.26,0h13.76V302.8l57.7,65.29v19.48L302.82,306.7ZM181.73,30.76,159.44,5.5h22.29ZM152.1,5.5l35.13,39.92V5.5H201V80.36C199.54,78.7,134.63,5.5,134.63,5.5Zm-24.84,0L206.49,95V5.5h13.77V130C219.13,128.66,109.84,5.5,109.84,5.5Zm-24.76,0L225.76,144.63V5.5h13.77V179.56C220.49,157.81,85.32,5.5,85.32,5.5ZM78,5.5,245,194.22V5.5h13.76V229.15C257.33,227.49,60.73,5.5,60.73,5.5Zm-24.58,0L264.29,243.83V5.5h13.77V278.75C254.82,252.19,37.06,5.5,37.06,5.5ZM19.23,417.64H5.5V61.52L19.23,77.06Zm19.26,0H24.73V75L5.5,53.22V33.75l33,37.34Zm19.27,0H44V69L5.5,25.44V6L57.76,65.1ZM77,78.39V417.64H63.26V63L12.42,5.5h17.4L283.56,293.43V5.5h13.76V308.78l77,87.09v19.84ZM198,417.64v-27l23.85,27Zm31.2,0-36.7-41.7v41.7H178.78V341c13.19,15.06,35.57,40.3,67.94,76.63Zm24.84,0c-32.81-36.83-80.8-91.3-80.8-91.3v91.3H159.51V291.4c8.49,9.69,112,126.24,112,126.24Zm24.75,0L154,276.75V417.64H140.25V241.81c15.81,18,155.18,175.83,155.18,175.83Zm23.86,0L134.75,227.15V417.64H121V192.21c20.1,22.93,198.92,225.43,198.92,225.43Zm24.47,0L115.48,177.54v240.1H101.72v-275c22.21,25.39,242.6,275,242.6,275Zm24.41,0L96.22,127.94v289.7H82.52V93.06c27.21,31.1,286.17,324.58,286.17,324.58Z"/><path class="cls-2" d="M85.66,525.69,62.59,499.18v26.51H57.76v-34.1h4.32Q66.46,496.83,73.7,505q8.76,9.81,11.47,12.93V491.59H90v34.1Z"/><path class="cls-2" d="M135.4,525.69l-2.94-5.52h-21l-2.71,5.52h-5.46l17.1-34.1h3.78l16.5,34.1Zm-13.12-27-8.53,17.11h16.59Z"/><path class="cls-2" d="M317.54,525.69l-2.94-5.52h-21l-2.71,5.52h-5.46l17.1-34.1h3.78l16.5,34.1Zm-13.12-27-8.53,17.11h16.59Z"/><path class="cls-2" d="M165.78,496v29.73H161V496H147.87v-4.37h30.94V496Z"/><path class="cls-2" d="M220.31,523q-3.83,3.06-11.47,3.07-15.71,0-15.7-13.49v-21H198v21q0,4.63,2.59,6.87t8.28,2.24c3.75,0,6.52-.76,8.3-2.26s2.56-3.64,2.56-6.7V491.59h4.83v21.07Q224.53,519.61,220.31,523Z"/><path class="cls-2" d="M267.77,509.42a9.37,9.37,0,0,0,4.55-8.38q0-9.45-13.13-9.45H241.64v34.1h4.82V511.41h13.41L267,525.69h5.31l-7.24-15C265.87,510.41,266.65,510,267.77,509.42ZM258.49,507h-12V496h12.83q8.2,0,8.2,5.26a4.85,4.85,0,0,1-2.62,4.45A12.73,12.73,0,0,1,258.49,507Z"/></g></g></svg>