<svg xmlns="http://www.w3.org/2000/svg" viewBox="0 0 240.73 147.27"><defs><style>.cls-1{fill:#c36d15;}</style></defs><g id="Capa_2" data-name="Capa 2"><g id="Capa_1-2" data-name="Capa 1"><path class="cls-1" d="M128.45,27.36h0l-.76-.18h0A15.59,15.59,0,0,0,117.45,0h-31V4.64h.21a7.21,7.21,0,0,1,7.12,7.24V53.31a7.42,7.42,0,0,1-5.89,7.33,7.2,7.2,0,0,1-1.32.13h-.12v5h36.82a19.51,19.51,0,0,0,5.2-38.39ZM112.94,2.53c4.72,0,7.68-.14,10.3,1.8a9.67,9.67,0,0,1,1.52,1.48A15.31,15.31,0,0,1,124,26.25c-6.31-2-15.85-6.41-18.54-18.35a4.41,4.41,0,0,1,4.32-5.37ZM104.26,20a1.18,1.18,0,0,1,2.21-.58,31.52,31.52,0,0,0,8.43,9.33h0l.16.13.06,0h0a55.58,55.58,0,0,0,8.53,5.18A13.35,13.35,0,0,1,128,37.36a13.54,13.54,0,0,1-10.23,22.43c-7.22,0-13.53-5.18-13.53-12.85C104.28,46.71,104.26,20,104.26,20Z"/><circle class="cls-1" cx="154.9" cy="58.11" r="7.52"/><path class="cls-1" d="M20.1,105.8a9.35,9.35,0,0,0-3.75-3c-.37-.16-.8-.32-1.28-.48l.18-.12a7.24,7.24,0,0,0,3.07-5.94,7.16,7.16,0,0,0-.65-3,7.87,7.87,0,0,0-1.84-2.54,9.71,9.71,0,0,0-6.91-2.43H.05l0,30.81H11.37a11.94,11.94,0,0,0,4.06-.69,10.4,10.4,0,0,0,3.36-1.93,8.67,8.67,0,0,0,2.12-2.84,7.75,7.75,0,0,0,.74-3.27,7.44,7.44,0,0,0-1.55-4.62ZM2.44,104.07H9.82a14.05,14.05,0,0,1,5.62,1,7,7,0,0,1,2.7,2.14,5.18,5.18,0,0,1,1.12,3.23,5.42,5.42,0,0,1-1,3,7.18,7.18,0,0,1-2.76,2.37h0a9.1,9.1,0,0,1-4.16.93H2.44Zm10.14-3a7.92,7.92,0,0,1-1.66.46,13.37,13.37,0,0,1-2.09.14H2.44V90.78H8.92a8.62,8.62,0,0,1,3.82.79,5.73,5.73,0,0,1,2.38,2,4.9,4.9,0,0,1,.8,2.67,4.41,4.41,0,0,1-1.07,3A6.22,6.22,0,0,1,12.58,101Z"/><path class="cls-1" d="M54.79,90.12a15.55,15.55,0,0,0-15.64,0,15.74,15.74,0,0,0-7.78,13.63,15.7,15.7,0,0,0,7.78,13.62,15.55,15.55,0,0,0,15.64,0,15.8,15.8,0,0,0,0-27.25ZM47,117a12.72,12.72,0,0,1-6.6-1.79,13.52,13.52,0,0,1-4.81-4.84,13.3,13.3,0,0,1,0-13.33,13.52,13.52,0,0,1,4.81-4.84,13,13,0,0,1,13.19,0,13.31,13.31,0,0,1,4.79,4.84,13.36,13.36,0,0,1-4.79,18.17A12.71,12.71,0,0,1,47,117Z"/><path class="cls-1" d="M86.69,105.6a9.75,9.75,0,0,0,2.88-.83,9.12,9.12,0,0,0,3.72-3,7.71,7.71,0,0,0,.84-8A8.77,8.77,0,0,0,92,91a10,10,0,0,0-3.34-2,11.85,11.85,0,0,0-4.08-.69H73.78v30.81h2.4V90.74h8.41a9.1,9.1,0,0,1,4.16.92A7.18,7.18,0,0,1,91.51,94a5.43,5.43,0,0,1,1,3,5.28,5.28,0,0,1-1.15,3.27,7.36,7.36,0,0,1-2.71,2.23,14.79,14.79,0,0,1-5.58.88H79L91.85,119.1l0,.05h3.19L84,105.76A24.51,24.51,0,0,0,86.69,105.6Z"/><polygon class="cls-1" points="107.51 119.15 127.56 119.15 127.56 116.66 109.9 116.66 109.9 104.97 123.67 104.97 123.67 102.52 109.9 102.52 109.9 90.78 127.56 90.78 127.56 88.34 107.51 88.34 107.51 119.15"/><path class="cls-1" d="M138.47,119.15h2.66l3.62-7.75h16.07l3.43,7.75h2.61L153.07,87.76ZM153,93.66,159.75,109H145.87Z"/><polygon class="cls-1" points="199 112.98 177.86 87.72 177.86 119.15 180.26 119.15 180.26 94.6 201.4 119.92 201.4 88.34 199 88.34 199 112.98"/><path class="cls-1" d="M227,87.76l-14.6,31.39H215l3.62-7.75H234.7l3.42,7.75h2.61Zm-.1,5.9L233.63,109H219.74Z"/><path class="cls-1" d="M45.41,135.43v.83h-4.6v10.82H40V136.26H35.36v-.83Z"/><path class="cls-1" d="M58,147.2a5.64,5.64,0,0,1-3-.8,5.79,5.79,0,0,1-2.15-2.16,6,6,0,0,1,2.15-8.14,5.92,5.92,0,0,1,5.91,0,6,6,0,0,1,2.15,8.14A5.86,5.86,0,0,1,61,146.4,5.67,5.67,0,0,1,58,147.2Zm0-11.07a4.89,4.89,0,0,0-2.54.69,5.08,5.08,0,0,0-1.85,1.86,5,5,0,0,0-.69,2.57,5,5,0,0,0,.69,2.57,5,5,0,0,0,1.85,1.87,5,5,0,0,0,5.09,0,5.08,5.08,0,0,0,1.84-1.87,4.94,4.94,0,0,0,.68-2.57,5,5,0,0,0-.68-2.57,5.13,5.13,0,0,0-1.84-1.86A4.93,4.93,0,0,0,58,136.13Z"/><path class="cls-1" d="M80.7,144.76l2.89-9.33h.85l-3.67,11.84-3.31-8.67-3.35,8.67-3.69-11.84h.84l2.92,9.37,3.28-8.45Z"/><path class="cls-1" d="M93.17,137.62v9.46h-.81V135.29l8.06,9.64v-9.5h.81v11.84Z"/><path class="cls-1" d="M117.77,141.67h-6.88v5.41h-.83V135.43h.83v5.41h6.88v-5.41h.8v11.65h-.8Z"/><path class="cls-1" d="M132.56,147.2a5.64,5.64,0,0,1-2.95-.8,5.79,5.79,0,0,1-2.15-2.16,6,6,0,0,1,2.15-8.14,5.92,5.92,0,0,1,5.91,0,6,6,0,0,1,2.15,8.14,5.86,5.86,0,0,1-2.15,2.16A5.67,5.67,0,0,1,132.56,147.2Zm0-11.07a4.89,4.89,0,0,0-2.54.69,5.18,5.18,0,0,0-1.86,1.86,5,5,0,0,0-.68,2.57,4.94,4.94,0,0,0,.68,2.57,5.13,5.13,0,0,0,1.86,1.87,5,5,0,0,0,5.09,0,5.08,5.08,0,0,0,1.84-1.87,4.94,4.94,0,0,0,.68-2.57,5,5,0,0,0-.68-2.57,5.13,5.13,0,0,0-1.84-1.86A4.93,4.93,0,0,0,132.56,136.13Z"/><path class="cls-1" d="M150.87,147.2a4.3,4.3,0,0,1-1.69-.35,4.22,4.22,0,0,1-1.44-1,4.14,4.14,0,0,1-1-1.44,4.55,4.55,0,0,1-.33-1.73v-7.26h.8v7.26a3.65,3.65,0,0,0,.28,1.43,3.38,3.38,0,0,0,.78,1.18,3.74,3.74,0,0,0,1.18.8,3.62,3.62,0,0,0,1.38.28,3.68,3.68,0,0,0,1.4-.28,3.74,3.74,0,0,0,1.18-.8,3.68,3.68,0,0,0,.78-1.18,3.83,3.83,0,0,0,.28-1.43v-7.26h.8v7.26a4.55,4.55,0,0,1-.33,1.73,4.14,4.14,0,0,1-1,1.44,4.27,4.27,0,0,1-1.43,1A4.34,4.34,0,0,1,150.87,147.2Z"/><path class="cls-1" d="M171.53,142.57A2.49,2.49,0,0,1,172,144a2.72,2.72,0,0,1-.32,1.27,3.16,3.16,0,0,1-.93,1,4.89,4.89,0,0,1-2.92.9,5.49,5.49,0,0,1-1.58-.23,4.55,4.55,0,0,1-1.34-.67,3,3,0,0,1-1.24-1.84l.77-.43a2,2,0,0,0,1,1.61,3.39,3.39,0,0,0,1.09.55,4.8,4.8,0,0,0,1.33.19,4,4,0,0,0,2.42-.74,2,2,0,0,0,.95-1.65,1.78,1.78,0,0,0-.35-1,3,3,0,0,0-1-.82,7,7,0,0,0-2.11-.48l-.91-.15a4.64,4.64,0,0,1-1.33-.39,3.56,3.56,0,0,1-1.38-1.14,2.55,2.55,0,0,1-.5-1.53,2.51,2.51,0,0,1,.33-1.25,3.37,3.37,0,0,1,.94-1,4.79,4.79,0,0,1,1.34-.66,5.49,5.49,0,0,1,1.58-.23,5,5,0,0,1,2.92.89A3,3,0,0,1,172,138l-.77.43a2,2,0,0,0-.26-.86,3,3,0,0,0-.69-.75,3.84,3.84,0,0,0-1.11-.55,4.65,4.65,0,0,0-2.63,0,3.44,3.44,0,0,0-1.1.55,2.71,2.71,0,0,0-.72.76,1.65,1.65,0,0,0-.25.87,1.83,1.83,0,0,0,.41,1.1,2.87,2.87,0,0,0,1,.85,3.17,3.17,0,0,0,.84.26c.3.06.69.11,1.17.17l.63.09a7.57,7.57,0,0,1,1,.2,3.18,3.18,0,0,1,.78.3A3.66,3.66,0,0,1,171.53,142.57Z"/><path class="cls-1" d="M180.39,147.08V135.43h7.55v.83H181.2v4.58h5.25v.83H181.2v4.56h6.74v.85Z"/><path class="cls-1" d="M203.6,142.57a2.49,2.49,0,0,1,.46,1.44,2.72,2.72,0,0,1-.32,1.27,3.09,3.09,0,0,1-.94,1,4.84,4.84,0,0,1-2.92.9,5.42,5.42,0,0,1-1.57-.23,4.73,4.73,0,0,1-1.35-.67,2.94,2.94,0,0,1-1.23-1.84l.77-.43a2,2,0,0,0,1,1.61,3.39,3.39,0,0,0,1.09.55,4.79,4.79,0,0,0,1.32.19,3.91,3.91,0,0,0,2.42-.74,2,2,0,0,0,.95-1.65,1.71,1.71,0,0,0-.35-1,2.94,2.94,0,0,0-1-.82,7.07,7.07,0,0,0-2.12-.48l-.9-.15a4.71,4.71,0,0,1-1.34-.39,3.71,3.71,0,0,1-1.38-1.14,2.61,2.61,0,0,1-.5-1.53,2.51,2.51,0,0,1,.33-1.25,3.5,3.5,0,0,1,.94-1,5,5,0,0,1,1.35-.66,5.42,5.42,0,0,1,1.57-.23,4.91,4.91,0,0,1,2.92.89A2.92,2.92,0,0,1,204,138l-.77.43a1.83,1.83,0,0,0-.26-.86,2.68,2.68,0,0,0-.69-.75,3.6,3.6,0,0,0-1.11-.55,4.71,4.71,0,0,0-1.31-.19,4.77,4.77,0,0,0-1.31.19,3.34,3.34,0,0,0-1.1.55,2.71,2.71,0,0,0-.72.76,1.65,1.65,0,0,0-.25.87,1.83,1.83,0,0,0,.41,1.1,2.87,2.87,0,0,0,1,.85,3.1,3.1,0,0,0,.83.26c.31.06.7.11,1.18.17l.62.09a7.23,7.23,0,0,1,1,.2,3.26,3.26,0,0,1,.79.3A3.66,3.66,0,0,1,203.6,142.57Z"/></g></g></svg>