<svg xmlns="http://www.w3.org/2000/svg" viewBox="0 0 379.26 525.33"><defs><style>.cls-1{fill:#fff;}</style></defs><g id="Capa_2" data-name="Capa 2"><g id="Layer_1" data-name="Layer 1"><path class="cls-1" d="M379.26,0H0V422.56H379.26ZM360.12,5.49h13.65V303.82l-13.65-15.45Zm-19.24,0h13.75v285l19.14,21.66v19.45l-32.89-37.21Zm-19.24,0h13.75V296.41l38.38,43.43V359.3l-52.13-59Zm-19.23,0h13.74V302.38l57.62,65.21V387l-71.36-80.76ZM181.49,30.72,159.23,5.49h22.26ZM151.89,5.49,187,45.36V5.49h13.74V80.25c-1.45-1.66-66.28-74.76-66.28-74.76Zm-24.8,0,79.12,89.4V5.49H220V129.78C218.83,128.49,109.69,5.49,109.69,5.49Zm-24.73,0L225.45,144.43V5.49H239.2V179.31c-19-21.71-154-173.82-154-173.82Zm-24.46,0L244.69,194V5.49h13.75V228.84C257,227.18,60.65,5.49,60.65,5.49Zm-24.55,0,210.58,238V5.49h13.75V278.37C254.47,251.85,37,5.49,37,5.49ZM19.21,417.07H5.49V61.44L19.21,77Zm19.23,0H24.7V74.88L5.49,53.15V33.7L38.44,71Zm19.24,0H43.93V68.92L5.49,25.4V6L57.68,65ZM76.92,78.28V417.07H63.17V62.94L12.41,5.49H29.78L283.17,293V5.49h13.74V308.36l76.86,87v19.82ZM197.77,417.07v-27l23.82,27Zm31.16,0-36.65-41.64v41.64H178.53V340.55c13.18,15,35.53,40.24,67.85,76.52Zm24.81,0C221,380.29,173,325.9,173,325.9v91.17H159.29V291c8.48,9.67,111.84,126.06,111.84,126.06Zm24.71,0L153.8,276.37v140.7H140.06V241.48c15.78,18,155,175.59,155,175.59Zm23.83,0L134.56,226.84V417.07H120.82V192c20.06,22.9,198.64,225.12,198.64,225.12Zm24.43,0L115.33,177.3V417.07H101.58V142.41c22.18,25.36,242.27,274.66,242.27,274.66Zm24.39,0-255-289.3v289.3H82.41V92.93C109.58,124,368.19,417.07,368.19,417.07Z"/><path class="cls-1" d="M85.54,525l-23-26.48V525H57.68V490.92H62q4.36,5.22,11.6,13.36,8.75,9.8,11.46,12.91V490.92h4.82V525Z"/><path class="cls-1" d="M135.21,525l-2.93-5.52H111.35L108.64,525h-5.45l17.08-34.06H124L140.52,525Zm-13.1-27-8.52,17.08h16.57Z"/><path class="cls-1" d="M317.11,525l-2.94-5.52H293.24l-2.7,5.52h-5.46l17.08-34.06h3.77L322.41,525ZM304,498l-8.51,17.08h16.57Z"/><path class="cls-1" d="M165.55,495.29V525h-4.82V495.29H147.67v-4.37h30.89v4.37Z"/><path class="cls-1" d="M220,522.27q-3.82,3.06-11.46,3.06-15.66,0-15.67-13.46V490.92h4.82v20.95q0,4.62,2.59,6.85c1.72,1.49,4.48,2.24,8.26,2.24s6.52-.75,8.29-2.26,2.57-3.63,2.57-6.68v-21.1h4.82V512Q224.23,518.9,220,522.27Z"/><path class="cls-1" d="M267.41,508.73a9.35,9.35,0,0,0,4.54-8.37q0-9.44-13.11-9.44H241.31V525h4.82V510.71h12.26l1.1,0h0L266.65,525H272l-7.23-15C265.51,509.72,266.29,509.29,267.41,508.73Zm-9.27-2.39h-12v-11h12.81q8.19,0,8.19,5.25a4.84,4.84,0,0,1-2.62,4.44A12.71,12.71,0,0,1,258.14,506.34Z"/></g></g></svg>