<svg xmlns="http://www.w3.org/2000/svg" viewBox="0 0 361.26 69.51"><defs><style>.cls-1{fill:#fff;}.cls-2{fill:#cda787;}</style></defs><g id="Capa_2" data-name="Capa 2"><g id="Layer_1" data-name="Layer 1"><path class="cls-1" d="M124.39,51.61l-23-26.48V51.61H96.53V17.55h4.32q4.37,5.22,11.6,13.37,8.74,9.8,11.46,12.91V17.55h4.82V51.61Z"/><path class="cls-1" d="M174.07,51.61l-2.94-5.52H150.2l-2.71,5.52H142l17.08-34.06h3.77l16.48,34.06ZM161,24.64l-8.52,17.08H169Z"/><path class="cls-1" d="M356,51.61,353,46.09H332.09l-2.7,5.52h-5.45L341,17.55h3.77l16.48,34.06Zm-13.1-27-8.52,17.08h16.57Z"/><path class="cls-1" d="M204.4,21.92V51.61h-4.82V21.92H186.52V17.55h30.89v4.37Z"/><path class="cls-1" d="M258.86,48.9Q255,52,247.41,52q-15.67,0-15.68-13.46V17.55h4.82v21c0,3.08.87,5.37,2.59,6.86s4.48,2.23,8.27,2.23,6.51-.75,8.28-2.26,2.57-3.63,2.57-6.68V17.55h4.82V38.6Q263.08,45.53,258.86,48.9Z"/><path class="cls-1" d="M306.26,35.36A9.34,9.34,0,0,0,310.8,27q0-9.45-13.11-9.45H280.16V51.61H285V37.34h12.26l1.1,0h0l7.13,14.25h5.3l-7.23-15C304.36,36.35,305.14,35.92,306.26,35.36ZM297,33H285v-11h12.81q8.19,0,8.19,5.25a4.84,4.84,0,0,1-2.61,4.44A12.76,12.76,0,0,1,297,33Z"/><path class="cls-2" d="M62.39,0H0V69.51H62.39ZM59.24.9h2.25V50l-2.25-2.54ZM56.08.9h2.26V47.78l3.15,3.56v3.2l-5.41-6.12ZM52.91.9h2.26V48.76l6.32,7.15v3.2L52.91,49.4ZM49.75.9H52V49.74l9.48,10.73v3.2L49.75,50.39ZM29.86,5.05,26.19.9h3.67ZM25,.9l5.77,6.56V.9H33V13.2L22.12.9ZM20.91.9l13,14.71V.9h2.26V21.35L18.05.9ZM16.84.9,37.09,23.76V.9h2.26V29.5C36.22,25.93,14,.9,14,.9Zm-4,0,27.44,31V.9h2.26V37.65C42.28,37.37,10,.9,10,.9Zm-4,0L43.42,40.06V.9h2.26V45.79C41.86,41.43,6.09.9,6.09.9ZM3.16,68.61H.9V10.11l2.26,2.55Zm3.16,0H4.06V12.32L.9,8.74V5.54l5.42,6.14Zm3.17,0H7.23V11.34L.9,4.18V1L9.49,10.7Zm3.16-55.73V68.61H10.39V10.35L2,.9H4.9L46.58,48.21V.9h2.26V50.73L61.49,65v3.26ZM32.53,68.61V64.17l3.92,4.44Zm5.13,0-6-6.85v6.85H29.37V56c2.17,2.48,5.84,6.62,11.16,12.59Zm4.08,0c-5.39-6-13.27-15-13.27-15v15H26.2V47.87c1.4,1.59,18.4,20.74,18.4,20.74Zm4.07,0L25.3,45.47V68.61H23V39.73c2.6,3,25.49,28.88,25.49,28.88Zm3.92,0L22.14,37.32V68.61H19.88v-37c3.3,3.76,32.67,37,32.67,37Zm4,0L19,29.17V68.61H16.71V23.43c3.65,4.17,39.86,45.18,39.86,45.18Zm4,0L15.81,21V68.61H13.56V15.29c4.47,5.11,47,53.32,47,53.32Z"/></g></g></svg>